<svg xmlns="http://www.w3.org/2000/svg" viewBox="0 0 411.12 97.79"><defs><style>.cls-1{fill:#f1ef64;}.cls-1,.cls-2{stroke:#1a3446;stroke-linecap:round;stroke-linejoin:round;stroke-width:4.44px;}.cls-2{fill:#fff;}</style></defs><g id="レイヤー_2" data-name="レイヤー 2"><g id="レイヤー_1-2" data-name="レイヤー 1"><g id="レイヤー_2-2" data-name="レイヤー 2"><g id="レイヤー_1-2-2" data-name="レイヤー 1-2"><g id="レイヤー_2-2-2" data-name="レイヤー 2-2"><g id="レイヤー_1-2-2-2" data-name="レイヤー 1-2-2"><g id="レイヤー_2-2-2-2" data-name="レイヤー 2-2-2"><g id="design"><path class="cls-1" d="M152.85,84.13l210.05,7.5c22.09,0,46-27.32,46-49.41a40,40,0,0,0-40-40H160.16"/><path class="cls-1" d="M183.81,2.27H55.52C33.43,2.27,4,30.4,4,52.49S33.43,82.27,55.52,82.27l115.19,3.91"/><path class="cls-2" d="M156,95.57H355.65a40,40,0,0,0,0-80H159.4"/><path class="cls-2" d="M183.81,15.57H42.22a40,40,0,0,0,0,80H181.61"/></g></g><path d="M70.37,60.26a27.74,27.74,0,0,1,5.15,5.4l-2.85,2.88a24.21,24.21,0,0,0-4.1-4.93v9.9H64.43V65.12a34.8,34.8,0,0,1-6.19,6.41,17.19,17.19,0,0,0-2.56-3.81,25.85,25.85,0,0,0,7.42-7.46H56.94V56.41h7.49V53.25h4.14v3.16h6.66v3.85ZM76,43.92a117.84,117.84,0,0,1-18.7,2.59A13.05,13.05,0,0,0,56.19,43a113.7,113.7,0,0,0,17.2-2.67ZM60,54.36a19.53,19.53,0,0,0-3-5.69l3-1.36a19.26,19.26,0,0,1,3.24,5.4Zm6.73-8a21.9,21.9,0,0,1,2.45,5.26l-3.53,1.26a19.75,19.75,0,0,0-2.23-5.47Zm9.4,1.08-.11.18a25.48,25.48,0,0,0,8.49-7l4.25,1.76A34.65,34.65,0,0,1,78.87,51a16.18,16.18,0,0,0-3-3.13c-1.19,2.3-2.45,4.75-3.45,6.33l-3.28-1a38.46,38.46,0,0,0,2.74-6.84ZM90.31,62.09A31.26,31.26,0,0,1,77,73.62a17.23,17.23,0,0,0-3.1-3.71c4.79-1.94,9.58-5.36,12-9.57Zm-.9-9.89a36.94,36.94,0,0,1-10.22,8.74A15.56,15.56,0,0,0,76,57.75c3.2-1.66,7.16-4.5,9.18-7.35Z"/><path d="M120.88,46.08V50H130V73.4h-4.36v-2h-21v2H100.5V50h8.35V46.08H99V42h32.18v4.1Zm4.71,21.42v-5a4.42,4.42,0,0,1-1.8.29h-3c-3.49,0-4.18-1.19-4.18-4.75V53.93H113v.4c0,3.56-1.08,7.73-6,10.33a13.83,13.83,0,0,0-2.38-2.27V67.5Zm-21-13.57v7.59c3.85-2.12,4.43-4.85,4.43-7.27v-.32Zm12.06-7.85H113V50h3.64Zm9,7.85h-4.93V58c0,.94.11,1,.79,1h1.84c.61,0,.75-.26.83-1.87a7.43,7.43,0,0,0,1.47.79Z"/><path d="M173.54,43.78a37.77,37.77,0,0,1-6.08,8.39A20,20,0,0,0,174.62,56,15.9,15.9,0,0,0,172,59.6a21.48,21.48,0,0,1-7.7-4.68v1.69H150.69V55.05a26.49,26.49,0,0,1-8.39,5A14,14,0,0,0,140,56.7a22.35,22.35,0,0,0,6.63-3.38c-1-.9-2-1.76-3.06-2.56l-1.19.87a12.19,12.19,0,0,0-2.63-2.78,21.61,21.61,0,0,0,8-8.82l4,.69c-.25.5-.5,1-.79,1.47h3.63l.72-.14,2.09.86c-.18-.57-.32-1.18-.5-1.8l3.67-.75A28.42,28.42,0,0,0,162.21,45V42.16h7.73l.83-.25ZM151.23,65.41a24.2,24.2,0,0,1-7.09,7.74,31.75,31.75,0,0,0-3.53-2.81A17.85,17.85,0,0,0,147,64.22Zm8.28-2v6.08c0,2-.44,3-1.95,3.6s-3.45.61-6.08.58A14.62,14.62,0,0,0,150,69.84c1.76.07,3.85.07,4.39,0s.76-.11.76-.54v-6H143.67V59.51H171v3.85ZM145.72,48.93a39.36,39.36,0,0,1,3.2,2.41,16.58,16.58,0,0,0,1.3-1.48,33.86,33.86,0,0,0-3.2-2.23C146.58,48.06,146.19,48.49,145.72,48.93ZM149.1,45l-.39.54a33.12,33.12,0,0,1,3.17,2A21.93,21.93,0,0,0,153.1,45Zm13.25,7.77a28.26,28.26,0,0,1-4.68-9.07,24.25,24.25,0,0,1-4.82,9.07Zm.14-7.2a22.81,22.81,0,0,0,2.38,3.82,27.33,27.33,0,0,0,2.77-3.82Zm3.64,18.61A48.41,48.41,0,0,1,173.26,71l-3.82,2.34a44.16,44.16,0,0,0-6.87-7Z"/><path d="M191.87,43a29.1,29.1,0,0,0-.86,3.17,87.28,87.28,0,0,0-1.73,13.07,16.05,16.05,0,0,0,.14,2.3c.51-1.26,1.08-2.45,1.59-3.6l2.23,1.73a85.89,85.89,0,0,0-2.56,8.75,9.2,9.2,0,0,0-.21,1.65,11.06,11.06,0,0,0,.07,1.48l-4.1.28A44.79,44.79,0,0,1,185,60.19a98.28,98.28,0,0,1,1.48-14.11,27.16,27.16,0,0,0,.36-3.49Zm8.35,17.6a11.75,11.75,0,0,0-.43,3c0,1.59,1.37,2.52,5,2.52a41.76,41.76,0,0,0,8.92-.93l.11,4.82a49,49,0,0,1-9.21.72c-6.16,0-9.07-2.23-9.07-5.87a22,22,0,0,1,.61-4.64Zm12.46-15.26V50a97.69,97.69,0,0,1-15.3,0V45.39a72.45,72.45,0,0,0,15.3,0Z"/><path d="M228.2,49.68c2.77-.83,10-3.38,15.22-3.38,6.45,0,11.52,3.71,11.52,10.29,0,8.07-7.7,13.25-20.27,13.9l-2-4.75c9.65-.22,17.21-3,17.21-9.22,0-3.35-2.3-5.9-6.59-5.9-5.25,0-13.68,3.53-17.38,5.18l-2-5A35.89,35.89,0,0,0,228.2,49.68Z"/><path d="M271.29,49.18c0,2.3,0,5,.21,7.56.51,5.14,1.59,8.64,3.82,8.64,1.69,0,3.1-4.18,3.78-7l3.6,4.32c-2.38,6.19-4.61,8.39-7.49,8.39-3.89,0-7.31-3.53-8.31-13.1-.33-3.28-.4-7.42-.4-9.61a20.69,20.69,0,0,0-.25-3.6l5.47.07A28.61,28.61,0,0,0,271.29,49.18Zm24.76,14.65-4.71,1.8c-.54-5.73-2.45-14.11-6.34-18.5l4.54-1.52c3.38,4.14,6.12,12.75,6.51,18.22Z"/><path d="M307.65,45.61c3-.28,8.85-.79,15.37-1.36,3.67-.29,7.59-.51,10.08-.62v4.61a36.75,36.75,0,0,0-6.87.47,10.85,10.85,0,0,0-7.52,10c0,5.87,5.5,8,11.51,8.28l-1.65,4.93c-7.49-.5-14.54-4.53-14.54-12.24a14.27,14.27,0,0,1,5.25-11c-3.06.33-10.58,1.12-14.72,2l-.43-4.9C305.56,45.76,306.93,45.69,307.65,45.61Z"/></g></g></g></g></g></g></svg>