<svg xmlns="http://www.w3.org/2000/svg" viewBox="0 0 411.12 97.79"><defs><style>.cls-1{fill:#185f8d;}.cls-1,.cls-2{stroke:#1a3446;stroke-linecap:round;stroke-linejoin:round;stroke-width:4.44px;}.cls-2{fill:#fff;}</style></defs><g id="レイヤー_2" data-name="レイヤー 2"><g id="レイヤー_1-2" data-name="レイヤー 1"><g id="レイヤー_2-2" data-name="レイヤー 2"><g id="レイヤー_1-2-2" data-name="レイヤー 1-2"><g id="レイヤー_2-2-2" data-name="レイヤー 2-2"><g id="レイヤー_1-2-2-2" data-name="レイヤー 1-2-2"><g id="レイヤー_2-2-2-2" data-name="レイヤー 2-2-2"><g id="design"><path class="cls-1" d="M152.85,84.13l210.05,7.5c22.09,0,46-27.32,46-49.41a40,40,0,0,0-40-40H160.16"/><path class="cls-1" d="M183.81,2.27H55.52C33.43,2.27,4,30.4,4,52.49S33.43,82.27,55.52,82.27l115.19,3.91"/><path class="cls-2" d="M156,95.57H355.65a40,40,0,0,0,0-80H159.4"/><path class="cls-2" d="M183.81,15.57H42.22a40,40,0,0,0,0,80H181.61"/></g></g></g></g></g></g><text/><path d="M78.22,64.8c2.55,2.88,6.59,4.54,12.27,5.15A16.81,16.81,0,0,0,88,73.69c-6.84-1.08-11.12-3.63-14-8.1-2.13,3.21-6.12,6-13.46,8a17.74,17.74,0,0,0-2.67-3.45c6-1.37,9.5-3.24,11.48-5.37H58.53V61.09H71.45a16.09,16.09,0,0,0,.36-2.26H62.6V55.37h9.25V53.21H62V50.84h-3.2V43.17H72V40h4.39v3.13H89.52v7.67H86.64v2.37H76.13v2.16h9.79v3.46H76.1a12.49,12.49,0,0,1-.29,2.26H90V64.8Zm-6.37-15V47.7h4.28v2.06h9V46.91h-22v2.85Z"/><path d="M112.42,49.36a47.4,47.4,0,0,1-3.85,5.51V73.66h-4.28V59.58c-1,1-2,1.88-3,2.67a41.59,41.59,0,0,0-2.91-3.71,35.25,35.25,0,0,0,9.9-10.76Zm-1.33-7.67a48.24,48.24,0,0,1-9.9,9.47,24.45,24.45,0,0,0-2.38-3.49A32.09,32.09,0,0,0,107,40ZM132.25,56h-4.93V68.65c0,2.31-.43,3.5-2,4.14s-3.82.72-7,.72a17.48,17.48,0,0,0-1.3-4.35c2.05.11,4.43.11,5.08.07s.9-.14.9-.68V56H112.35V52h19.9Zm-.9-9.9H113.86V42.05h17.49Z"/><path d="M159.36,56.85H156.3L157,57c-.43.72-.9,1.47-1.41,2.23h18.15v3.53h-7.31a16.21,16.21,0,0,1-3.13,4.42c3.6,1,6.84,2,9.32,2.88L170,73.62c-2.77-1.11-6.48-2.37-10.65-3.56-4,2-9.25,3-16.16,3.6a11.86,11.86,0,0,0-1.7-3.75,53.87,53.87,0,0,0,11.67-1.51l-3.24-.75-.4.54-4.14-1.26c.9-1.16,1.95-2.59,3-4.14H141V59.26h9.71c.72-1.15,1.44-2.3,2.06-3.35l2.41.65V51.48a30,30,0,0,1-12.24,7,17.25,17.25,0,0,0-2.56-3.31,30.07,30.07,0,0,0,10.3-4.53h-9.36v-3.5h13.86V44.79c-3.53.22-7.06.32-10.33.32a13,13,0,0,0-.94-3.27c8.14-.11,17.75-.69,23.11-1.8l3.1,3a92.26,92.26,0,0,1-10.77,1.51v2.66h13.83v3.5h-9.25a30.75,30.75,0,0,0,10.25,4.21,18.3,18.3,0,0,0-2.73,3.53,30.17,30.17,0,0,1-12.1-6.84Zm-6.08,5.94-1.15,1.69c2.16.47,4.32,1,6.44,1.47a11.51,11.51,0,0,0,3.06-3.16Z"/><path d="M206.42,67.39c3.34,1,7,2.31,9.5,3.28l-3.78,3a95.57,95.57,0,0,0-11.56-4.17l3-2.13h-9.75l2.73,1.91a47.88,47.88,0,0,1-11.16,4.32,36.53,36.53,0,0,0-3.24-3.06,43.41,43.41,0,0,0,9.22-3.17h-5.58V51.45H212.1V67.39Zm4.42-17.27H187.41v-9h23.43ZM190,55.91h17.63V54.36H190Zm0,4.25h17.63V58.61H190Zm0,4.32h17.63V62.89H190Zm16.23-20H191.73V46.8h14.54Z"/><path d="M255.66,62.64A59.49,59.49,0,0,1,249,66.71a23.89,23.89,0,0,0,8.39,3.1,18.66,18.66,0,0,0-2.7,3.85c-8.14-1.87-12.93-6.16-15.91-13h-4.14v7.63c2.52-.36,5.18-.76,7.77-1.15l.18,3.78c-5.51.9-11.45,1.8-15.8,2.45l-1-3.93c1.29-.14,2.77-.36,4.39-.54V60.7h-5.94V56.92h6V41.23H253v3.49H234.68v1.9H252v3.32H234.68v1.8H252v3.31H234.68v1.87h22.06V60.7h-3.85ZM243.28,60.7a17.17,17.17,0,0,0,2.84,3.74,50.44,50.44,0,0,0,5.51-3.74Z"/><path d="M291.2,64.55a11.87,11.87,0,0,0,8.17,5.54,13.34,13.34,0,0,0-2.52,3.53,13.71,13.71,0,0,1-8.5-6.62c-1.51,2.52-4.32,4.86-9.36,6.51a16.21,16.21,0,0,0-2.37-3.16c4.86-1.52,7.3-3.6,8.49-5.8h-7.52V60.88h8.57c0-.43,0-.86,0-1.26V57.39H283a19.48,19.48,0,0,1-2.52,3.2c-.47-.39-1.3-1-2.09-1.58v0c-1.37.4-2.77.8-4.17,1.16V69c0,2.12-.36,3.17-1.55,3.81s-3,.76-5.47.76A16.6,16.6,0,0,0,266,69.63c1.37.07,2.85.07,3.32.07s.64-.18.64-.69v-7.7l-4,1-1-4.11c1.44-.29,3.2-.68,5.07-1.15V50.73h-4.46v-4H270V40h4.22v6.73h3.38v4h-3.38v5.33c1.22-.29,2.44-.62,3.67-.94l.29,2.12a18.6,18.6,0,0,0,3.7-6.62c-1.33.07-2.59.11-3.7.14L277.8,47l3.1-.07A44.79,44.79,0,0,0,283.67,40l4.47,1c-.9,1.91-1.95,4-2.92,5.76,2.12-.11,4.39-.18,6.62-.29-.68-.86-1.44-1.69-2.12-2.41l3.13-1.87a43.62,43.62,0,0,1,6.34,7.67L295.8,52a17,17,0,0,0-1.22-2c-3.92.21-8,.43-11.59.58l2.91.61c-.28.86-.61,1.69-1,2.52h12.49v3.67h-7.3v2.3a11.83,11.83,0,0,1,0,1.19h8.53v3.67Z"/><path d="M319.38,59.22,315.5,60.3v8.82c0,2-.36,3.1-1.51,3.71s-2.92.79-5.44.79a16.08,16.08,0,0,0-1.15-3.89c1.37.08,2.84.08,3.31.08s.65-.18.65-.69v-7.7l-3.78,1-1.08-4.11c1.37-.28,3.06-.64,4.86-1.08V50.73h-4.28v-4h4.28V40h4.14v6.73H319v4H315.5V56.2l3.35-.86Zm17.54-2.77,2.73,1.12c-2.81,9.68-9.72,14-19,16.09a14.44,14.44,0,0,0-2.05-3.53,27.86,27.86,0,0,0,9.18-3.2,42.26,42.26,0,0,0-4.47-3.46c-.9.61-1.9,1.19-2.95,1.76A11.94,11.94,0,0,0,318,62.14a19.57,19.57,0,0,0,9.4-8.68l2.62.47a38.52,38.52,0,0,0-4.46-7.09,53.66,53.66,0,0,0,4-6.87l4,.86a60.79,60.79,0,0,1-3.64,6A38.64,38.64,0,0,1,334,53l-3.24,1.12.76.14c-.44.83-.9,1.62-1.41,2.41h6.05ZM323.2,54.58a36.23,36.23,0,0,0-4.1-7.6,61.08,61.08,0,0,0,3.78-7l3.92.82A64.75,64.75,0,0,1,323.27,47a36,36,0,0,1,3.82,6.33Zm4.14,5.54c-.36.36-.68.69-1,1A43.47,43.47,0,0,1,331,64.51a15.08,15.08,0,0,0,3.24-4.39Zm9.72-5.54a38.93,38.93,0,0,0-5-7.6,64.16,64.16,0,0,0,4.21-7l4,.9a56.58,56.58,0,0,1-3.89,6,39.16,39.16,0,0,1,4.53,6.19Z"/></g></g></svg>