<svg xmlns="http://www.w3.org/2000/svg" viewBox="0 0 254.48 84.41"><defs><style>.cls-1{fill:#231815;}</style></defs><g id="レイヤー_2" data-name="レイヤー 2"><g id="レイヤー_1-2" data-name="レイヤー 1"><path class="cls-1" d="M80,4.25a19.45,19.45,0,0,1-4.43,7.34,17,17,0,0,0,7.38,3.66,6.15,6.15,0,0,0-.84,1.15,17.42,17.42,0,0,1-7.51-3.9,21.09,21.09,0,0,1-7.36,3.92,5.6,5.6,0,0,0-.76-1.13,19.58,19.58,0,0,0,7.22-3.66,20.48,20.48,0,0,1-4.36-7.38H66.63V3.08H74V0h1.21V3.08h7.52V4.25Zm-9.36,0a17.82,17.82,0,0,0,4,6.5,16.67,16.67,0,0,0,4-6.5Z"/><path class="cls-1" d="M91.62.67a24.59,24.59,0,0,1-2,3.78V16.37H88.39V6.1a21,21,0,0,1-2.46,2.7,7.64,7.64,0,0,0-.74-1.18A20.14,20.14,0,0,0,90.48.31Zm8,14.35c1,0,1.17-.67,1.3-3.3a3.85,3.85,0,0,0,1.13.52c-.2,2.9-.54,3.89-2.38,3.89H95.87c-1.81,0-2.36-.5-2.36-2.37V.43h1.18V7.24a32.07,32.07,0,0,0,5.55-3.84l.85,1a38.54,38.54,0,0,1-6.4,4v5.35c0,1,.22,1.23,1.23,1.23Z"/><path class="cls-1" d="M120.56,1.62A15.83,15.83,0,0,1,117.23,6a10.84,10.84,0,0,0,4.07,2.42,5.43,5.43,0,0,0-.77,1,11.14,11.14,0,0,1-4-2.48v.92h-7v-1a13.15,13.15,0,0,1-4.45,2.9,3.88,3.88,0,0,0-.66-.94,12.09,12.09,0,0,0,3.78-2.19,19.66,19.66,0,0,0-2.4-1.75c-.23.2-.5.4-.77.59a3.2,3.2,0,0,0-.79-.77A12.8,12.8,0,0,0,108.45,0l1.18.2c-.18.32-.36.64-.57,1h2.79l.2-.06.72.31a12.48,12.48,0,0,1-3.12,5.31h6.72A14.56,14.56,0,0,1,112.91.49L114,.27a13,13,0,0,0,2.56,5,14.24,14.24,0,0,0,2.38-3.06h-3.84v-1h4.47l.23-.07ZM109.47,12.26A12.82,12.82,0,0,1,105.85,16a6.51,6.51,0,0,0-1-.77,10.4,10.4,0,0,0,3.44-3.28ZM113.41,11v4.05c0,.66-.16,1-.7,1.17a11.41,11.41,0,0,1-2.88.18,5.25,5.25,0,0,0-.41-1.1c1.15,0,2.12,0,2.43,0s.38-.06.38-.29V11H106V10h13.79V11ZM106.5,4.29A28.32,28.32,0,0,1,108.9,6,11.83,11.83,0,0,0,110,4.75c-.62-.45-1.57-1-2.42-1.53A11.62,11.62,0,0,1,106.5,4.29Zm2-2.18c-.13.16-.26.32-.38.5A25.18,25.18,0,0,1,110.46,4a11,11,0,0,0,.94-1.92Zm8.3,9.85a23.21,23.21,0,0,1,3.74,3.47l-1,.68a23.19,23.19,0,0,0-3.71-3.56Z"/><path class="cls-1" d="M133.2,5a16.41,16.41,0,0,0,7,7.44,4.78,4.78,0,0,0-.9,1A17.86,17.86,0,0,1,132.44,6v5.79H136V13h-3.53V16.4h-1.22V13h-3.59V11.79h3.59V6a19.12,19.12,0,0,1-6.88,7.53,5,5,0,0,0-.85-1,17.4,17.4,0,0,0,7-7.54h-6.37V3.85h7.13V0h1.22V3.85h7.2V5Z"/><path class="cls-1" d="M142.73,7H152V8.08h-9.26Zm9-3.89H143.2V2.05h3.68v-2H148v2h3.73ZM144,9.72h7v6.59h-1.15v-1h-4.7v1.08H144Zm1.17-3a12.34,12.34,0,0,0-.79-3l1-.21a11,11,0,0,1,.84,2.93Zm0,4.07v3.49h4.7V10.79Zm3.41-4.25a30.38,30.38,0,0,0,1-3.14l1.13.29a30.91,30.91,0,0,1-1.22,3.1Zm10.64-5c-.74,1.7-1.7,3.77-2.54,5.42,1.85,1.7,2.32,3.1,2.34,4.4a2.55,2.55,0,0,1-.87,2.28,2.39,2.39,0,0,1-1.17.4,10.29,10.29,0,0,1-1.58,0,2.91,2.91,0,0,0-.34-1.19,13.09,13.09,0,0,0,1.47,0,1.73,1.73,0,0,0,.8-.22c.39-.22.52-.79.52-1.44,0-1.15-.54-2.52-2.43-4.12.81-1.57,1.64-3.52,2.21-5h-3.63V16.4h-1.16V1.08h5.33l.2-.05Z"/><path class="cls-1" d="M171.28,11.68c1.28,2,3.64,3.25,6.81,3.7a4.84,4.84,0,0,0-.72,1.06c-3.49-.65-6-2.14-7.35-4.76h-.28c-.94,1.79-2.9,3.46-7,4.72a5.35,5.35,0,0,0-.73-1c3.61-1,5.47-2.34,6.41-3.75h-6.25V10.6h6.8a5.88,5.88,0,0,0,.36-1.78h-5.09v-1h5.13V6.1h-5.42v-1h5.42V3.51h1.17V5.08h5.64v1h-5.64V7.81h5.4v1h-5.44a7.29,7.29,0,0,1-.3,1.78h7.72v1.08ZM163.6,5.2h-1.17V1.82h6.93V0h1.19v1.8h6.95V5.2h-1.21V2.88H163.6Z"/><path class="cls-1" d="M186.76,4.25a23.13,23.13,0,0,1-2,2.74v9.47h-1.19V8.3a23.54,23.54,0,0,1-2.14,2c-.18-.23-.62-.75-.85-1a19.82,19.82,0,0,0,5.06-5.44ZM186,.45a22.07,22.07,0,0,1-4.59,4.41,7.72,7.72,0,0,0-.7-1A17.25,17.25,0,0,0,184.89,0Zm11.11,6.73H194.4v7.66c0,.75-.2,1.13-.76,1.33a14.44,14.44,0,0,1-3.37.18,4.12,4.12,0,0,0-.39-1.15c1.33.05,2.52.05,2.86,0s.45-.09.45-.39V7.18h-6.14V6h10.1Zm-.52-4.95h-8.8V1.12h8.8Z"/><path class="cls-1" d="M210.13,4.74a17,17,0,0,0,6.23,3.06,4.6,4.6,0,0,0-.78,1,17.16,17.16,0,0,1-6.93-4h0V8.41h-1.15V4.74h0a17.13,17.13,0,0,1-6.89,4.19,4.82,4.82,0,0,0-.76-.94A17.08,17.08,0,0,0,206,4.74h-5.83v-1h7.29V1.8c-1.94.14-4,.25-5.8.31a3.09,3.09,0,0,0-.25-1A74.27,74.27,0,0,0,213.24,0l.9.86a42.46,42.46,0,0,1-5.51.79v2H216v1Zm-2.76,3.42c-.32.52-.68,1.08-1.06,1.63h9.9v1h-3.76a6.94,6.94,0,0,1-2.2,2.86,52.37,52.37,0,0,1,5.42,1.71l-.72,1a48.68,48.68,0,0,0-5.9-1.9c-2,1.08-4.74,1.65-8.34,1.94a3.35,3.35,0,0,0-.47-1.08,22.21,22.21,0,0,0,7.13-1.3c-1.15-.27-2.32-.52-3.53-.75l-.41.56-1.08-.4c.54-.72,1.23-1.66,1.89-2.63H200v-1h4.94c.46-.68.9-1.36,1.27-2Zm-1.76,2.66-1.12,1.59c1.46.27,2.92.57,4.31.91a6.4,6.4,0,0,0,2.32-2.5Z"/><path class="cls-1" d="M225.41,14.21a22.48,22.48,0,0,1-5.62,2.21,7.84,7.84,0,0,0-.86-.88,19.42,19.42,0,0,0,5.35-2Zm8.12-8.43v7.67H220.89V5.78ZM232.81.72v4H221.65v-4ZM222.08,8.05h10.23V6.68H222.08Zm0,2.23h10.23V8.91H222.08Zm0,2.27h10.23V11.14H222.08Zm.75-8.86h8.74v-2h-8.74Zm6.94,9.85a59.16,59.16,0,0,1,5.61,2l-1,.87a45.65,45.65,0,0,0-5.66-2.13Z"/><path class="cls-1" d="M253.37,10.57a30.51,30.51,0,0,1-4.18,2.52,12.07,12.07,0,0,0,5.29,2.3,5.86,5.86,0,0,0-.75,1.07,11.43,11.43,0,0,1-8.45-6.77h-2.65v4.93c1.54-.25,3.23-.56,4.88-.85l0,1.07c-2.86.52-6,1.08-8.12,1.44l-.3-1.1c.66-.09,1.44-.22,2.3-.36V9.69h-3.17V8.61h3.17V.74h11.07v1h-9.85V3.37h9.3v1h-9.3V6h9.3V7h-9.3V8.61h11.58V9.69h-7.72a9.83,9.83,0,0,0,2,2.73,33.12,33.12,0,0,0,3.94-2.5Z"/><path class="cls-1" d="M41.57,48.41c-1.87,0-3.79-.1-5.66-.1H10.22c-1,0-1.34.39-1.34,1.35V60.6a56.62,56.62,0,0,1-2.4,17.91,34.72,34.72,0,0,1-2.06,4.94.87.87,0,0,1-.77.48c-1,0-3.65-1.25-3.65-2.35a3.51,3.51,0,0,1,.48-1.15A31.09,31.09,0,0,0,2.93,74,53.8,53.8,0,0,0,4.37,59.83v-8.4c0-1.48-.1-3-.1-4.51,0-1.87.91-2.25,2.59-2.25s3.12,0,4.71,0h7.2c.82,0,1.3-.33,1.25-1.25,0-.38-.15-1.44-.15-1.58,0-.58.39-.67.87-.67.81,0,3.5.24,4.41.33.39.05,1.16.1,1.16.58s-.29.43-.68.72a1.21,1.21,0,0,0-.52,1c0,.72.67.91,1.29.91h9.51c1.87,0,3.79-.09,5.66-.09,1.11,0,1.11.38,1.11,1.92S42.68,48.41,41.57,48.41Zm1.06,15c-1.78,0-3.51-.1-5.23-.1H28.13c-.58,0-.72.24-.77.77v.38c.05.53.19.77.77.77H31c1.34,0,2.69-.1,4-.1s2.45.24,2.45,1.73c0,.67-.05,1.25-.05,2.12v5.18c0,.91.05,1.49.05,2.16,0,1.49-1.2,1.73-2.45,1.73-.86,0-1.68,0-2.49,0-.2,0-.29.1-.29.19s.05.19.19.24a51.54,51.54,0,0,0,9.22,2.35c.48.1.91.2.91.72,0,.68-.86,2.93-1.92,2.93-1.58,0-7.39-1.77-9-2.45A21,21,0,0,1,29,80.76c-.24-.14-.39-.24-.39-.52a3.46,3.46,0,0,1,.87-1.59.44.44,0,0,0,.14-.33c0-.29-.19-.34-.43-.39H21.31c-.09,0-.67,0-.67.53a.74.74,0,0,0,.19.43c.58.67,1.4,1.54,1.4,1.92,0,.19-.24.34-.48.34a1.61,1.61,0,0,1-.53-.1h-.29a2.8,2.8,0,0,0-.62.15c-2.07.86-8.6,3.12-10.57,3.12-1.15,0-1.92-2.45-1.92-3s.34-.48,1.44-.67a46,46,0,0,0,8.45-2.16c.1,0,.2-.1.2-.24s-.15-.24-.29-.24c-.53,0-2,0-2.55,0-1.24,0-2.4-.24-2.4-1.73,0-.67.05-1.25.05-2.11V69c0-.87-.05-1.45-.05-2.12,0-1.49,1.2-1.73,2.4-1.73s2.69.1,4,.1h3.07c.57,0,.72-.24.77-.77v-.38c-.05-.53-.2-.77-.77-.77H15.41c-1.78,0-3.51.1-5.23.1-.92,0-.92-.44-.92-1.64s0-1.63.87-1.63c1.77,0,3.5.05,5.28.05h22c1.72,0,3.45-.05,5.23-.05.91,0,.91.53.91,1.63S43.49,63.39,42.63,63.39ZM42,54.17c-1.73,0-3.41-.05-5.09-.05H34.32c-.91,0-1.29.39-1.34,1.3.05.57.09,1.15.09,1.68,0,1.44-.72,1.68-2.2,1.68s-2.69-.05-4-.05H23.52c-1.34,0-2.64.05-4,.05s-2.26-.1-2.26-1.59c0-.62,0-1.2,0-1.82,0-.91-.43-1.25-1.3-1.25h-.52c-1.35,0-2.74.05-4.13.05-.87,0-.87-.48-.87-1.63s.05-1.59.91-1.59c1.64,0,3.22.15,4.81.1.67,0,1.05-.29,1.05-1.06a5.52,5.52,0,0,1-.14-.81c0-.43.43-.48.77-.48.67,0,3.6.14,4.27.19.24,0,.77.1.77.43s-.34.39-.58.58a.62.62,0,0,0-.38.57c0,.44.43.53.76.58h4.61c.58,0,1.06-.24,1.06-.91V50a5.25,5.25,0,0,1-.1-.77c0-.52.53-.52.91-.52,1.06,0,2.74,0,3.8.14.33,0,1.1,0,1.1.48s-.29.43-.58.58a.61.61,0,0,0-.43.57c0,.44.48.53.82.58h2.93c1.68,0,3.36-.1,5.09-.1.91,0,.91.43.91,1.63S42.87,54.17,42,54.17Zm-19,15a.76.76,0,0,0-.77-.77H18a.75.75,0,0,0-.76.77v.33c0,.48.28.72.76.77h4.23c.48,0,.77-.29.77-.77Zm0,4.32a.89.89,0,0,0-.92-.92H18.1a.88.88,0,0,0-.91.92v.38a.87.87,0,0,0,.91.91H22a.89.89,0,0,0,.92-.91ZM28.51,55a.86.86,0,0,0-.91-.91H22.75a.86.86,0,0,0-.91.91v.1a.88.88,0,0,0,.91.91H27.6a.88.88,0,0,0,.91-.91Zm4.61,14.12a.79.79,0,0,0-.77-.77H28.13a.79.79,0,0,0-.77.77v.33a.76.76,0,0,0,.77.77h4.22a.76.76,0,0,0,.77-.77Zm0,4.32a1,1,0,0,0-.91-.92H28.27a.89.89,0,0,0-.91.92v.38a.88.88,0,0,0,.91.91h3.94a.88.88,0,0,0,.91-.91Z"/><path class="cls-1" d="M57.46,63.19a.83.83,0,0,0-.82.72c-.19.48-.62.53-2,.53-1.68,0-2.25,0-2.25-1,0-1.3.09-2.6.09-3.89V47.64c0-1.06,0-2.06,0-3.12,0-1.63.86-2,2.35-2,1,0,2,.1,3.07.1h8.55c1,0,2-.1,3-.1,1.58,0,2.35.44,2.35,2.07,0,1-.05,2.06-.05,3.07V59.45c0,1.3.1,2.64.1,3.94,0,1-.58,1-2.26,1-1.48,0-1.87,0-2-.53a.88.88,0,0,0-.82-.72H65.47c-1,0-1.34.39-1.34,1.35v2.11c0,.91.38,1.25,1.34,1.35h1.25c1.49,0,3-.1,4.47-.1,1.2,0,1.1.67,1.1,2.11s0,2.07-1.2,2.07c-1.44,0-2.88-.1-4.37-.1H65.47c-1,0-1.34.38-1.34,1.34v2.16c0,.63.24,1.16,1,1.16h.29c.77-.1,6.57-1.2,6.72-1.2.86,0,1,1.1,1,2.2,0,1.4-.34,1.64-1.25,1.83-5.14,1.25-11.71,2.06-17,2.83-1.35.19-1.4.19-1.64.82a.71.71,0,0,1-.67.52c-.53,0-.67-.38-.81-.86s-1-3.5-1-3.89c0-.77.91-.67,1.53-.72,1.83-.09,4.71-.43,6.58-.67a1.24,1.24,0,0,0,1.25-1.44V73.32c0-1-.39-1.34-1.35-1.34H57c-1.49,0-2.93.1-4.42.1-1.2,0-1.15-.68-1.15-2.07s0-2.11,1.1-2.11c1.49,0,3,.1,4.47.1h1.77c1-.1,1.35-.44,1.35-1.35V64.54c0-1-.39-1.35-1.35-1.35ZM60.1,48a1.38,1.38,0,0,0-1.35-1.35h-.81A1.28,1.28,0,0,0,56.64,48v1.58c0,.86.48,1.25,1.3,1.35h.81a1.36,1.36,0,0,0,1.35-1.35Zm-2.16,6.77a1.26,1.26,0,0,0-1.3,1.34v1.73a1.19,1.19,0,0,0,1.3,1.29h.81a1.28,1.28,0,0,0,1.35-1.29V56.09a1.37,1.37,0,0,0-1.35-1.34Zm8.25-3.84a1.36,1.36,0,0,0,1.35-1.35V48a1.38,1.38,0,0,0-1.35-1.35h-.72A1.35,1.35,0,0,0,64.13,48v1.58c0,.86.48,1.25,1.34,1.35Zm-2.06,6.91a1.2,1.2,0,0,0,1.34,1.29h.72a1.28,1.28,0,0,0,1.35-1.29V56.09a1.37,1.37,0,0,0-1.35-1.34h-.72a1.33,1.33,0,0,0-1.34,1.34ZM87,55.71a2.78,2.78,0,0,1-.67,1.44.41.41,0,0,0-.15.33c0,.34.24.39.48.43,1.35,0,2.74-.09,3.7-.09a3.66,3.66,0,0,1,3.21,2.64c0,1-1.68,4.51-2.2,5.57-.87,1.63-1.78,3.5-2.69,3.5s-3.12-.86-3.12-1.73a2.65,2.65,0,0,1,.57-1.15c.53-.67,2.26-3.22,2.26-4,0-.39-.58-.34-.82-.34h-2c-.91,0-1.29.38-1.29,1.3v12c0,1.15,0,2.3,0,3.45,0,4.52-4.42,5-7.88,5-1.39,0-1.72-.15-2.06-1.3A9.47,9.47,0,0,1,74,80.09c0-.57.24-1.29.91-1.29a4.66,4.66,0,0,1,.77,0c.43,0,1,.1,1.39.1,2.64,0,2.5-.91,2.5-3.12V63.63c0-.92-.39-1.3-1.35-1.3h-.33c-1.35,0-2.74.05-4.08.05-1.11,0-1.06-.48-1.06-2.26s0-2.3,1.06-2.3c1.34,0,2.73.09,4.08.09h4.36c.24,0,.53-.14.53-.48a.45.45,0,0,0-.19-.38,65.9,65.9,0,0,0-6-4.85c-.34-.24-.82-.58-.82-1.05,0-.77,1.54-2.74,2.35-2.74a7.49,7.49,0,0,1,2.4,1.49,1.68,1.68,0,0,0,1,.33,1.57,1.57,0,0,0,1-.43c.44-.38,2.5-2.16,2.5-2.64,0-.33-.48-.29-.82-.29H79c-1.49,0-3.21.1-4.17.1s-1.06-.53-1.06-2.16,0-2.21,1.06-2.21,2.78.1,4.17.1h7.73c.91,0,1.83-.05,2.79-.05a3.13,3.13,0,0,1,2.78,2.69c0,1.44-5.14,6.09-6.38,7.2a1.14,1.14,0,0,0-.44.86c0,.39.19.53.44.82S87,55.23,87,55.71Z"/><path class="cls-1" d="M119.47,56.76c0,7.44-.33,16.42-3,23.43-.72,1.92-1.35,3.69-2.35,3.69-.72,0-3.65-1.2-3.65-2.25a4.57,4.57,0,0,1,.48-1.3c3.36-7.1,3.65-16.27,3.65-24V48.94c0-1.4,0-2.84,0-4.23,0-1.87.91-2.25,2.64-2.25,1.39,0,2.78,0,4.17,0h23.24c1.34,0,2.74,0,4.13,0,1.73,0,2.69.33,2.69,2.25,0,1.39-.05,2.79-.05,4.23V74.19c0,1.15.09,2.3.09,3.45,0,1.73,0,3.6-1.44,4.9-1.58,1.39-4.51,1.54-6.53,1.54-.91,0-2-.1-2.35-1.06a9,9,0,0,1-.53-3c0-.67.15-1.1.92-1.1s1.87.1,2.68.1c2.16,0,2.26-.68,2.26-2.74V48.17c0-1-.43-1.34-1.34-1.34H120.82c-1,0-1.35.38-1.35,1.34Zm10.9.34c0-1-.38-1.35-1.34-1.35h-.39c-1.58,0-3.12.1-4.65.1-1,0-1-.48-1-2.11s0-2.07,1-2.07c1.24,0,3.07.15,4.65.15H129c.91,0,1.29-.34,1.34-1.25a14.5,14.5,0,0,0-.14-2,.9.9,0,0,1,0-.38c0-.48.43-.53.81-.53.68,0,3.65.24,4.37.29.29,0,.82.14.82.52s-.29.44-.58.58a1.58,1.58,0,0,0-.53,1.49c.05.91.44,1.25,1.35,1.25h.86c1.54,0,3.41-.15,4.61-.15s1,.58,1,2.12,0,2.06-1,2.06c-1.59,0-3.12-.1-4.66-.1h-.86c-1,0-1.35.39-1.35,1.35v.77c0,.91.39,1.29,1.35,1.29h1.1c1.83,0,3.65-.09,5.47-.09,1.2,0,1.16.43,1.16,2.06s0,2.11-1.16,2.11c-1.82,0-3.64-.14-5.47-.14h-9.41c-1.82,0-3.65.14-5.47.14-1.15,0-1.15-.48-1.15-2.06s0-2.11,1.2-2.11c1.82,0,3.65.09,5.42.09H129c1,0,1.34-.38,1.34-1.29Zm10.8,17.57c0,.77.05,1.58.05,2.35,0,1.54-1,1.82-2.31,1.82s-2.54-.09-3.79-.09h-4.41c-1.73,0-1.92.38-1.92,1.25,0,1.1-.2,1.15-2.31,1.15S124,81.15,124,80V70.11c0-.82,0-1.64,0-2.4,0-1.54.91-1.83,2.25-1.83s2.59.05,3.84.05h5c1.25,0,2.55-.05,3.79-.05s2.31.24,2.31,1.83c0,.76-.05,1.58-.05,2.4Zm-12.38-1.11c.09.87.52,1.35,1.34,1.35h5c.82,0,1.25-.48,1.34-1.35V70.92a1.26,1.26,0,0,0-1.34-1.29h-5a1.26,1.26,0,0,0-1.34,1.29Z"/><path class="cls-1" d="M178.37,59.21c0-.62-.53-.86-1.1-.86h-10c-1.82,0-3.69.09-5.52.09-1.2,0-1.1-.57-1.1-2.45s-.1-2.45,1.1-2.45c1.83,0,3.7.1,5.52.1h10.71c1,0,1.39-.38,1.39-1.34V45.67a20.11,20.11,0,0,0-.14-3.36c0-.14-.05-.38-.05-.53,0-.62.38-.81,1-.81s4,.24,4.7.33c.39.05.82.2.82.68s-.34.52-.63.67c-.62.38-.67.86-.67,2.49V52.3c0,1,.39,1.34,1.3,1.34h10.7c1.88,0,3.7-.1,5.57-.1,1.2,0,1.11.63,1.11,2.45s0,2.45-1.11,2.45c-1.87,0-3.69-.09-5.57-.09H186.1c-.53,0-1,.19-1,.81,0,.15,0,.29,0,.39a37.38,37.38,0,0,0,5.33,9.74,38,38,0,0,0,11.61,10c.39.24.92.48.92,1,0,1.1-2,3.55-3.12,3.55-1.3,0-6.53-4.18-7.69-5.23a36,36,0,0,1-9.74-13.35.53.53,0,0,0-.48-.34c-.24,0-.38.2-.48.39-2.54,7.06-7.68,11.95-13.73,16.08-.86.58-3.7,2.5-4.61,2.5-1.2,0-2.88-2.84-2.88-3.89,0-.58.43-.77.87-1,5.47-2.69,10.61-6.53,13.87-11.72a30,30,0,0,0,3.31-7.68C178.32,59.45,178.37,59.35,178.37,59.21Zm5.38,23.52c-.39,0-.92-.43-1.44-1.34-.34-.53-2.74-3.51-3.89-4.71-.24-.28-.67-.72-.67-1.1,0-.72,2.49-2.59,3.07-2.59s1,.38,3.5,3.26c.53.63,2.69,3.07,2.69,3.75S184.51,82.73,183.75,82.73Z"/><path class="cls-1" d="M219,44.83a15.15,15.15,0,0,0-.14-2.93,1.54,1.54,0,0,1-.05-.48c0-.52.33-.67.81-.67.82,0,3.12.24,4,.34.48,0,1.29,0,1.29.67,0,.29-.24.43-.67.72s-.62,1.15-.57,2.3c0,1,.43,1.3,1.34,1.3,1.06.05,2.11-.1,3.22-.1,1.58,0,2.54.39,2.54,2.16,0,1.3-.05,2.6-.05,3.84v9.65c0,1.44.1,2.5.1,3.22,0,1.15-.77,1.1-2.64,1.1s-2.16-.14-2.35-.67-.53-.48-1.44-.48h-6.34c-.91,0-1.3.39-1.3,1.35V74.5c0,.57.24,1,.87,1,.09,0,.24,0,.33,0q2.46-.66,4.9-1.44a.94.94,0,0,0,.77-.92c0-.43-.39-.81-.63-1.15a19.7,19.7,0,0,1-1.92-3.12c0-.81,2.5-2,3.22-2a1.42,1.42,0,0,1,1,.62,54.37,54.37,0,0,1,3.94,5.86c.62,1.05,3.35,5.66,3.35,6.57,0,1.11-2.92,2.16-3.45,2.16s-.82-.48-1.44-1.73c-.24-.52-.58-1.19-1-2a1.27,1.27,0,0,0-1.1-.77,1.42,1.42,0,0,0-.63.14c-4.22,1.64-8.54,3-12.81,4.42-.34.1-.39.34-.48.67s-.24.68-.63.68-.53-.29-1.1-1.64a14.59,14.59,0,0,1-1.15-3.41c0-.67,1.44-.81,2-1,1-.28,1.2-.62,1.3-1.63V52c0-1.24-.1-2.54-.1-3.79,0-1.77.92-2.21,2.55-2.21,1.05,0,2.11.15,3.21.1C218.58,46.08,219,45.74,219,44.83Zm5.66,8.64A1.34,1.34,0,0,0,226,52.13v-.58a1.28,1.28,0,0,0-1.35-1.29h-6.62a1.19,1.19,0,0,0-1.3,1.29v.58c0,.86.48,1.25,1.3,1.34Zm-6.62,3.79a1.19,1.19,0,0,0-1.3,1.3v.72c0,.87.48,1.25,1.3,1.34h6.62A1.34,1.34,0,0,0,226,59.28v-.72a1.28,1.28,0,0,0-1.35-1.3ZM241,47c-.92,0-1.35.39-1.35,1.35V75.27c0,2.35.15,4.65.15,7,0,1.48-.48,1.53-2.5,1.53s-2.5,0-2.5-1.53c0-2.36.1-4.66.1-7V49.06c0-1.4-.05-2.79-.05-4.18,0-2,1.11-2.4,2.83-2.4,1.25,0,2.5.1,3.75.1h3.74c1,0,2-.1,3-.1,2.49,0,3.4,1.63,3.4,2.4,0,1.63-3.88,9.36-4.89,11.14a1.86,1.86,0,0,0-.39.91c0,.43.44.91.68,1.2,2.68,3.55,4.56,6.58,4.56,11.23,0,2.11-.44,4.51-2.07,6S246,77,244,77c-1.05,0-3.26.39-3.26-3.79,0-.62.14-1.2.91-1.2.43,0,1.1.1,1.82.1,2.5,0,2.93-1.59,2.93-3.75,0-3.74-2.11-6.57-4.32-9.41a2.87,2.87,0,0,1-.77-1.68,3.26,3.26,0,0,1,.44-1.34c.33-.67,3.5-7.35,3.6-7.63a5.23,5.23,0,0,0,.09-.72c0-.63-.77-.63-1.2-.63Z"/></g></g></svg>