<svg xmlns="http://www.w3.org/2000/svg" viewBox="0 0 286.12 97.74"><defs><style>.cls-1{fill:#185f8d;}.cls-1,.cls-2{stroke:#1a3446;stroke-linecap:round;stroke-linejoin:round;stroke-width:4.44px;}.cls-2{fill:#fff;}</style></defs><g id="レイヤー_2" data-name="レイヤー 2"><g id="レイヤー_1-2" data-name="レイヤー 1"><g id="レイヤー_2-2" data-name="レイヤー 2"><g id="design"><path class="cls-1" d="M75.06,86.58l162.84,5c22.09,0,46-27.32,46-49.41a40,40,0,0,0-40-40H75.05"/><path class="cls-1" d="M183.81,2.22H55.52C33.43,2.22,4,30.35,4,52.44S33.43,82.22,55.52,82.22l128.29,4.36"/><path class="cls-2" d="M72.85,95.52h157.8a40,40,0,0,0,0-80H75.05"/><path class="cls-2" d="M183.81,15.52H42.22a40,40,0,0,0,0,80H181.61"/></g></g><path d="M65.53,62.57c-.47-1.15-1.33-2.88-2.16-4.5V73.15h-4V59.69A29.29,29.29,0,0,1,56,66.89,19.66,19.66,0,0,0,54,63a36,36,0,0,0,5.08-12.09H54.88V47h4.53V39.57h4V47h3.92v4H63.37v1.83c1,1.34,3.85,5.62,4.5,6.63Zm19.08-4.28c-.22-.47-.47-1-.79-1.55a28.86,28.86,0,0,1-3.71,7.6,21.47,21.47,0,0,0,8.2,5.11,18.19,18.19,0,0,0-3,3.81,22.89,22.89,0,0,1-8-5.58,24.25,24.25,0,0,1-9.11,5.62A17.25,17.25,0,0,0,66,69.88a21,21,0,0,0,8.78-5.37A33.86,33.86,0,0,1,71,57.14c-.5.5-1,1-1.55,1.4a16.08,16.08,0,0,0-2.91-2.7,20.56,20.56,0,0,0,5.33-7l3.85,1.58a27.73,27.73,0,0,1-4,5.87l2.77-.75a26.09,26.09,0,0,0,2.84,5.57,21,21,0,0,0,2.38-5.79l3.67.76a40.59,40.59,0,0,0-4.1-5.51l3.31-1.87a33,33,0,0,1,5.58,7.52Zm3-9.79H67.69V44.57h7.77v-5h4.22v5h7.88Z"/><path d="M128.24,62.21a59.49,59.49,0,0,1-6.62,4.07A23.71,23.71,0,0,0,130,69.37a19.12,19.12,0,0,0-2.7,3.86c-8.13-1.88-12.92-6.16-15.91-13h-4.14V67.9c2.52-.36,5.19-.76,7.78-1.15l.18,3.78c-5.51.9-11.45,1.8-15.8,2.44l-1-3.92c1.29-.14,2.77-.36,4.39-.54V60.27H96.89V56.49h6V40.79h22.72v3.5H107.25v1.9h17.32v3.32H107.25V51.3h17.32v3.32H107.25v1.87h22.07v3.78h-3.85Zm-12.38-1.94A17.09,17.09,0,0,0,118.7,64a51.9,51.9,0,0,0,5.51-3.74Z"/><path d="M164.13,64.12a11.9,11.9,0,0,0,8.17,5.54,13,13,0,0,0-2.52,3.53,13.71,13.71,0,0,1-8.49-6.62c-1.51,2.52-4.32,4.86-9.36,6.51a16.63,16.63,0,0,0-2.38-3.17c4.86-1.51,7.31-3.6,8.5-5.79h-7.52V60.45h8.56c0-.44,0-.87,0-1.26V57h-3.21a19.44,19.44,0,0,1-2.51,3.2c-.47-.4-1.3-1-2.09-1.58v0c-1.37.4-2.77.79-4.18,1.15v8.79c0,2.12-.36,3.16-1.55,3.81s-3,.76-5.47.76A16.31,16.31,0,0,0,139,69.19c1.37.08,2.84.08,3.31.08s.65-.18.65-.69v-7.7l-4,1-1-4.1c1.43-.29,3.2-.68,5.07-1.15V50.3h-4.46v-4h4.46V39.61h4.21v6.73h3.39v4h-3.39v5.32c1.23-.28,2.45-.61,3.67-.93l.29,2.12a18.62,18.62,0,0,0,3.71-6.62c-1.33.07-2.59.11-3.71.14l-.36-3.81,3.1-.08a44.29,44.29,0,0,0,2.77-6.87l4.46,1c-.9,1.91-1.94,4-2.91,5.76,2.12-.11,4.39-.18,6.62-.29-.68-.86-1.44-1.69-2.12-2.41l3.13-1.87a43.09,43.09,0,0,1,6.33,7.67l-3.38,2.16a17,17,0,0,0-1.22-2c-3.93.21-8,.43-11.6.57l2.92.61c-.29.87-.61,1.7-1,2.52h12.49V57h-7.31v2.3c0,.4,0,.79,0,1.19h8.53v3.67Z"/><path d="M192.68,58.79l-3.89,1.08v8.82c0,2-.36,3.1-1.51,3.71s-2.91.79-5.43.79a16.4,16.4,0,0,0-1.15-3.89c1.36.07,2.84.07,3.31.07s.65-.18.65-.68V61l-3.78,1-1.08-4.11c1.36-.29,3.06-.65,4.86-1.08V50.3h-4.29v-4h4.29V39.61h4.13v6.73h3.46v4h-3.46v5.47l3.35-.87ZM210.21,56,213,57.14c-2.81,9.68-9.72,14-19,16.09a14.76,14.76,0,0,0-2-3.53,27.64,27.64,0,0,0,9.18-3.21A42.23,42.23,0,0,0,196.64,63c-.9.61-1.91,1.19-2.95,1.76a11.62,11.62,0,0,0-2.41-3.09A19.54,19.54,0,0,0,200.67,53l2.63.47a38.52,38.52,0,0,0-4.46-7.09,54.23,54.23,0,0,0,4-6.88l4,.87a60.79,60.79,0,0,1-3.64,6,39.32,39.32,0,0,1,4.18,6.16l-3.24,1.11.75.15c-.43.83-.9,1.62-1.4,2.41h6.05ZM196.5,54.15a35.87,35.87,0,0,0-4.11-7.6,58.17,58.17,0,0,0,3.78-7l3.93.83a64.75,64.75,0,0,1-3.53,6.16,35.56,35.56,0,0,1,3.81,6.33Zm4.14,5.54c-.36.36-.69.69-1,1a44.66,44.66,0,0,1,4.72,3.38,15.4,15.4,0,0,0,3.24-4.39Zm9.72-5.54a38.93,38.93,0,0,0-5-7.6,64.21,64.21,0,0,0,4.21-7l4,.9a54.24,54.24,0,0,1-3.88,6,38.71,38.71,0,0,1,4.53,6.19Z"/></g></g></svg>