<svg width="2582" height="454" viewBox="0 0 2582 454" fill="none" xmlns="http://www.w3.org/2000/svg">
<path d="M178 347.5C179 339 183.5 334.5 192 333.5H244.5C253 334.5 257.5 339 258.5 347.5V356.5C257.5 365 253 369.5 244.5 370.5H192C183.5 369.5 179 365 178 356.5V347.5ZM305 337C305 329.5 305.5 322.5 305.5 315.5C305.5 300 295 298 282 298C269.5 298 257 298.5 244.5 298.5H191C178.5 298.5 166 298 153 298C140.5 298 130 300.5 130 315C130 322.5 130.5 329.5 130.5 337V414C130.5 426 135 426 154 426C170 426 177.5 426.5 178 418.5C178.5 408.5 180.5 407 197 407H244.5C257 407 268 407.5 276.5 407.5C296.5 407.5 305.5 405 305.5 390C305.5 383 305 376 305 369V337ZM145.5 159C146.5 150.5 150.5 146 159.5 145H282.5C291 146 295.5 150.5 296.5 159V167.5C295.5 176 291 180.5 282.5 181.5H159.5C150.5 180.5 146.5 176 145.5 167.5V159ZM342.5 150C342.5 142.5 343 135 343 127.5C343 111.5 330.5 109.5 317.5 109.5C305 109.5 292.5 110.5 280.5 110.5H161.5C148.5 110.5 136 109.5 123.5 109.5C110.5 109.5 98.5 112 98.5 127.5C98.5 134 99 139.5 99 150V176.5C99 186.5 98.5 192.5 98.5 199C98.5 215 111.5 217 124 217C136.5 217 149 216 161.5 216H280.5C293 216 305.5 217 318 217C331 217 343 214.5 343 199C343 191.5 342.5 184 342.5 176.5V150ZM367.5 379C367.5 394 369 405 349.5 405C340.5 405 332 404.5 323 404.5C315 404.5 314.5 413.5 314.5 420C314.5 452 327 452 340 452C401 452 417 442 417 399.5C417 389.5 416 380 416 370V296C416 284 417 271.5 417 259C417 240 406.5 237 390 237C375.5 237 361 238 346 238H92.5C78 238 64 237.5 49.5 237.5C33.5 237.5 23 240.5 23 259C23 271.5 23.5 284 23.5 297V383C23.5 401.5 22.5 419.5 22.5 438C22.5 451.5 28 451.5 49 451.5C70 451.5 75.5 451.5 75.5 437.5C75.5 419.5 74 401 74 383V290C74 280.5 78 276.5 88 276.5H353.5C363.5 276.5 367.5 280.5 367.5 290V379ZM246 37C246 29 246 23.5 251.5 20C255 17.5 258 16 258 13C258 7.49998 248.5 7.49998 244.5 6.99998C236 5.99997 207.5 3.99999 200 3.99999C195.5 3.99999 190.5 4.49998 190.5 10.5V14.5C192 21.5 192.5 30.5 192.5 37C192 47 187.5 50.5 178.5 50.5H75C54.5 50.5 33.5 49.5 13 49.5C0.500002 49.5 0.500002 53.5 0.500002 69.5C0.500002 85 0.500002 89.5 13 89.5C33.5 89.5 54.5 88.5 75 88.5H366.5C387 88.5 408 89.5 428.5 89.5C441 89.5 441 85.5 441 69.5C441 53.5 441 49.5 428.5 49.5C408 49.5 387 50.5 366.5 50.5H259.5C250 50.5 246.5 46.5 246 37ZM827 375C830 372.5 832 370.5 836.5 370.5C840 370.5 843 373 845.5 375C872 402 905.5 428 938 446.5C941.5 448.5 948.5 452.5 952.5 452.5C964 452.5 981.5 425.5 981.5 417.5C981.5 413 973.5 409.5 970 407.5C934 388.5 905.5 367 876.5 338C874 335 871.5 332 871.5 327.5C871.5 324 873 321 875 318C891.5 293.5 904.5 266.5 914 238C917.5 227.5 917.5 226 923 223.5C926 222 929.5 220.5 929.5 217C929.5 212.5 924 210.5 916.5 208L912 206.5C905 204 886.5 197 880 197C874 197 873 203.5 872 208C867 229.5 855.5 260 844 278.5C842 281 840 283 836.5 283C833.5 283 831 281 829.5 279C817 258 807 236.5 801 213C799 205 798.5 197.5 789.5 197.5C783.5 197.5 752.5 206 752.5 215.5C752.5 218 754.5 226 755 228.5C763 259 780.5 291.5 798 317.5C800 320.5 801.5 323 801.5 327C801.5 331.5 799 334.5 796 337.5C765 367 728 390.5 688.5 406C683.5 408 673 411.5 673 418C673 426 690.5 453 700.5 453C705.5 453 730 441.5 736 438.5C767 424.5 802.5 398 827 375ZM811 54.5C811 64.5 807 68.5 797 68.5H768C750.5 68.5 733 67.5 715.5 67.5C704.5 67.5 705 73.5 705 91C705 109 704.5 115 715.5 115C727 115 738.5 114.5 750 114C754 114.5 757 116 757 120C757 122 756.5 123 755.5 124.5C739 145.5 718.5 168.5 698 185C695 187 686.5 193.5 686.5 197C686.5 205.5 709.5 226.5 717.5 226.5C721.5 226.5 725 223 728 220.5C742.5 207 773.5 176.5 785 161C787.5 158 789 155.5 791 153.5C800 141.5 800 141 807 140.5C810 140.5 814.5 139.5 814.5 135.5C814.5 130.5 802.5 125.5 791 120C790 119 789 118.5 789 117C789 115 790.5 114 792.5 114H882.5C884 114 886 115 886 117C886 118 885 119 884.5 120C880 122.5 868 131 868 136.5C868 148.5 942.5 226 954 226C963 226 986 205 986 195.5C986 192 982 189 979 187C956.5 169.5 932.5 146 914 124C913.5 123 912.5 121.5 912.5 119.5C912.5 115.5 915.5 114 919 114C936 114 952.5 115 969.5 115C980.5 115 980 109 980 91C980 73.5 980.5 67.5 969.5 67.5C952 67.5 934.5 68.5 916.5 68.5H874.5C864.5 68.5 860.5 64.5 860.5 54.5C860 37.5 860 29.5 866.5 25C869.5 22.5 873 20.5 873 17C873 9.99997 865 9.99997 859.5 8.99999C850.5 7.99997 826 5.49997 818.5 5.49997C812.5 5.49997 809 6.99998 809 13.5C809 15 809 16.5 809.5 18C811 31 811.5 42 811 54.5ZM651 171.5C648 167 647 163.5 647.5 158C648 146.5 654.5 146 660 145C663.5 145 683 146 685.5 146C697 146 696 138.5 696 121.5C696 105 697 97 685.5 97C683 97 664.5 98 660.5 98C651 97.5 647.5 93 647.5 84V49.5C647.5 33.5 648 25.5 653 22C657.5 19 660 18 660 14.5C660 8.49999 652 8.49999 647.5 7.99997C640 7.49998 612 4.49998 606 4.49998C602 4.49998 598 5.49997 598 10.5C598 12 598 14 598.5 15.5C600 25.5 600 37 600 49V84C600 94 596 98 586 98H581C567.5 98 555 97 548 97C537 97 537.5 104 537.5 121.5C537.5 138 537 146 547.5 146C557.5 146 569 145 580 145C585.5 145.5 591 147.5 591 154C591 155.5 590.5 156.5 590.5 158C574.5 211 558.5 252 531 300.5C529 304 524.5 311 524.5 315C524.5 321 544 345.5 552.5 345.5C557.5 345.5 561 340 563 336C576 311.5 586 286 595.5 260C596 259 597 258.5 598 258.5C598.5 258.5 600 259 600 261.5V368.5C600 392 598.5 415 598.5 438C598.5 452.5 603.5 453 624.5 453C643 453 648.5 452.5 648.5 438.5C648.5 415 647.5 392 647.5 368.5V251C647.5 248.5 648.5 246.5 651 246.5C652.5 246.5 653.5 247.5 654 248.5C658 255.5 677.5 289 684 289C691 289 707.5 263 707.5 256C707.5 252.5 705 250 703 247.5C684 225 665 197.5 651 171.5ZM1435 404C1456 404 1477 405.5 1498 405.5C1511 405.5 1510.5 398.5 1510.5 378.5C1510.5 358 1511.5 351 1498 351C1477 351 1456 352.5 1435 352.5H1145.5C1124.5 352.5 1103.5 351 1082.5 351C1069.5 351 1070 358 1070 378.5C1070 398.5 1069.5 405.5 1082.5 405.5C1103.5 405.5 1124.5 404 1145.5 404H1435ZM1392.5 103.5C1411.5 103.5 1431 105 1450 105C1463.5 105 1463 98 1463 78.5C1463 59 1463.5 52 1450 52C1431 52 1411.5 53 1392.5 53H1192.5C1173 53 1154 52 1134.5 52C1121.5 52 1121.5 58.5 1121.5 78.5C1121.5 98.5 1121.5 105 1134.5 105C1154 105 1173 103.5 1192.5 103.5H1392.5ZM1806 216.5C1815 217.5 1819 222 1820 230.5V275C1819 284 1815 288 1806 289H1744C1735.5 288 1731 284 1730 275V230.5C1731 222 1735.5 217.5 1744 216.5H1806ZM1874.5 117C1874.5 107 1878.5 103 1888.5 103H1949C1969.5 103 1989.5 104 2010 104C2022.5 104 2022 97.5 2022 78.5C2022 59 2022.5 52.5 2010 52.5C1989.5 52.5 1969.5 54 1949 54H1767.5C1762.5 53.5 1758.5 52 1758.5 46.5C1758.5 44.5 1759 43.5 1759.5 41.5C1764.5 31 1764 29.5 1772 27C1775 26 1779.5 24 1779.5 20.5C1779.5 16 1774.5 14.5 1771 13.5C1763.5 11 1728 -1.66893e-05 1722.5 -1.66893e-05C1718.5 -1.66893e-05 1717 2.49998 1715.5 6.99998C1696.5 64 1659 120 1613 159C1609.5 162 1600.5 169 1600.5 174C1600.5 183.5 1624 207 1634 207C1640 207 1646.5 200 1650.5 196C1676 171 1699.5 143.5 1719 113.5C1726 105 1729 103 1740 103H1806C1816 103 1820 107 1820 117V155C1820 164.5 1816 168 1806 169H1740.5C1728.5 169 1716.5 168 1704.5 168C1687.5 168 1680 173 1680 190.5C1680 203 1680.5 215 1680.5 227.5V275C1680.5 284 1677 289 1668 289C1651.5 289.5 1635 288 1619 288C1606.5 288 1607 293.5 1607 313.5C1607 332.5 1606.5 338 1619 338C1640 338 1661 337 1682 337H1806C1816 337 1820 341 1820 351V365C1820 389.5 1818.5 413.5 1818.5 438C1818.5 454 1825 454 1847 454C1869.5 454 1876 454 1876 437.5C1876 413.5 1874.5 389.5 1874.5 365V351C1874.5 341 1878.5 337 1888.5 337H1971C1992 337 2013 338 2034 338C2046.5 338 2046 332.5 2046 313C2046 294 2046.5 288 2034 288C2013 288 1992 289 1971 289H1888.5C1878.5 289 1874.5 285 1874.5 275V230.5C1874.5 220.5 1878.5 216.5 1888.5 216.5H1928.5C1946 216.5 1963 217.5 1980.5 217.5C1992.5 217.5 1993 212.5 1993 193C1993 173 1993 167.5 1980.5 167.5C1963 167.5 1946 169 1928.5 169H1888.5C1878.5 168 1874.5 164.5 1874.5 155V117ZM2266.5 104.5C2260.5 104.5 2256 102.5 2256 96C2256 94.5 2256 93.5 2256.5 92C2259 84 2261 77 2262.5 72C2267 55.5 2268 52 2276 48C2279.5 46.5 2285 44 2285 39C2285 33 2276.5 32 2252.5 25.5C2248 24.5 2231.5 20 2228 20C2221.5 20 2221 27.5 2220 33C2206.5 98 2183.5 153.5 2143 206.5C2140.5 209.5 2135.5 215 2135.5 219.5C2135.5 230.5 2164.5 243 2173.5 243C2188 243 2220.5 179.5 2227.5 166C2232.5 157 2236.5 154.5 2246.5 154.5H2319.5C2329.5 154.5 2333.5 158.5 2333.5 168.5V222C2333.5 232 2329.5 236 2319.5 236H2257.5C2237.5 236 2218 234.5 2198 234.5C2184 234.5 2184.5 241 2184.5 260C2184.5 279.5 2184 286 2198 286C2218 286 2237.5 284.5 2257.5 284.5H2319.5C2329.5 284.5 2333.5 288.5 2333.5 298.5V371C2333.5 380.5 2329.5 384.5 2319.5 384.5H2214C2193.5 384.5 2172.5 383.5 2151.5 383.5C2138.5 383.5 2139 389.5 2139 409.5C2139 429 2138.5 435.5 2151.5 435.5C2172.5 435.5 2193.5 434.5 2214 434.5H2506C2527 434.5 2547.5 435.5 2568.5 435.5C2581.5 435.5 2581 429 2581 409.5C2581 390 2582 383.5 2568.5 383.5C2547.5 383.5 2526.5 384.5 2506 384.5H2402.5C2393 384.5 2388.5 380.5 2388.5 371V298.5C2388.5 288.5 2393 284.5 2402.5 284.5H2466C2486 284.5 2506 286 2526 286C2539.5 286 2539 279 2539 260C2539 241.5 2539.5 234.5 2526 234.5C2506 234.5 2486 236 2466 236H2402.5C2393 236 2388.5 232 2388.5 222V168.5C2388.5 158.5 2393 154.5 2402.5 154.5H2487.5C2508 154.5 2528.5 155.5 2549 155.5C2562 155.5 2561 149 2561 129.5C2561 110 2562 103.5 2549 103.5C2528.5 103.5 2508 104.5 2487.5 104.5H2402.5C2393 104.5 2388.5 100.5 2388.5 91V53.5C2388.5 36 2389 26.5 2394.5 22C2398.5 19 2401 18 2401 14.5C2401 8.49999 2392.5 7.99997 2388 7.49998C2380 6.49999 2347.5 3.49997 2340.5 3.49997C2335.5 3.49997 2331 4.49998 2331 10.5C2331 12 2331.5 14 2331.5 15.5C2332.5 26.5 2333.5 40 2333.5 53V91C2333.5 100.5 2329.5 104.5 2319.5 104.5H2266.5Z" fill="black"/>
</svg>
