<svg width="162" height="85" viewBox="0 0 162 85" fill="none" xmlns="http://www.w3.org/2000/svg">
<path d="M0.635938 35.05C0.635938 35.55 1.03594 36 1.58594 36H6.18594C6.68594 36 7.13594 35.55 7.13594 35.05V23.3H13.3859C19.4859 23.3 24.5359 18.25 24.5359 12.05C24.5359 6 19.4859 0.999998 13.3359 0.999998H1.58594C1.03594 0.999998 0.635938 1.45 0.635938 1.95V35.05ZM7.13594 17.2V7.15H12.9359C15.7359 7.15 18.0859 9.25 18.0859 12C18.0859 14.95 15.7359 17.2 12.9359 17.2H7.13594ZM32.2258 18.55C32.2258 28.55 40.1758 36.5 50.1758 36.5C60.1758 36.5 68.1758 28.55 68.1758 18.55C68.1758 8.55 60.1758 0.499998 50.1758 0.499998C40.1758 0.499998 32.2258 8.55 32.2258 18.55ZM38.7258 18.55C38.7258 12.25 43.8758 7 50.1758 7C56.4758 7 61.6758 12.25 61.6758 18.55C61.6758 24.85 56.4758 30 50.1758 30C43.8758 30 38.7258 24.85 38.7258 18.55ZM77.416 32.6C78.416 33.55 82.116 36.5 88.416 36.5C95.466 36.5 99.916 31.75 99.916 26.6C99.916 20.15 94.316 17.25 89.466 15.3C85.416 13.65 83.566 12.05 83.566 9.7C83.566 8.1 85.116 6.2 87.966 6.2C90.716 6.2 94.516 8.7 94.916 8.95C95.516 9.35 96.266 8.95 96.666 8.35L98.566 5.5C98.916 5 98.766 4.15 98.266 3.85C97.266 3.1 93.366 0.499998 88.266 0.499998C80.316 0.499998 77.016 5.65 77.016 10.1C77.016 16 81.716 19 86.416 20.9C90.616 22.6 92.766 24.35 92.766 26.9C92.766 29.05 90.816 30.75 88.216 30.75C84.966 30.75 80.916 27.8 80.666 27.65C80.216 27.3 79.366 27.3 78.966 28L77.166 31.1C76.716 31.9 76.966 32.15 77.416 32.6ZM115.516 35.05C115.516 35.55 115.966 36 116.466 36H121.116C121.616 36 122.066 35.55 122.066 35.05V7H129.716C130.266 7 130.666 6.55 130.666 6.05V1.95C130.666 1.45 130.266 0.999998 129.716 0.999998H107.866C107.316 0.999998 106.916 1.45 106.916 1.95V6.05C106.916 6.55 107.316 7 107.866 7H115.516V35.05ZM138.564 32.6C139.564 33.55 143.264 36.5 149.564 36.5C156.614 36.5 161.064 31.75 161.064 26.6C161.064 20.15 155.464 17.25 150.614 15.3C146.564 13.65 144.714 12.05 144.714 9.7C144.714 8.1 146.264 6.2 149.114 6.2C151.864 6.2 155.664 8.7 156.064 8.95C156.664 9.35 157.414 8.95 157.814 8.35L159.714 5.5C160.064 5 159.914 4.15 159.414 3.85C158.414 3.1 154.514 0.499998 149.414 0.499998C141.464 0.499998 138.164 5.65 138.164 10.1C138.164 16 142.864 19 147.564 20.9C151.764 22.6 153.914 24.35 153.914 26.9C153.914 29.05 151.964 30.75 149.364 30.75C146.114 30.75 142.064 27.8 141.814 27.65C141.364 27.3 140.514 27.3 140.114 28L138.314 31.1C137.864 31.9 138.114 32.15 138.564 32.6ZM40.332 65.432H35.964V63.008H34.236V65.432H29.82V66.92H40.332V65.432ZM37.572 70.76C38.028 69.896 38.508 68.552 38.964 67.352L37.332 66.968C37.116 68 36.564 69.488 36.132 70.448L37.572 70.76ZM33.684 70.424C33.564 69.512 33.156 68.096 32.652 67.016L31.26 67.376C31.716 68.456 32.1 69.896 32.196 70.832L33.684 70.424ZM39.756 80.048C39.204 79.544 36.876 77.648 35.964 76.976V76.4H40.428V74.888H35.964V72.368H40.62V70.856H29.484V72.368H34.236V74.888H29.556V76.4H33.852C32.652 78.512 30.756 80.672 29.028 81.8C29.412 82.112 29.94 82.688 30.228 83.096C31.572 82.04 33.06 80.336 34.236 78.488V84.776H35.964V78.68C36.972 79.592 38.196 80.768 38.7 81.368L39.756 80.048ZM51.204 70.952H43.188V66.68C45.852 66.152 48.852 65.432 50.892 64.52L49.452 63.2C47.916 63.968 45.228 64.736 42.78 65.264L41.484 64.856V73.208C41.484 76.568 41.148 80.72 38.1 83.696C38.508 83.936 39.156 84.56 39.372 84.944C42.732 81.608 43.188 76.808 43.188 73.232V72.632H46.764V84.68H48.516V72.632H51.204V70.952ZM72.708 75.92V77.36H62.676V75.92H72.708ZM62.676 82.544V81.056H72.708V82.544H62.676ZM72.708 79.928H62.676V78.488H72.708V79.928ZM76.74 73.112V71.648H67.308V69.992H74.628V68.6H67.308V66.944H75.708V65.504H71.1C71.628 64.904 72.204 64.16 72.756 63.416L70.884 62.864C70.524 63.584 69.78 64.688 69.252 65.408L69.516 65.504H63.18L63.468 65.384C63.156 64.64 62.436 63.632 61.716 62.912L60.18 63.464C60.708 64.088 61.236 64.856 61.596 65.504H57.204V66.944H65.508V68.6H58.26V69.992H65.508V71.648H56.076V73.112H61.092C59.844 76.184 57.804 78.848 55.308 80.552C55.692 80.864 56.388 81.512 56.652 81.872C58.236 80.672 59.7 79.064 60.924 77.192V84.776H62.676V83.912H72.708V84.728H74.532V74.552H62.412C62.628 74.072 62.844 73.592 63.036 73.112H76.74ZM93.732 65.552H98.22V69.608C98.22 71.288 98.652 71.72 100.164 71.72H101.916C103.26 71.72 103.692 70.976 103.812 68.072C103.356 67.952 102.66 67.688 102.324 67.4C102.276 69.872 102.18 70.232 101.724 70.232H100.428C99.996 70.232 99.924 70.136 99.924 69.584V63.872H92.052V66.272C92.052 67.928 91.668 69.968 89.292 71.48C89.628 71.696 90.252 72.392 90.492 72.752C93.132 71 93.732 68.384 93.732 66.296V65.552ZM89.436 73.352L86.964 74.096V69.296H89.628V67.64H86.964V62.936H85.212V67.64H81.756V69.296H85.212V74.624C83.772 75.056 82.476 75.44 81.444 75.704L82.044 77.528C83.004 77.216 84.084 76.832 85.212 76.448V82.736C85.212 83.096 85.092 83.192 84.78 83.192C84.468 83.216 83.484 83.216 82.404 83.192C82.62 83.624 82.884 84.368 82.932 84.8C84.54 84.824 85.5 84.776 86.1 84.512C86.748 84.224 86.964 83.72 86.964 82.736V75.848C87.852 75.536 88.74 75.224 89.628 74.912L89.436 73.352ZM99.732 74.864C98.94 76.688 97.74 78.248 96.3 79.496C94.884 78.2 93.804 76.64 93.084 74.864H99.732ZM100.932 73.16L100.596 73.232H90.636V74.864H92.724L91.428 75.248C92.268 77.336 93.42 79.112 94.884 80.576C92.988 81.848 90.78 82.736 88.476 83.264C88.836 83.624 89.244 84.392 89.436 84.848C91.884 84.2 94.212 83.216 96.228 81.776C98.028 83.168 100.188 84.2 102.708 84.824C102.972 84.344 103.5 83.6 103.884 83.24C101.484 82.736 99.396 81.848 97.668 80.624C99.636 78.848 101.196 76.568 102.084 73.64L100.932 73.16ZM113.148 65.552C114.252 65.288 115.26 64.976 116.124 64.616L114.804 63.32C113.244 64.04 110.34 64.64 107.868 65.024C108.084 65.408 108.324 65.984 108.42 66.392C109.38 66.272 110.412 66.104 111.42 65.912V69.512H107.916V71.168H111.228C110.412 73.88 108.924 77.024 107.556 78.728C107.868 79.136 108.3 79.88 108.468 80.36C109.524 78.968 110.58 76.76 111.42 74.48V84.824H113.148V73.928C113.844 74.912 114.636 76.16 114.948 76.808L116.028 75.464C115.62 74.888 113.796 72.728 113.148 72.032V71.168H116.148V69.512H113.148V65.552ZM124.524 78.488V80.936H121.068V78.488H124.524ZM125.844 82.136V77.288H119.724V83.288H121.068V82.136H125.844ZM129.228 74.408H116.388V84.8H118.02V75.848H127.572V83.072C127.572 83.336 127.524 83.384 127.26 83.384C126.996 83.408 126.204 83.408 125.244 83.384C125.436 83.792 125.652 84.392 125.724 84.8C127.092 84.8 127.956 84.8 128.508 84.56C129.06 84.296 129.228 83.864 129.228 83.096V74.408ZM125.988 71.744H119.676V69.44H125.988V71.744ZM127.572 68.12H118.14V73.04H127.572V68.12ZM123.636 65.36V62.936H121.884V65.36H116.196V66.824H129.276V65.36H123.636Z" fill="black"/>
</svg>
