<svg xmlns="http://www.w3.org/2000/svg" viewBox="0 0 394.88 97.74"><defs><style>.cls-1{fill:#f1ef64;}.cls-1,.cls-2{stroke:#1a3446;stroke-linecap:round;stroke-linejoin:round;stroke-width:4.44px;}.cls-2{fill:#fff;}</style></defs><g id="レイヤー_2" data-name="レイヤー 2"><g id="レイヤー_1-2" data-name="レイヤー 1"><g id="レイヤー_2-2" data-name="レイヤー 2"><g id="design"><path class="cls-1" d="M183.81,86.58l162.85,5c22.09,0,46-27.32,46-49.41a40,40,0,0,0-40-40H183.81"/><path class="cls-1" d="M183.81,2.22H55.52C33.43,2.22,4,30.35,4,52.44S33.43,82.22,55.52,82.22l128.29,4.36"/><path class="cls-2" d="M181.61,95.52h157.8a40,40,0,1,0,0-80H183.81"/><path class="cls-2" d="M183.81,15.52H42.22a40,40,0,0,0,0,80H181.61"/></g></g><path d="M75.34,59.84a27.3,27.3,0,0,1,5.15,5.39l-2.85,2.88a24.78,24.78,0,0,0-4.1-4.93v9.9H69.4V64.69a34.8,34.8,0,0,1-6.19,6.41,17.67,17.67,0,0,0-2.56-3.81,26.18,26.18,0,0,0,7.42-7.45H61.91V56H69.4V52.82h4.14V56H80.2v3.86Zm5.58-16.35a118.25,118.25,0,0,1-18.65,2.6,13.44,13.44,0,0,0-1.11-3.53,113.06,113.06,0,0,0,17.2-2.67Zm-16,10.44a19.6,19.6,0,0,0-3-5.69L65,46.88a19.3,19.3,0,0,1,3.24,5.4Zm6.73-8a21.84,21.84,0,0,1,2.45,5.25l-3.53,1.26A19.85,19.85,0,0,0,68.32,47ZM81,47l-.11.19a25.4,25.4,0,0,0,8.49-7.06l4.25,1.76a34.73,34.73,0,0,1-9.83,8.68,16.15,16.15,0,0,0-3-3.13c-1.19,2.3-2.45,4.75-3.46,6.33l-3.27-1a38.12,38.12,0,0,0,2.73-6.84ZM95.21,61.63A31.36,31.36,0,0,1,82,73.19a17.57,17.57,0,0,0-3.1-3.71c4.79-1.94,9.58-5.36,12-9.57Zm-.9-9.89a36.93,36.93,0,0,1-10.22,8.74,15.56,15.56,0,0,0-3.17-3.16c3.2-1.66,7.16-4.5,9.18-7.35Z"/><path d="M125.67,45.65v3.93h9.07V73h-4.36V71h-21v2.06h-4.14V49.58h8.35V45.65h-9.79v-4.1H136v4.1Zm4.71,21.42v-5a4.42,4.42,0,0,1-1.8.29h-3c-3.49,0-4.18-1.19-4.18-4.75V53.5h-3.6v.4c0,3.56-1.08,7.73-6,10.33A14.59,14.59,0,0,0,109.36,62v5.11Zm-21-13.57v7.59c3.85-2.12,4.43-4.85,4.43-7.27V53.5Zm12.06-7.85h-3.64v3.93h3.64Zm9,7.85h-4.93v4.1c0,.94.11,1,.79,1h1.84c.61,0,.75-.25.83-1.87a7.36,7.36,0,0,0,1.47.79Z"/><path d="M178.15,43.35a37.59,37.59,0,0,1-6.08,8.39,19.94,19.94,0,0,0,7.16,3.85,15.34,15.34,0,0,0-2.66,3.6,21.54,21.54,0,0,1-7.7-4.68V56.2H155.3V54.62a26.68,26.68,0,0,1-8.39,5,14.13,14.13,0,0,0-2.27-3.35,22.16,22.16,0,0,0,6.62-3.38,37.57,37.57,0,0,0-3.06-2.56L147,51.2a12.23,12.23,0,0,0-2.63-2.78,21.55,21.55,0,0,0,8-8.81l4,.68c-.25.5-.51,1-.79,1.48h3.63l.72-.15,2.09.87c-.18-.58-.32-1.19-.5-1.8l3.67-.76a29.81,29.81,0,0,0,1.65,4.64V41.73h7.74l.83-.25ZM155.83,65a24,24,0,0,1-7.09,7.74,32.36,32.36,0,0,0-3.52-2.81,18,18,0,0,0,6.37-6.11Zm8.28-2.05V69c0,2-.43,3-1.94,3.6s-3.46.62-6.08.58a15,15,0,0,0-1.44-3.78c1.76.07,3.85.07,4.39,0s.75-.11.75-.54v-6H148.28V59.08h27.35v3.85ZM150.33,48.5a39.81,39.81,0,0,1,3.2,2.41,16.39,16.39,0,0,0,1.3-1.48,32.69,32.69,0,0,0-3.21-2.23C151.19,47.63,150.8,48.07,150.33,48.5Zm3.38-3.89-.39.54a35.8,35.8,0,0,1,3.16,2,20.26,20.26,0,0,0,1.23-2.52ZM167,52.38a28.28,28.28,0,0,1-4.68-9.07,24.28,24.28,0,0,1-4.82,9.07Zm.14-7.19A23.3,23.3,0,0,0,169.48,49a28.47,28.47,0,0,0,2.77-3.81Zm3.64,18.61a47.33,47.33,0,0,1,7.12,6.73l-3.81,2.34a43.6,43.6,0,0,0-6.88-7Z"/><path d="M196.3,42.59a28.45,28.45,0,0,0-.86,3.17,87.33,87.33,0,0,0-1.73,13.07,16.78,16.78,0,0,0,.14,2.3c.51-1.26,1.08-2.45,1.59-3.6l2.23,1.73A85.61,85.61,0,0,0,195.11,68a10.05,10.05,0,0,0-.21,1.65c0,.4,0,1,.07,1.48l-4.11.29a45.6,45.6,0,0,1-1.4-11.67,98.27,98.27,0,0,1,1.48-14.11,27.09,27.09,0,0,0,.36-3.49Zm8.35,17.61a11.58,11.58,0,0,0-.43,3c0,1.59,1.37,2.52,5,2.52a41.5,41.5,0,0,0,8.92-.93l.11,4.82a49.64,49.64,0,0,1-9.21.72c-6.16,0-9.08-2.23-9.08-5.87a22.06,22.06,0,0,1,.62-4.64ZM217.1,44.93v4.61a97.56,97.56,0,0,1-15.29,0l0-4.61A72,72,0,0,0,217.1,44.93Z"/><path d="M232.45,49.25c2.77-.83,10-3.38,15.22-3.38,6.44,0,11.52,3.71,11.52,10.29,0,8.07-7.7,13.25-20.27,13.9l-2-4.75c9.65-.22,17.21-3,17.21-9.22,0-3.35-2.31-5.9-6.59-5.9-5.25,0-13.68,3.53-17.38,5.18l-2-5A36.5,36.5,0,0,0,232.45,49.25Z"/><path d="M275.36,48.75c0,2.3,0,5,.21,7.56.51,5.15,1.59,8.64,3.82,8.64,1.69,0,3.09-4.18,3.78-7l3.6,4.32c-2.38,6.19-4.61,8.39-7.49,8.39-3.89,0-7.31-3.53-8.31-13.1-.33-3.28-.4-7.42-.4-9.61a21.24,21.24,0,0,0-.25-3.6l5.47.07A28.51,28.51,0,0,0,275.36,48.75ZM300.12,63.4l-4.71,1.8c-.54-5.72-2.45-14.11-6.34-18.5l4.54-1.51C297,49.32,299.73,57.93,300.12,63.4Z"/><path d="M311.54,45.19c2.95-.29,8.85-.8,15.37-1.37,3.67-.29,7.59-.51,10.08-.61l0,4.6a37,37,0,0,0-6.87.47,10.87,10.87,0,0,0-7.53,10c0,5.87,5.51,8,11.52,8.28l-1.65,4.93C325,71,318,66.93,318,59.22a14.25,14.25,0,0,1,5.25-11c-3.06.33-10.58,1.12-14.72,2l-.43-4.89C309.45,45.33,310.82,45.26,311.54,45.19Z"/></g></g></svg>