<svg width="286" height="85" viewBox="0 0 286 85" fill="none" xmlns="http://www.w3.org/2000/svg">
<path d="M0.270508 18.55C0.270508 28.55 8.32051 36.5 18.3205 36.5C22.7705 36.5 27.0705 34.95 30.4705 31.65C30.8205 31.3 30.9205 30.65 30.5205 30.3L27.4205 27.1C27.1205 26.8 26.5705 26.75 26.1705 27.1C24.0705 28.8 21.5205 29.95 18.5205 29.95C12.1205 29.95 7.32051 24.65 7.32051 18.4C7.32051 12.1 12.0705 6.75 18.4705 6.75C21.2705 6.75 24.0705 7.85 26.1705 9.7C26.5705 10.1 27.0705 10.1 27.4205 9.7L30.4705 6.55C30.8705 6.15 30.8705 5.55 30.4205 5.15C27.0205 2.1 23.3705 0.499998 18.3205 0.499998C8.32051 0.499998 0.270508 8.55 0.270508 18.55ZM38.8537 18.55C38.8537 28.55 46.8037 36.5 56.8037 36.5C66.8037 36.5 74.8037 28.55 74.8037 18.55C74.8037 8.55 66.8037 0.499998 56.8037 0.499998C46.8037 0.499998 38.8537 8.55 38.8537 18.55ZM45.3537 18.55C45.3537 12.25 50.5037 7 56.8037 7C63.1037 7 68.3037 12.25 68.3037 18.55C68.3037 24.85 63.1037 30 56.8037 30C50.5037 30 45.3537 24.85 45.3537 18.55ZM85.8439 35.05C85.8439 35.55 86.2939 36 86.7939 36H91.3439C91.8939 36 92.2939 35.55 92.2939 35.05V13.55H92.3439L113.244 36.5H114.444C114.944 36.5 115.394 36.1 115.394 35.6V1.95C115.394 1.45 114.944 0.999998 114.444 0.999998H109.844C109.294 0.999998 108.894 1.45 108.894 1.95V22.6H108.844L88.0439 0.499998H86.7939C86.2939 0.499998 85.8439 0.899999 85.8439 1.4V35.05ZM133.716 35.05C133.716 35.55 134.166 36 134.666 36H139.316C139.816 36 140.266 35.55 140.266 35.05V7H147.916C148.466 7 148.866 6.55 148.866 6.05V1.95C148.866 1.45 148.466 0.999998 147.916 0.999998H126.066C125.516 0.999998 125.116 1.45 125.116 1.95V6.05C125.116 6.55 125.516 7 126.066 7H133.716V35.05ZM158.565 35.05C158.565 35.55 158.965 36 159.515 36H179.865C180.415 36 180.815 35.55 180.815 35.05V30.95C180.815 30.45 180.415 30 179.865 30H165.065V21.25H177.415C177.915 21.25 178.365 20.85 178.365 20.3V16.15C178.365 15.65 177.915 15.2 177.415 15.2H165.065V7H179.865C180.415 7 180.815 6.55 180.815 6.05V1.95C180.815 1.45 180.415 0.999998 179.865 0.999998H159.515C158.965 0.999998 158.565 1.45 158.565 1.95V35.05ZM192.459 35.05C192.459 35.55 192.909 36 193.409 36H197.959C198.509 36 198.909 35.55 198.909 35.05V13.55H198.959L219.859 36.5H221.059C221.559 36.5 222.009 36.1 222.009 35.6V1.95C222.009 1.45 221.559 0.999998 221.059 0.999998H216.459C215.909 0.999998 215.509 1.45 215.509 1.95V22.6H215.459L194.659 0.499998H193.409C192.909 0.499998 192.459 0.899999 192.459 1.4V35.05ZM240.331 35.05C240.331 35.55 240.781 36 241.281 36H245.931C246.431 36 246.881 35.55 246.881 35.05V7H254.531C255.081 7 255.481 6.55 255.481 6.05V1.95C255.481 1.45 255.081 0.999998 254.531 0.999998H232.681C232.131 0.999998 231.731 1.45 231.731 1.95V6.05C231.731 6.55 232.131 7 232.681 7H240.331V35.05ZM263.38 32.6C264.38 33.55 268.08 36.5 274.38 36.5C281.43 36.5 285.88 31.75 285.88 26.6C285.88 20.15 280.28 17.25 275.43 15.3C271.38 13.65 269.53 12.05 269.53 9.7C269.53 8.1 271.08 6.2 273.93 6.2C276.68 6.2 280.48 8.7 280.88 8.95C281.48 9.35 282.23 8.95 282.63 8.35L284.53 5.5C284.88 5 284.73 4.15 284.23 3.85C283.23 3.1 279.33 0.499998 274.23 0.499998C266.28 0.499998 262.98 5.65 262.98 10.1C262.98 16 267.68 19 272.38 20.9C276.58 22.6 278.73 24.35 278.73 26.9C278.73 29.05 276.78 30.75 274.18 30.75C270.93 30.75 266.88 27.8 266.63 27.65C266.18 27.3 265.33 27.3 264.93 28L263.13 31.1C262.68 31.9 262.93 32.15 263.38 32.6ZM82.808 66.536V68.672C83.36 68.648 84.56 68.6 85.448 68.6H96.944V79.928H85.16C84.152 79.928 83.12 79.856 82.496 79.784V81.968C83.144 81.92 84.224 81.872 85.208 81.872H96.944C96.92 82.448 96.92 82.952 96.896 83.216H99.056C99.032 82.832 98.96 81.752 98.96 80.888V68.504C98.96 67.928 99.008 67.184 99.032 66.632C98.552 66.656 97.832 66.68 97.256 66.68H85.424C84.656 66.68 83.6 66.632 82.808 66.536ZM110.288 65.408L108.92 66.872C110.696 68.072 113.696 70.64 114.896 71.888L116.408 70.376C115.064 69.032 111.992 66.536 110.288 65.408ZM108.224 81.488L109.496 83.456C113.504 82.712 116.528 81.248 118.928 79.736C122.552 77.456 125.36 74.192 126.992 71.192L125.84 69.152C124.448 72.104 121.52 75.656 117.824 77.984C115.544 79.4 112.424 80.864 108.224 81.488ZM136.16 65.24V67.232C136.76 67.184 137.552 67.16 138.344 67.16H148.04C148.736 67.16 149.576 67.184 150.272 67.232V65.24C149.576 65.336 148.712 65.384 148.04 65.384H138.32C137.552 65.384 136.832 65.312 136.16 65.24ZM133.28 71.264V73.256C133.952 73.208 134.648 73.208 135.368 73.208H142.568C142.496 75.464 142.232 77.48 141.176 79.16C140.24 80.672 138.512 82.064 136.64 82.832L138.416 84.152C140.456 83.096 142.28 81.368 143.144 79.76C144.104 77.984 144.488 75.8 144.56 73.208H151.088C151.664 73.208 152.432 73.232 152.96 73.256V71.264C152.384 71.36 151.592 71.384 151.088 71.384H135.368C134.624 71.384 133.952 71.336 133.28 71.264ZM162.608 65.408L161.24 66.872C163.016 68.072 166.016 70.64 167.216 71.888L168.728 70.376C167.384 69.032 164.312 66.536 162.608 65.408ZM160.544 81.488L161.816 83.456C165.824 82.712 168.848 81.248 171.248 79.736C174.872 77.456 177.68 74.192 179.312 71.192L178.16 69.152C176.768 72.104 173.84 75.656 170.144 77.984C167.864 79.4 164.744 80.864 160.544 81.488ZM194.264 64.952L192.416 65.576C193.016 66.824 194.384 70.544 194.768 71.912L196.64 71.264C196.232 69.92 194.792 66.104 194.264 64.952ZM204.92 66.488L202.712 65.864C202.232 69.464 200.768 73.304 198.872 75.728C196.448 78.8 192.872 81.104 189.44 82.112L191.096 83.792C194.48 82.592 198.032 80.12 200.504 76.856C202.472 74.264 203.768 70.832 204.488 67.856C204.584 67.472 204.752 66.896 204.92 66.488ZM187.568 66.392L185.672 67.088C186.248 68.12 187.904 72.176 188.36 73.664L190.256 72.968C189.704 71.408 188.192 67.736 187.568 66.392Z" fill="black"/>
</svg>
