<svg xmlns="http://www.w3.org/2000/svg" viewBox="0 0 202.62 60.78"><defs><style>.cls-1{fill:#453f63;}.cls-2{fill:#38545e;}.cls-3{fill:#6f4672;}.cls-4{fill:#313263;}.cls-5{fill:#fff;}.cls-6{fill:#a5689a;}.cls-7{fill:#3b5094;}.cls-8{fill:#f5e828;}.cls-9{fill:#637384;}.cls-10{fill:#231815;}.cls-11{fill:#6e82a9;}.cls-12,.cls-13{fill:none;stroke:#1a1907;stroke-miterlimit:10;stroke-width:1.4px;}.cls-13{stroke-dasharray:3.07 3.07;}</style></defs><g id="レイヤー_2" data-name="レイヤー 2"><g id="レイヤー_1-2" data-name="レイヤー 1"><path class="cls-1" d="M152.39,48.13c-.73-1.29-2.27-1.89-6.13-2.88a.56.56,0,0,1-.21-.11.68.68,0,0,1,.18,0c.86,0,1.89.07,3,.13,1.51.07,3.07.15,4.24.15,1.5,0,1.78-.45,1.87-1.51l0-1.31c.05-1.58.09-2.83.09-4.28V36.2a.4.4,0,0,0-.4-.4h-8.68a44.52,44.52,0,0,0-6.76.38h0l-.16,0h0a.74.74,0,0,1-.64-.28,6.19,6.19,0,0,1-.65-1.18l.24,0a47.59,47.59,0,0,0,8,.6h22.51a2.31,2.31,0,0,0,1.65-.49c.82-.59,1.76-1.37,2.68-2.11l1-.81a.56.56,0,0,1,.35-.19,1.24,1.24,0,0,1,.61.23c1.55.89,3.91,2.22,6.28,3.51a1,1,0,0,1,.3.23h0a4.62,4.62,0,0,1-.71.06H163.46a.4.4,0,0,0-.4.4c0,2,0,3.62.07,5.18s.06,2.93.06,4.66v.29Z"/><path class="cls-2" d="M174.9,44.37a20.4,20.4,0,0,0-8-5,3.07,3.07,0,0,1-.42-.18h.68c7.91.59,13.35,2,15.37,4Z"/><path class="cls-3" d="M129.52,48.74h-.22a1.94,1.94,0,0,1,.29-.2c5.76-3,10.13-6.6,12.63-10.37l.1-.15a1.3,1.3,0,0,1,.17-.22h0a2.26,2.26,0,0,1,.65.12c2.62.66,5,1.38,7.6,2.18.64.2.85.46.86.53s-.33.33-1.14.33H150a3.11,3.11,0,0,0-2.1.53,47.48,47.48,0,0,1-17.56,7.18A2.79,2.79,0,0,1,129.52,48.74Z"/><path class="cls-4" d="M165.83,14.26A9.89,9.89,0,0,0,163,17.47l13.64,13.09a9.77,9.77,0,0,0,3-14Z"/><path class="cls-5" d="M171.32,13.75a2.5,2.5,0,0,0-2.06,1.08l4.46.75A2.48,2.48,0,0,0,171.32,13.75Z"/><path class="cls-5" d="M169.26,14.83a2.51,2.51,0,1,0,4.57,1.42,2.54,2.54,0,0,0-.11-.67Z"/><circle class="cls-5" cx="165.45" cy="20.51" r="2.51"/><circle class="cls-5" cx="177.19" cy="20.51" r="2.51"/><path class="cls-3" d="M147.8,29.93c1.38-.09,3-.14,4.77-.14h17.17a1.51,1.51,0,0,0,.47-.06l-.1-.08c-2.05-1.4-4.8-2.9-5.7-3.39a1.31,1.31,0,0,0-.48-.18c-.07,0-.13,0-.29.14-.69.56-1.42,1.26-2.06,1.88-.34.33-.65.63-.91.86a2.23,2.23,0,0,1-1.55.49h-6.55c-.74,0-1.61,0-2.56-.05a.4.4,0,0,1-.36-.29.37.37,0,0,1,.11-.37l-2,1.2Z"/><path class="cls-6" d="M161.32,16.5a.38.38,0,0,1-.27.1.31.31,0,0,1-.18-.05c-1.58-.82-2.82-1.43-4.11-2a2.08,2.08,0,0,0-.72-.2.9.9,0,0,0-.5.16c-1,.66-2,1.44-2.65,1.89a2,2,0,0,1-1.39.37h-5.81a.4.4,0,0,1-.32-.64c.24-.32.49-.64.75-1s.49-.6.72-.92.91-.5,2.26-.7a2.61,2.61,0,0,0,.6-.17h0c0-.06-.24-.25-.72-.32-1.69-.21-3.38-.47-5-.71s-2.95-.45-4.16-.61a1.72,1.72,0,0,1-.34,0,2.41,2.41,0,0,1-.07.4c-.93,4.32-4.21,9.21-10,15l.06,0a42.6,42.6,0,0,0,6.05-2.77l7.1-5.2c.31-.3.6-.6.88-.9s.56-.59.86-.88a.43.43,0,0,1,.28-.11h7.82a.43.43,0,0,1,.34.18.42.42,0,0,1,0,.39c-3.56,7.46-11,13.15-23.41,17.92,0,0,0,.1.2.1l.19,0c8-1.54,13.47-3.32,17.86-5.74,0,0,.08,0,.12,0l2-1.2s0,0,.06-.07a33.83,33.83,0,0,0,9.38-8.79A3.75,3.75,0,0,1,162,18.13h.09a.42.42,0,0,1,.24.09l-.89-1.86A.34.34,0,0,1,161.32,16.5Z"/><path class="cls-7" d="M188.08,27.12c-6.49-.53-11.08-1.37-14.39-2.64a.28.28,0,0,1-.15,0l-.19-.09-.22-.08-.34-.14a.36.36,0,0,1-.15-.12l-1.17-.58a.39.39,0,0,1-.18,0A22.78,22.78,0,0,1,161.68,14l-1.05-.18c.25.82.54,1.6.8,2.27a.37.37,0,0,1,0,.29l.89,1.86a.55.55,0,0,1,.12.14c4,8.26,10.53,11.64,19.77,14.41a2.61,2.61,0,0,0,.44.08c.25,0,.37-.08.41-.27.62-3.23,1.74-4.15,4.79-5.26a3.21,3.21,0,0,0,.36-.17Z"/><path class="cls-8" d="M137.19,32.28a5.24,5.24,0,0,0-5-5.19c3-.41,4.75-2.09,5-5.17.27,3.09,2,4.76,5,5.17C139.19,27.5,137.46,29.18,137.19,32.28Z"/><path class="cls-8" d="M143.64,28a5.25,5.25,0,0,0-5-5.19c3-.41,4.75-2.09,5-5.18.27,3.09,2,4.76,5,5.18C145.63,23.21,143.91,24.89,143.64,28Z"/><path class="cls-7" d="M42.7,16.44A2.89,2.89,0,0,0,42,16.3c-.26,0-.4.14-.4.59,0,1.83-1.27,5.24-3.74,9.16a.41.41,0,0,0-.06.23c0,.23.2.32.46.32a.86.86,0,0,0,.47-.09,48.08,48.08,0,0,0,9.15-5.88,2.64,2.64,0,0,1,2.07-.82c1.14,0,1.61-.32,1.61-.64s-.34-.59-.87-.73C48.24,17.72,45.3,17,42.7,16.44Z"/><path class="cls-7" d="M49.91,22.67c5.48-3.67,8.93-7.33,10.53-11.18a3.26,3.26,0,0,0,.13-.48l.28,0c3.43.64,6.2,1.24,9.27,2,.45.1.62.29.64.34h0a3.57,3.57,0,0,1-.75.15h-.43c-.86,0-1,0-1.47.39A43.58,43.58,0,0,1,50,22.66Z"/><path class="cls-1" d="M49.89,34.19c5.47-3.26,10.63-8.57,12.35-12.72a3.53,3.53,0,0,0,.15-.49v0l.25.06c3.41.83,6.36,1.59,9.27,2.41.38.1.51.26.51.3h0a1.63,1.63,0,0,1-.76.19l-.72,0c-.71,0-1,0-1.34.37-4.76,4.57-11.4,7.89-19.72,9.88Z"/><path class="cls-3" d="M46.57,13.3c1.08.5,2.11,1,3,1.45.6.28.72.54.72.6a1.35,1.35,0,0,1-.81.19,5.63,5.63,0,0,1-.73-.09A9.14,9.14,0,0,0,47,15.22a9.76,9.76,0,0,0-1.53.14,149.88,149.88,0,0,1-20.58,1.55Z"/><path class="cls-6" d="M48.45,49.13a40.65,40.65,0,0,0,10.73-9.48A26,26,0,0,0,63,33a3.54,3.54,0,0,0,.13-.39.25.25,0,0,0,0-.07l.26,0c3.41.78,6.87,1.65,9.73,2.45.39.1.51.26.51.3h0a1.7,1.7,0,0,1-.76.2H72.2c-.68,0-1.09,0-1.42.4-5.09,6.57-11.62,10.87-20.55,13.52Z"/><path class="cls-9" d="M28.94,45.88c0-.83.1-1.66.16-2.48.09-1.34.18-2.66.24-3.93a.43.43,0,0,0-.23-.38.35.35,0,0,0-.17,0,.43.43,0,0,0-.27.1,39.67,39.67,0,0,1-7.94,5.36L18,44A36.17,36.17,0,0,0,26.7,32.32a.42.42,0,0,0,0-.38.4.4,0,0,0-.34-.18H23.66a45.89,45.89,0,0,0-6.76.37h0l-.15,0h-.06a.76.76,0,0,1-.64-.28,5.92,5.92,0,0,1-.64-1.09l.23,0a48.73,48.73,0,0,0,8,.6h5.28a.4.4,0,0,0,.29-.12.46.46,0,0,0,.11-.3,16.08,16.08,0,0,0-.49-3.6,4.09,4.09,0,0,1-.22-.72,6.8,6.8,0,0,1,.8,0l1.79.19c2.18.22,4.89.49,6.6.77.69.12.92.35.94.4h0a2.83,2.83,0,0,1-.81.27c-1.36.24-1.73.57-1.73,1.53A6.28,6.28,0,0,1,36.16,31a.4.4,0,0,0,.39.47h2.54a2.14,2.14,0,0,0,1.55-.48c.85-.74,2.25-1.93,3.44-2.89a.46.46,0,0,1,.29-.09,1,1,0,0,1,.48.13c1.51.83,3.37,1.95,5.85,3.54l.08.07a1.51,1.51,0,0,1-.47.06H36.55a.4.4,0,0,0-.4.4v3a.41.41,0,0,0,.34.4l1.12.18c5.12.85,10,1.66,11.35,4.13A2.64,2.64,0,0,1,49.32,41c0,1.47-1.71,2.34-3.35,2.34a3.51,3.51,0,0,1-3.06-1.54c-.17-.28-.33-.55-.48-.82a9.89,9.89,0,0,0-5.73-5.08.37.37,0,0,0-.15,0,.46.46,0,0,0-.22.06.42.42,0,0,0-.18.34v3.28c0,1.28,0,2.63,0,4.08q0,1.62,0,3.42Z"/><polygon class="cls-10" points="128.47 25.86 128.47 25.86 128.47 25.86 128.47 25.86"/><path class="cls-2" d="M97.27,25.28h4.34a.4.4,0,0,1,.29.12h0l0-.72a.38.38,0,0,1-.31.17H97.34a.39.39,0,0,1-.23-.09l-.09.61A.38.38,0,0,1,97.27,25.28Z"/><path class="cls-2" d="M127.52,25.11c-1.25-.77-3.7-2.06-5.59-3a1.67,1.67,0,0,0-.74-.22.79.79,0,0,0-.51.2c-.76.51-1.82,1.3-2.66,1.91l-.55.41a2.62,2.62,0,0,1-1.69.44h-6.55a.39.39,0,0,1-.34-.2l.06.74a.39.39,0,0,1,.28-.11h8.42a.41.41,0,0,1,.4.39c.06,2.46.06,5.81.06,9.35a.44.44,0,0,1-.07.22l0,2.85a.25.25,0,0,1,0,.12c0,2.78,0,5.66-.13,8a.37.37,0,0,1,0,.14v.91a.29.29,0,0,1,0,.16c0,.34,0,.72,0,1.09s0,.66,0,1c0,.69.39,1.15,2.27,1.15.52,0,1.06,0,1.58,0,3.37-.2,4-.58,4-1.56V49c0-2.75,0-6.77-.11-10.66,0-3.66-.09-7.21-.09-9.48,0-1.51.66-1.85,2-2.42.79-.31.89-.54.89-.54C128.47,25.67,127.78,25.26,127.52,25.11Z"/><path class="cls-1" d="M117.58,46.63H83.78a.41.41,0,0,1-.33-.18l0,.83a.2.2,0,0,1,0-.08.41.41,0,0,1,.31-.14h33.8a.4.4,0,0,1,.36.24v-.91A.4.4,0,0,1,117.58,46.63Z"/><path class="cls-3" d="M76.1,22.05a3.73,3.73,0,0,0-.73-.21s0,.08,0,.15a5.72,5.72,0,0,0,.19,1.17c.37,1.4.41,6.91.41,9.22,0,3.9-.16,8.42-.31,12.41-.06,1.69-.12,3.28-.16,4.67v.23c0,.75.35,1.1,2.34,1.1l.58,0,.8,0h0c3.84-.14,4.23-.57,4.23-1.61V49c0-.31,0-.75,0-1.12v0a2.53,2.53,0,0,0,0-.32.39.39,0,0,1,.05-.24l0-.83a.37.37,0,0,1-.07-.2c-.07-1.24-.07-2.29-.07-3.62a.29.29,0,0,1,0-.16l0-.71a.38.38,0,0,1-.08-.23c0-1.45,0-2.91,0-4.35s0-2.81,0-4.17c0-2.72,0-5.29.07-7.35a.4.4,0,0,1,.4-.38h0l.75-.49C83.75,24.55,79.35,23.09,76.1,22.05Z"/><path class="cls-2" d="M89.59,24.85H84.71l-.12,0-.12,0-.75.49h5.87a.4.4,0,0,1,.29.12s0,0,0,0v-.75A.4.4,0,0,1,89.59,24.85Z"/><path class="cls-7" d="M97.3,16.16l-7.59,0a.41.41,0,0,1,.28.38v7.93a.42.42,0,0,1-.09.24v.75a.36.36,0,0,1,.09.24c-.13,7.26-.5,11.92-6,16.17a.35.35,0,0,1-.24.08.39.39,0,0,1-.18,0,.35.35,0,0,1-.14-.13l0,.71a.4.4,0,0,1,.36-.24h.13a.51.51,0,0,0,.23,0c10.46-2.93,12.29-6.52,12.8-16.54a.43.43,0,0,1,.15-.29l.09-.61s0,0-.06,0a.38.38,0,0,1-.11-.3c.13-2.31.13-4.9.13-7.9A.41.41,0,0,1,97.3,16.16Z"/><path class="cls-3" d="M117.93,35.35a.34.34,0,0,1-.22.07.32.32,0,0,1-.16,0l-.3-.13c-2-.88-2.14-1.14-2.14-4.61V29.28c0-.2-.09-.2-.14-.2a.36.36,0,0,0-.35.23c-1.55,4.81-1.92,5.83-3.19,5.83h-.8c-1.3,0-1.66-.35-1.73-1.74s-.07-3.38-.07-5.49V25.68a.41.41,0,0,1,.12-.29l-.06-.74a.36.36,0,0,1-.06-.2c0-1.42,0-2.86,0-4.25s0-2.54,0-3.68a.39.39,0,0,1,.18-.33l-7.41,0a.42.42,0,0,1,.21.33c.07,1.51.07,3.4.07,5.4v2.55a.36.36,0,0,1-.09.23l0,.72a.43.43,0,0,1,.11.28v.23c-.06,3.32-.13,6.75-.13,9.06v.23c0,3.07,1.62,4.39,5.41,4.39h1.87a50.67,50.67,0,0,0,5.23-.23,4.83,4.83,0,0,0,3-1.42.36.36,0,0,1,.29-.13.4.4,0,0,1,.15,0,.35.35,0,0,1,.21.25l0-2.85A.38.38,0,0,1,117.93,35.35Z"/><path class="cls-11" d="M129.47,16.12a1.75,1.75,0,0,0,.63-.08.71.71,0,0,0-.25-.23c-2-1.35-4.17-2.65-6.72-4.09a1.5,1.5,0,0,0-.61-.22.54.54,0,0,0-.34.17l-.08.07c-1.34,1.18-2.73,2.4-3.78,3.43a2.32,2.32,0,0,1-1.68.52H79.24a48.48,48.48,0,0,1-8-.6,1.32,1.32,0,0,0-.24,0,6,6,0,0,0,.65,1.19.75.75,0,0,0,.64.28h0a.5.5,0,0,1,.16,0h0a45.73,45.73,0,0,1,6.76-.37H89.59l.12,0,7.59,0a.47.47,0,0,1,.17,0h4a.41.41,0,0,1,.19.05l7.41,0a.41.41,0,0,1,.22-.07Z"/><path class="cls-8" d="M22.54,17.91c-.28,3.09-2,4.76-5,5.17a5.26,5.26,0,0,1,5,5.2c.26-3.1,2-4.79,5-5.2C24.53,22.67,22.81,21,22.54,17.91Z"/><path class="cls-8" d="M33,16.27c-.27,3.09-2,4.76-5,5.17a5.26,5.26,0,0,1,5,5.2c.27-3.1,2-4.79,5-5.2C35,21,33.28,19.36,33,16.27Z"/><line class="cls-12" x1="87.63" y1="0.69" x2="89.11" y2="0.94"/><line class="cls-13" x1="92.13" y1="1.44" x2="199.51" y2="19.33"/><line class="cls-12" x1="201.02" y1="19.58" x2="202.5" y2="19.83"/><line class="cls-12" x1="1.6" y1="19.83" x2="3.08" y2="19.58"/><line class="cls-13" x1="6.11" y1="19.08" x2="113.49" y2="1.19"/><line class="cls-12" x1="115" y1="0.94" x2="116.48" y2="0.69"/><line class="cls-12" x1="86.14" y1="60.08" x2="87.62" y2="59.84"/><line class="cls-13" x1="90.64" y1="59.33" x2="198.02" y2="41.44"/><line class="cls-12" x1="199.53" y1="41.19" x2="201.01" y2="40.95"/><line class="cls-12" x1="0.12" y1="40.95" x2="1.59" y2="41.19"/><line class="cls-13" x1="4.62" y1="41.7" x2="112" y2="59.59"/><line class="cls-12" x1="113.51" y1="59.84" x2="114.99" y2="60.08"/></g></g></svg>