<svg xmlns="http://www.w3.org/2000/svg" viewBox="0 0 405.72 141.82"><defs><style>.cls-1{fill:#3f51b5;}.cls-2{fill:#ff4c3e;}</style></defs><g id="レイヤー_2" data-name="レイヤー 2"><g id="レイヤー_1-2" data-name="レイヤー 1"><path class="cls-1" d="M405.72,31.18h-.12l0-.1h-.12l0-.1h-.12l0-.1h-.12l0-.1h-.12l0-.1h-.12l0-.09H405l0-.1h-.12l0-.1h-.12l0-.1h-.12l0-.1h-.13l0-.1h-.12l0-.1h-.12l0-.09h-.12l0-.1h-.12l0-.1h-.12l0-.1H404l0-.1h-.12l0-.1h-.12l0-.1h-.12l0-.09h-.12l0-.1h-.12l0-.1h-.13l0-.1h-.12l0-.1h-.12l0-.1h-.12l0-.1H403l0-.09h-.12l0-.1h-.13l0-.1h-.12l0-.1h-.12l0-.1h-.12l0-.1h-.12l0-.1h-.12l0-.09h-.13l0-.1h-.12l0-.1h-.12l0-.1H402l0-.1h-.12l0-.1h-.12l0-.1h-.13l0-.09h-.12l0-.1h-.12l0-.1h-.12l0-.1h-.12l0-.1h-.12l0-.1h-.13l0-.1H401l0-.09h-.12l0-.1h-.12l0-.1h-.12l0-.1h-.12l0-.1h-.13l0-.1h-.12l0-.09h-.12l0-.1h-.12l0-.1h-.12l0-.1H400l0-.1h-.13l0-.1h-.12l0-.1h-.12l0-.09h-.12l0-.1h-.12l0-.1h-.12l0-.1h-.13l0-.1h-.12l0-.1h-.12l0-.1H399l0-.09h-.12l0-.1h-.12l0-.1h-.13l0-.1h-.12l0-.1h-.12l0-.1h-.12l0-.1h-.12l0-.09h-.12l0-.1h-.13l0-.1H398l0-.1h-.12l0-.1h-.12l0-.1h-.12l0-.1h-.12l0-.09h-.12l0-.1h-.12l0-.1h-.12l0-.1h-.12l0-.1h-.12l0-.1H397l0-.1H397l0-.09h-.12l0-.1h-.12l0-.1h-.12l0-.1h-.12l0-.1h-.12l0-.1h-.12l0-.1h-.12l0-.09h-.12l0-.1h-.12l0-.1H396l0-.1h-.12l0-.1h-.12l0-.1h-.12l0-.09h-.12l0-.1h-.12l0-.1h-.12l0-.1h-.12l0-.1h-.12l0-.1h-.12l0-.1H395l0-.09h-.12l0-.1h-.12l0-.1h-.12l0-.1h-.12l0-.1h-.12l0-.1h-.12l0-.1h-.12l0-.09h-.12l0-.1h-.12l0-.1H394l0-.1h-.12l0-.1h-.12l0-.1h-.12l0-.1h-.12l0-.09h-.13l0-.1h-.12l0-.1h-.12l0-.1h-.12l0-.1h-.12l0-.1H393l0-.1h-.13l0-.09h-.12l0-.1h-.12l0-.1h-.12l0-.1h-.12l0-.1h-.12l0-.1h-.13l0-.1h-.12l0-.09h-.12l0-.1H392l0-.1h-.12l0-.1h-.12l0-.1h-.13l0-.1h-.12l0-.1h-.12l0-.09h-.12l0-.1h-.12l0-.1h-.12l0-.1h-.13l0-.1h-.12l0-.1H391l0-.09h-.12l0-.1h-.12l0-.1h-.12l0-.1h-.13l0-.1h-.12l0-.1h-.12l0-.1h-.12l0-.09h-.12l0-.1h-.12l0-.1H390l0-.1h-.12l0-.1h-.12l0-.1h-.12l0-.1h-.12l0-.09h-.12l0-.1h-.13l0-.1h-.12l0-.1h-.12l0-.1h-.12l0-.1H389l0-.1h-.12l0-.09h-.13l0-.1h-.12l0-.1h-.12l0-.1h-.12l0-.1h-.12l0-.1h-.12l0-.1h-.13l0-.09h-.12l0-.1H388l0-.1h-.12l0-.1h-.12l0-.1h-.12l0-.1h-.12l0-.1h-.12l0-.09h-.12l0-.1h-.12l0-.1h-.12l0-.1h-.12l0-.1H387l0-.1h-.12l0-.1h-.12l0-.09h-.12l0-.1h-.12l0-.1h-.12l0-.1h-.12l0-.1h-.12l0-.1h-.12l0-.09h-.12l0-.1H386l0-.1h-.12l0-.1h-.12l0-.1h-.12l0-.1h-.12l0-.1h-.12l0-.09h-.12l0-.1h-.12l0-.1h-.12l0-.1h-.12l0-.1h-.12l0-.1H385l0-.1h-.12l0-.09h-.12l0-.1h-.12l0-.1h-.12l0-.1h-.12l0-.1h-.12l0-.1h-.12l0-.1h-.12l0-.09h-.12l0-.1H384l0-.1h-.12l0-.1h-.12l0-.1h-.12l0-.1h-.12l0-.1h-.12l0-.09h-.12l0-.1h-.12l0-.1h-.12l0-.1h-.12l0-.1H383l0-.1h-.12l0-.1h-.12l0-.09h-.12l0-.1h-.12l0-.1h-.12l0-.1h-.13l0-.1h-.12l0-.1h-.12l0-.1h-.12l0-.09H382l0-.1h-.12l0-.1h-.13l0-.1h-.12l0-.1h-.12l0-.1h-.12l0-.09h-.12l0-.1h-.12l0-.1h-.13l0-.1h-.12l0-.1H381l0-.1h-.12l0-.1h-.12l0-.09h-.12l0-.1h-.13l0-.1h-.12l0-.1h-.12l0-.1h-.12l0-.1h-.12l0-.1h-.12l0-.09H380l0-.1h-.12l0-.1h-.12l0-.1h-.12l0-.1h-.12l0-.1h-.12l0-.1h-.13l0-.09h-.12l0-.1h-.12l0-.1h-.12l0-.1h-.12l0-.1H379l0-.1h-.13l0-.1h-.12l0-.09h-.12l0-.1h-.12l0-.1h-.12l0-.1h-.12l0-.1h-.13l0-.1h-.12l0-.1h-.12l0-.09H378l0-.1h-.12l0-.1h-.12l0-.1h-.13l0-.1h-.12l0-.1h-.12l0-.1h-.12l0-.09h-.12l0-.1h-.12l0-.1h-.13l0-.1H377l0-.1h-.12l0-.1h-.12l0-.09h-.12l0-.1h-.12l0-.1h-.12l0-.1h-.12l0-.1h-.12l0-.1H322L321,6h-.1l0-.1h-.12l0-.1h-.13l0-.1h-.12l0-.09h-.12l0-.1h-.12l0-.1h-.12l0-.1h-.12l0-.1h-.13l0-.1H320l0-.1h-.12l0-.09h-.12l0-.1h-.12l0-.1h-.12l0-.1h-.12l0-.1h-.12l0-.1h-.12l0-.1h-.12l0-.09h-.12l0-.1H319l0-.1h-.12l0-.1h-.12l0-.1h-.12l0-.1H297.26l0-.07h-.12l0-.1h-.12l0-.1H297l0-.1h-.12l0-.1h-.12l0-.09h-.12l0-.1h-.12l0-.1h-.12l0-.1h-.12l0-.1h-.12l0-.1h-.12l0-.1h-.12l0-.09H296l0-.1h-.12l0-.1h-.12l0-.1h-.12l0-.1h-.12l0-.1h-.12l0-.1h-.12l0-.09h-.12l0-.1h-.12l0-.1h-.12l0-.1H295l0-.1h-.12l0-.1h-.12l0-.09h-.12l0-.1h-.12l0-.1h-.12l0-.1h-.12l0-.1h-.12l0-.1h-.12l0-.1h-.12l0-.09H294l0-.1h-.12l0-.1h-.12l0-.1h-.12l0-.1h-.12l0-.1h-21l-9.36,7.8-.16.72H263l0-.1h-.12l0-.1h-.12l0-.1h-.12l0-.1h-.12l0-.1h-.12l0-.09h-.12l0-.1h-.12l0-.1h-.12l0-.1h-.12l0-.1H262l0-.1h-.12l0-.1h-.12l0-.09h-.12l0-.1h-.12l0-.1h-.12l0-.1h-.12l0-.1h-.12l0-.1h-.12l0-.1h-.12l0-.09h-.12l0-.1H261l0-.1h-.12l0-.1h-.12l0-.1h-.12l0-.1h-.12l0-.1h-.12l0-.09h-.12l0-.1h-.13l0-.1h-.12l0-.1h-.12l0-.1H260l0-.1h-.12l0-.1h-.12l0-.09h-.13l0-.1h-.12l0-.1h-.12l0-.1h-.12l0-.1h-.12l0-.1h-.12l0-.1h-.13l0-.09H259l0-.1h-.12l0-.1h-.12l0-.1h-.12l0-.1h-.12l0-.1h-.13l0-.09h-.12l0-.1h-.12l0-.1h-.12l0-.1h-.12l0-.1H258l0-.1h-.13l0-.1h-.12l0-.09h-.12l0-.1h-.12l0-.1h-.12l0-.1h-.12l0-.1h-.13l0-.1h-.12l0-.1h-.12l0-.09H257l0-.1h-.12l0-.1h-.12l0-.1h-.13l0-.1h-.12l0-.1h-.12l0-.1h-.12l0-.09h-.12l0-.1h-.12l0-.1h-.13l0-.1H256l0-.1h-.12l0-.1H146.16l-2,8.56h0l0-.09H144l0-.1H144l0-.1h-.12l0-.1h-.12l0-.1h-.12l0-.1h-.12l0-.1h-.12l0-.09h-.12l0-.1h-.12l0-.1h-.12l0-.1h-.12l0-.1H143l0-.1h-.12l0-.1h-.12l0-.09h-.12l0-.1h-.12l0-.1h-.12l0-.1h-.12l0-.1h-.13l0-.1h-.12l0-.1h-.12l0-.09H142l0-.1h-.12l0-.1h-.12l0-.1h-.13l0-.1h-.12l0-.1h-.12l0-.1h-.12l0-.09h-.12l0-.1h-.12l0-.1h-.13l0-.1H141l0-.1h-.12l0-.1h-.12l0-.1h-.12l0-.09h-.12l0-.1h-.13l0-.1h-.12l0-.1h-.12l0-.1h-.12l0-.1h-.12l0-.09H140l0-.1h-.13l0-.1h-.12l0-.1h-.12l0-.1h-.12l0-.1h-.12l0-.1h-.12l0-.09h-.13l0-.1h-.12l0-.1h-.12l0-.1H139l0-.1h-.12l0-.1h-.12l0-.1h-.13l0-.09h-.12l0-.1h-.12l0-.1h-.12l0-.1h-.12l0-.1h-.12l0-.1h-.13l0-.1h-.12l0-.09H138l0-.1h-.12l0-.1h-.12l0-.1h-.12l0-.1h-.13l0-.1h-.12l0-.1h-.12l0-.09h-.12l0-.1h-.12l0-.1h-.12l0-.1H137l0-.1h-.12l0-.1h-.12l0-.1h-.12l0-.09h-.12l0-.1h-.12l0-.1h-.12l0-.1h-.12l0-.1h-.12l0-.1H122.52s-18.63,5.24-18.68,5.22l0-.1h-.12l0-.1h-.13l0-.1h-.12l0-.1h-.12l0-.1h-.12l0-.09h-.12l0-.1h-.12l0-.1h-.13l0-.1H103l0-.1h-.12l0-.1h-.12l0-.1h-.12l0-.09h-.12l0-.1h-.12l0-.1h-.12l0-.1h-.12l0-.1h-.12l0-.1h-.12l0-.1H102l0-.09h-.12l0-.1h-.12l0-.1h-.12l0-.1h-.12l0-.1h-.12l0-.1h-.12l0-.1h-.12l0-.09h-.12l0-.1h-.12l0-.1H101l0-.1h-.12l0-.1h-.12l0-.1h-.12l0-.1h-.12l0-.09h-.12l0-.1h-.12l0-.1h-.12l0-.1h-.12l0-.1h-.12l0-.1H100l0-.09h-.12l0-.1h-.12l0-.1h-.12l0-.1h-.12l0-.1h-.12l0-.1h-.12l0-.1h-.12l0-.09h-.12l0-.1h-.12l0-.1H99l0-.1h-.12L99,2h-.12l0-.1h-.12l0-.1h-.12l0-.09h-.12l0-.1h-.12l0-.1h-.12l0-.1h-.12l0-.1h-.12l0-.1h-73L20,23.79h.12l0,.1h.12l0,.1h.12l0,.1h.12l0,.1h.13l0,.1h.12l0,.09h.12l0,.1h.12l0,.1H21l0,.1h.12l0,.1h.13l0,.1h.12l0,.09h.12l0,.1h.12l0,.1h.12l0,.1h.12l0,.1h.13l0,.1h.12l0,.1h.12l0,.09H22l0,.1h.12l0,.1h.12l0,.1h.13l0,.1h.12l0,.1h.12v0h-2l-4.92,22,4.8,6.36h0l.07.1h0l.08.1h0l.08.1h0l.07.1h0l.07.1h0l.07.09h0l.07.1h0l.08.1h0l.08.1h0l.07.1h0l.07.1h0l.07.1h0l.08.09h0l.08.1h0l.08.1h0l.07.1h0l.07.1h0l.07.1h0l.08.1h0l.08.09h0l.08.1h0l.07.09H12.48L7.32,78.75h.12l0,.1h.12l0,.1h.12l0,.1h.12l0,.1h.13l0,.1h.12l0,.09H8l0,.1h.12l0,.1h.12l0,.1h.12l0,.1h.13l0,.1h.12l0,.1h.12l0,.09h.12l0,.1h.12l0,.1h.12l0,.1H9l0,.1h.12l0,.1h.12l0,.1h.12l0,.09h.12l0,.1h.12l0,.1h.13l0,.1H9.7l0,.1H9.8l0,.1H9.9l0,.1H10l0,.09h.12l0,.1h.13l0,.1h.12l0,.1h.12l0,.1h.12l0,.1h.12l0,.1h.12l0,.09h.13l0,.1h.12l0,.1H11l0,.1h.12l0,.1h.12l0,.1h.12l0,.09h.13l0,.1h.12l0,.1h.12l0,.1h.12l0,.1h.12l0,.1h.12l0,.1H12l0,.08L5.4,87.75,0,111.27H.12l0,.1H.22l0,.1H.32l0,.1H.42l0,.1H.52l0,.1H.61l0,.09H.71l0,.1H.81l0,.1H.91l0,.1H1l0,.1h.13l0,.1H1.2l0,.1H1.3l0,.09H1.4l0,.1H1.5l0,.1H1.6l0,.1H1.7l0,.1h.12l0,.1h.12l0,.1H2l0,.09h.12l0,.1h.12l0,.1h.13l0,.1h.12l0,.1h.12l0,.1h.12l0,.09h.12l0,.1h.12l0,.1h.13l0,.1H3l0,.1h.12l0,.1h.12l0,.1h.12l0,.09h.12l0,.1h.13l0,.1h.12l0,.1h.12l0,.1h.12l0,.1h.12l0,.1H4l0,.09h.12l0,.1h.12l0,.1h.12l0,.1h.12l0,.1h.12l0,.1h.12l0,.1h.12l0,.09h.12l0,.1h.12l0,.1h.12l0,.1H5l0,.1h.12l0,.1h.12l0,.1h.12l0,.09h.12l0,.1h.12l0,.1h.12l0,.1h.12l0,.1h.12l0,.1h.12l0,.1H6l0,.09h.12l0,.1h.12l0,.1h.12l0,.1h.12l0,.1h.12l0,.1h.12l0,.09h.12l0,.1h.12l0,.1h.12l0,.1H7l0,.1H7.1l0,.1H7.2l0,.1H7.3l0,.09H7.4l0,.1H7.5l0,.1h.12l0,.1h.12l0,.1h.12l0,.1h.12l0,.1H8l0,.09h.12l0,.1h.12l0,.1h.12l0,.1h.12l0,.1h.12l0,.1h.12l0,.1h.12l0,.09h.12l0,.1h.12l0,.1H9l0,.1h.12l0,.1h.12l0,.1h.12l0,.1h.12l0,.09h.12l0,.1h.12l0,.1h.12l0,.1h.12l0,.1h.13l0,.1H10l0,.1h.12l0,.09h.12l0,.1h.12l0,.1h.12l0,.1h.13l0,.1h.12l0,.1h.12l0,.1h.12l0,.09h.12l0,.1h.12l0,.1H11l0,.1h.12l0,.1h.12l0,.1h.12l0,.09h.12l0,.1h.12l0,.1h.13l0,.1h.12l0,.1h.12l0,.1h.12l0,.1H12l0,.09h.12l0,.1h.13l0,.1h.12l0,.1h.12l0,.1h.12l0,.1h.12l0,.1h.12l0,.09h.13l0,.1h.12l0,.1H13l0,.1h.12l0,.1h.12l0,.1h.12l0,.1h.13l0,.09h.12l0,.1h.12l0,.1h.12l0,.1h.12l0,.1h.12l0,.1H14l0,.1h.12l0,.09h.12l0,.1h.12l0,.1h.12l0,.1h.12l0,.1h.13l0,.1h.12l0,.1h.12l0,.09h.12l0,.1H15l0,.1h.12l0,.1h.13l0,.1h.12l0,.1h.12l0,.09h.12l0,.1h.12l0,.1h.12l0,.1h.13l0,.1h.12l0,.1H16l0,.1h.12l0,.09h.12l0,.1h.12l0,.1h.12l0,.1h.12l0,.1h.12l0,.1h.12l0,.1h.12l0,.09h.12l0,.1h.12l0,.1H17l0,.1h.12l0,.1h.12l0,.1h.12l0,.1h.12l0,.09h.12l0,.1h.12l0,.1h.12l0,.1h.12l0,.1h.12l0,.1H18l0,.1h.12l0,.09h.12l0,.1h.12l0,.1h.12l0,.1h.12l0,.1h.12l0,.1h.12l0,.1h.12l0,.09h.12l0,.1H19l0,.1h.12l0,.1h.12l0,.1h.12l0,.1h.12l0,.1h.12l0,.09h.12l0,.1h.12l0,.1h.12l0,.1h.12l0,.1H20l0,.1h.12l0,.09h.12l0,.1h.12l0,.1h.12l0,.1h.12l0,.1h.12l0,.1h.12l0,.1h.12l0,.09h.12l0,.1H21l0,.1h.12l0,.1h.12l0,.1h.12l0,.1h.12l0,.1h.12l0,.09h.13l0,.1h.12l0,.1h.12l0,.1h.12l0,.1H22l0,.1h.12l0,.1h.13l0,.09h.12l0,.1h.12l0,.1h.12l0,.1h.12l0,.1h.12l0,.1h.13l0,.1h.12l0,.09h.12l0,.1H23l0,.1h.12l0,.1h.12l0,.1h.13l0,.1h.12l0,.1h.12l0,.09h.12l0,.1h.12l0,.1h.12l0,.1h.13l0,.1H24l0,.1h.12l0,.09h.12l0,.1h.12l0,.1h.12l0,.1h.13l0,.1h.12l0,.1h.12l0,.1h.12l0,.09h.12l0,.1H25l0,.1h.13l0,.1h.12l0,.1h.12l0,.1h.12l0,.1h.12l0,.09h.12l0,.1h.13l0,.1h.12l0,.1h.12l0,.1H26l0,.1h.12l0,.1h.12l0,.09h.13l0,.1h.12l0,.1h.12l0,.1h.12l0,.1h.12l0,.1h.12l0,.1h.13l0,.09H27l0,.1h.12l0,.1h.12l0,.1h.12l0,.1h.12l0,.1h.13l0,.1h.12l0,.09h.12l0,.1h.12l0,.1h.12l0,.1H28l0,.1h.13l0,.1h.12l0,.1h.12l0,.09h.12l0,.1h.12l0,.1h.12l0,.1h.12l0,.1h.12l0,.1h.12l0,.09h.12l0,.1H29l0,.1h.12l0,.1h.12l0,.1h.12l0,.1h.12l0,.1H43.92L47,137.58h0l0,.1h.12l0,.1h.12l0,.09h.12l0,.1h.12l0,.1h.12l0,.1h.12l0,.1h.12l0,.1h.12l0,.1h.12l0,.09H48l0,.1h.12l0,.1h.12l0,.1h.12l0,.1h.12l0,.1h.12l0,.1h.12l0,.09h.12l0,.1h.12l0,.1h.12l0,.1H49l0,.1h.12l0,.1h.12l0,.1h.12l0,.09h.12l0,.1h.12l0,.1h.12l0,.1h.12l0,.1h.12l0,.1h.12l0,.1H50l0,.09h.12l0,.1h.12l0,.1h.12l0,.1h.12l0,.1h.12l0,.1h.12l0,.09h.12l0,.1h.12l0,.1h.12l0,.1h.12l0,.1H51l0,.1h.12l0,.1h27.6l1.79-7.73,0,0h0l.06.1h0l.06.1h0l.06.1h0l0,.1h0l0,.1h0l.05.1h0l.06.09h0l.06.1h0l.06.1h0l.05.1h0l0,.1h0l0,.1h0l.06.09h0l.06.1h0l.06.1h0l0,.1h.05l0,.1h0l0,.1h0l.06.1h0l.06.09h0l.06.1h0l0,.1h0l.05.1h0l0,.1h0l.06.1h0l.06.1h0l.06.09h0l0,.1h0l0,.1h.05l0,.1h0l.06.1h0l.06.1h0l.06.1h0l.05.09h0l0,.1h0l0,.1h0l.06.1h0l.06.1h0l.06.1h0l0,.1h.05l0,.09h0l0,.1h0l.06.1h0l.06.1h0l.06.1h0l0,.1h0l.05.1h0l0,.09h0l.06.1h0l.06.1h0l.06.1h0l0,.1h0l0,.1h.05l0,.1h0l.06.09h0l.06.1h0l.06.1h0l0,.1h0l0,.1h0l.05.1h0l.06.09h0l.06.1h0l.06.1h0l0,.1h.05l0,.1h0l0,.1h0l.06.1h11.4l.57-2.42h0l0,.09h.12l0,.1h.12l0,.1h.12l0,.1h.12l0,.1h.12l0,.1h.12l0,.1h.12l0,.09h.12l0,.1H100l0,.1h.12l0,.1h.13l0,.1h.12l0,.1h.12l0,.1h.12l0,.09h.12l0,.1h.12l0,.1h.13l0,.1h.12l0,.1H101l0,.1h.12l0,.1h.12l0,.09h.12l0,.1h.13l0,.1h.12l0,.1h.12l0,.1h.12l0,.1h12.6l27.48-6.12.24-1.05h0l0,.09h.12l0,.1h.12l0,.1h.12l0,.1h.12l0,.1h.13l0,.1h.12l0,.09h.12l0,.1h.12l0,.1h.12l0,.1H143l0,.1h.13l0,.1h.12l0,.1h.12l0,.09h.12l0,.1h.12l0,.1h.12l0,.1h.13l0,.1h.12l0,.1h.12l0,.1H144l0,.09h.12l0,.1h.12l0,.1h.13l0,.1h.12l0,.1h.12l0,.1h.12l0,.1h.12l0,.09h.12l0,.1h.13l0,.1H145l0,.1h.12l0,.1h.12l0,.1h.12l0,.1h.12l0,.09h.13l0,.1h.12l0,.1h.12l0,.1h.12l0,.1h.12l0,.1h.12l0,.1H146l0,.09h.12l0,.1h.12l0,.1h.12l0,.1h.12l0,.1h.12l0,.1h.13l0,.1h.12l0,.09h.12l0,.1h.12l0,.1H147l0,.1h.12l0,.1h.13l0,.1h.12l0,.1h.12l0,.09h.12l0,.1h.12l0,.1h.12l0,.1h.12l0,.1h.12l0,.1H148l0,.09h.12l0,.1h.12l0,.1h.12l0,.1h.12l0,.1h.12l0,.1h.12l0,.1h.12l0,.09h.12l0,.1h.12l0,.1H149l0,.1h.12l0,.1h.12l0,.1H260.52l1.64-7.13h0l0,.1h.12l0,.1h.13l0,.1h.12l0,.1h.12l0,.09h.12l0,.1h.12l0,.1h.12l0,.1H263l0,.1h.12l0,.1h.12l0,.1h.12l0,.09h.12l0,.1h.12l0,.1h.12l0,.1h.12l0,.1h.12l0,.1h.12l0,.1h.12l0,.09H264l0,.1h.12l0,.1h.12l0,.1h.12l0,.1h.12l0,.1h.12l0,.09h.12l0,.1h.12l0,.1h.12l0,.1h.12l0,.1H265l0,.1h.12l0,.1h.12l0,.09h.12l0,.1h.12l0,.1h.12l0,.1h.12l0,.1h.12l0,.1h.13l0,.1h.12l0,.09H266l0,.1h.12l0,.1h.12l0,.1h.12l0,.1h.13l0,.1h.12l0,.1h.12l0,.09h.12l0,.1h.12l0,.1h.12l0,.1H267l0,.1h.12l0,.1h.12l0,.1h.12l0,.09h.12l0,.1h.12l0,.1h.13l0,.1h.12l0,.1h.12l0,.1h.12l0,.1H268l0,.09h.12l0,.1h.13l0,.1h.12l0,.1h.12l0,.1h.12l0,.1h33.72l.26-1.17h0l0,.1h.12l0,.1h.12l0,.1h.12l0,.1h.12l0,.09h.12l0,.1H303l0,.1h.12l0,.1h.12l0,.1h.12l0,.1h.12l0,.09h.12l0,.1h.12l0,.1h.12l0,.1h.13l0,.1h.12l0,.1H304l0,.1h.12l0,.09h.12l0,.1h.12l0,.1h.13l0,.1h.12l0,.1h.12l0,.1h.12l0,.1h41l.83-3.67h.07l0,.1h.12l0,.1h.12l0,.1h.12l0,.1H347l0,.1h.12l0,.09h.12l0,.1h.12l0,.1h.12l0,.1h.12l0,.1h.12l0,.1h.12l0,.1h.12l0,.09h.12l0,.1H348l0,.1h.12l0,.1h.12l0,.1h.12l0,.1h.12l0,.1h.12l0,.09h.12l0,.1h.12l0,.1h.12l0,.1h.12l0,.1H349l0,.1h32.52l3.84-16.32-.1-.08v0l-.1-.08v0l-.1-.08v0l-.1-.08v0l-.11-.08v0l-.11-.08h0l-.1-.09h0l-.1-.08v0l-.1-.08v0l-.1-.08v0l-.11-.08v0l-.11-.08v0l-.1-.08h0l-.1-.09h0l-.1-.08v0l-.1-.08v0l-.11-.08v0l-.11-.08v0l-.1-.08v0l-.1-.08h0l-.1-.08v0l-.1-.08v0l-.11-.08v0l-.11-.08v0l-.1-.08v0l-.1-.08v0l-.1-.08h0l-.1-.08v0l-.11-.08v0l-.11-.08v0l-.1-.08v0l-.1-.08v0l-.1-.08v0l-.1-.08h0l-.11-.08v0l-.1-.08v0l-.1-.08v0l-.1-.08v0l-.1-.08v0l-.1-.08v0l-.11-.08h0l-.1-.08v0l-.1-.08v0l-.1-.08v0l-.1-.08v0l-.1-.08v0l-.11-.08v0l-.1-.08h0l-.1-.08v0l-.1-.08v0l-.1-.08v0l-.1-.08v0l-.11-.08v0l-.1-.08h0l-.1-.09h0l-.1-.08v0l-.1-.08v0l-.1-.08v0l-.11-.08v0l-.1-.08v0l-.1-.08h0l-.1-.09h0l-.1-.08v0l-.1-.08v0l-.11-.08v0l-.1-.08v0l-.1-.08v0l-.1-.08h0l-.1-.08v0l-.1-.08v0l-.11-.08v0l-.1-.08v0l-.1-.08v0l-.1-.08v0l-.1-.08h0l-.1-.08v0l-.11-.08v0l-.1-.08v0l-.1-.08v0l-.1-.08v0l0,0h8.87L391,95.5h-.12l0-.1h-.12l0-.1h-.12l0-.1h-.12l0-.1h-.13l0-.1h-.12l0-.1h-.12l0-.09h-.12l0-.1h-.12l0-.1H390l0-.1h-.13l0-.1h-.12l0-.1h-.12l0-.1h-.12l0-.09h-.12l0-.1h-.12l0-.1h-.13l0-.1h-.12l0-.1h-.12l0-.1H389l0-.09h-.12l0-.1h-.12l0-.1h-.13l0-.1h-.12l0-.1h-.12v0h4.27l5.4-23.28H398l0-.1h-.12l0-.1h-.12l0-.1h-.12l0-.1h-.13l0-.1h-.12l0-.1h-.12l0-.09h-.12l0-.1h-.12l0-.1h-.12l0-.1h-.13l0-.1H397l0-.1h-.12l0-.09h-.12l0-.1h-.12l0-.1h-.12l0-.1h-.13l0-.1h-.12l0-.1h-.12l0-.1h-.12l0-.09h-.12l0-.1H396l0-.1h-.13l0-.1h-.12l0-.1h-.12l0-.1h-.12l0-.1h-.12l0-.09h-.12l0-.1h-.13l0-.1h-.12l0-.1h0l3.58-5.44Z"/><path class="cls-2" d="M74.52,88.2l-5.4,23H57.72L52,100.92l-2.64,11.4H21.72l2.52-11-9.72,10H0L5.4,87.72l13.44-9H7.32l5.16-22.08H36.12L37,53.16H59.4l-.84,3.48H81.72l-5,22.08H65.4Zm-54-62H40.44L34,54.48H20.4l-4.8-6.36ZM136.2,1.8l-6.36,27.84-37.2,10.2H88.8l5.4-23.52-9.48,7.44H20L25.2,1.2h73l-1.8,7.92L122.52,1.8ZM43.32,26.16h22.2l-5.64,24.6H37.68Zm31.8,28.32H61.68l6.48-28.32H88.32L83.4,47.4Zm41.52,17.16h3.48l-7.8,33.72-27.48,6.12H72.24l6.84-29.64ZM125.76,34h3.12l-7.8,33.24L83.52,77.52H80l7.68-33.24Z"/><path class="cls-2" d="M229.8,29.28l-1,4.56H249L231.12,111.6H119.76l18-77.76H159.6l1-4.56H139.68l6.48-28H256l-6.48,28Zm-13.68,28.2h-7.68l-1.92,8.28h5l-4.32,18.6H188.88L184.56,79l4.92-21.48h-3.36L181.2,79,176,84.36H156.6l4.32-18.6h3.84l1.92-8.28h-6.84l-7,29.76h56.4ZM199.8,29.28H189.48l-1.08,4.56h10.44Z"/><path class="cls-2" d="M277.68,89.28l-4.92,21.6H239l3.72-16,7.92-5.64ZM250.32,66H361.56l-4.68,20.64h-34.8l-5.76,25.44h-41l5.88-25.44H245.64Zm119-34.08-5.52,8.4h4.92l-5.4,23.28h-37l-3.6-6.36-1.44,6.36H292.2l1.56-6.84-6.6,6.84H250.32l4.92-21.24h20l2.28-2.28H271.2l3.12-13.44h10.92l-1.8,7.56,3-3,1.68-6.84H259.44L263.28,7.8,272.64,0h21l-.84,3.72h25.92l-8.4,36.12-5.64,5.76h11.64l-3.24-5.76L322,1.68h54.36ZM259,40.08,257,35.88l2.16-9.24h12.72L268.8,40.08Zm90.24,49.2,6.72,5.28-3.84,16.32H319.56l5-21.6ZM337.44,25.92l3.72,7.44,5.4-7.92.12-1H337.8Z"/></g></g></svg>