<svg xmlns="http://www.w3.org/2000/svg" viewBox="0 0 245.18 84.2"><defs><style>.cls-1{fill:#231815;}</style></defs><g id="レイヤー_2" data-name="レイヤー 2"><g id="レイヤー_1-2" data-name="レイヤー 1"><path class="cls-1" d="M7.89,6.82H0V5.89H3.4V4.68H.65v-.9H3.4V2.63H.34V1.71H3.4V.07H4.52V1.71H7.69v.92H4.52V3.78H7.36v.9H4.52V5.89H7.89ZM7,15.25c0,.56-.13.88-.53,1a6.41,6.41,0,0,1-2.17.18,4.42,4.42,0,0,0-.36-1c.81,0,1.49,0,1.71,0s.27-.07.27-.27V13.36H2.14v3.11H1.06V7.94H7ZM2.14,8.88v1.33H5.91V8.88Zm3.77,3.6V11.09H2.14v1.39ZM16.55,9H15.41V12.8h-1.1v-.72H12.1v3c0,.67-.14,1-.61,1.21A8.83,8.83,0,0,1,9,16.47a4,4,0,0,0-.4-1.09c1,0,1.77,0,2,0s.34-.07.34-.34v-3H8.41v-1H11V9H7.62v-1H11V5.89H8.52v-.7l-.22.23a4.67,4.67,0,0,0-.88-.7,13,13,0,0,0,3-4.65l1.06.27c-.18.47-.38.94-.61,1.41h2.68l.2-.06.72.49a16.11,16.11,0,0,1-1.67,2.68h2.64V7.94h1.14ZM10.32,2.72A13.86,13.86,0,0,1,8.8,4.86h2.76A14.53,14.53,0,0,0,13,2.72ZM12.1,7.94h2.21V5.89H12.1Zm2.21,1H12.1v2.1h2.21Z"/><path class="cls-1" d="M34.65,15c0,.76-.19,1.12-.7,1.31a8.88,8.88,0,0,1-2.86.2,3.79,3.79,0,0,0-.41-1.08c1.09,0,2.1,0,2.37,0s.43-.09.43-.43V2.18H21.08V16.47H19.93V1H34.65Zm-4.33-.77v-1H24.09v1.26H23V8.41h1.05v3.76h2.53V7H22V6H32.73V7h-5v5.18h2.62V8.41h1.06v5.8Zm-6-11.62a8.08,8.08,0,0,1,1.44,2.83l-1,.36A8.94,8.94,0,0,0,23.35,3Zm6.9.25a30.84,30.84,0,0,1-1.66,3l-.92-.3A17,17,0,0,0,30,2.5Z"/><path class="cls-1" d="M43.56,12.64a18,18,0,0,1-4.34,3.6c-.25-.23-.66-.61-.93-.81a14.45,14.45,0,0,0,4.05-3.24Zm10.71-2.31v1.09H46.91v5H45.69v-5H40.52v.5H39.33V1.66h1.19v8.67Zm-2.1-1.4H42.45V.77h9.72ZM51,1.67H43.58V3.19H51Zm0,2.38H43.58V5.62H51Zm0,2.43H43.58V8H51Zm-1,5.67a39.34,39.34,0,0,1,4.27,3.35l-1,.76A38.61,38.61,0,0,0,49,12.78Z"/><path class="cls-1" d="M73.37,14.51v1.17h-16V14.51H66.5A65,65,0,0,0,69,5.71L70.35,6a84.62,84.62,0,0,1-2.61,8.53Zm-.5-9.67H58V3.69h6.73V.09h1.21v3.6h7ZM62.1,13.56a27.38,27.38,0,0,0-1.69-7.44l1.12-.29a27.22,27.22,0,0,1,1.76,7.44Z"/><path class="cls-1" d="M79.47,7.89a15.22,15.22,0,0,0-3.31-1.95l.65-.88A14.07,14.07,0,0,1,80.12,6.9Zm1,2.52c-.85,1.91-2,4.16-2.89,5.83l-1-.76a55.35,55.35,0,0,0,3-5.88l.93.72,0,0h1.89V1.67l.92.26a47.27,47.27,0,0,0,7-1.62l1,.93a54.76,54.76,0,0,1-7.69,1.68V5.11h8.7V6.25H89.7v4.12h3v1.14H80.52Zm-.19-7.24A14.48,14.48,0,0,0,77.09,1.1l.69-.85a14,14,0,0,1,3.26,2Zm4.87,9.56a19.26,19.26,0,0,1-4,3.78,10.84,10.84,0,0,0-1-.81A13.84,13.84,0,0,0,84,12.32Zm-1.59-2.36h4.9V6.25h-4.9Zm5.37,2a24.31,24.31,0,0,1,3.81,3.46l-1,.68A24.2,24.2,0,0,0,88,12.91Z"/><path class="cls-1" d="M101.11,10.79c-.33-.58-1.1-1.75-1.73-2.63v8.28H98.23V7.65a19.74,19.74,0,0,1-2.52,5.42A6.16,6.16,0,0,0,95.06,12a19.62,19.62,0,0,0,3-6.95H95.49V4h2.74V.07h1.15V4h2.38v1.1H99.38V6.75c.56.65,2.11,2.59,2.48,3.1Zm7.67-.46a32.31,32.31,0,0,1,3.1,5.6l-1.1.58c-.15-.39-.33-.85-.56-1.33l-8.68.57-.2-1.2,1.84-.09A55.48,55.48,0,0,0,105.66,7l1.35.36c-.72,2.22-1.72,5-2.61,7,1.6-.09,3.44-.19,5.28-.32a29.47,29.47,0,0,0-1.93-3.24ZM105.61.67a18.81,18.81,0,0,1-3.21,7.25,6.26,6.26,0,0,0-1-.75,15.07,15.07,0,0,0,3-6.74Zm3.2-.27a20.86,20.86,0,0,0,3.07,6.51,5,5,0,0,0-1,1A26.81,26.81,0,0,1,107.73.72Z"/><path class="cls-1" d="M124.94,2.43V5.15h4.75V16.33h-1.18v-1H116.64V16.4h-1.15V5.15h4.3V2.43H114.7V1.3h15.66V2.43Zm3.57,11.74V9.36c-.17,1.37-.49,1.71-1.39,1.71H125.3c-1.26,0-1.55-.3-1.55-1.49V6.27H121v1a5.18,5.18,0,0,1-3.26,4.93,3.58,3.58,0,0,0-.81-.79c2.47-1.21,2.94-2.79,2.94-4.16v-1h-3.19v7.9ZM123.75,2.43H121V5.15h2.79Zm4.76,3.84h-3.62V9.56c0,.4.07.47.56.47H127c.41,0,.48-.18.52-1.48a2.88,2.88,0,0,0,1,.43Z"/><path class="cls-1" d="M149.37,1.82V2.88H133.85V1.82h7.07V.07h1.19V1.82ZM148.67,15c0,.68-.17,1.06-.71,1.26a12.42,12.42,0,0,1-3.06.18,4.59,4.59,0,0,0-.37-1.12c1.22,0,2.25,0,2.57,0s.38-.11.38-.36V9.81H135.83v6.66h-1.17V8.77h14ZM146.43,3.94V7.58h-9.61V3.94Zm-1.2.9H138V6.68h7.26Zm-5.94,9.94v.92h-1.08V11H145v3.76Zm0-2.86v2H144v-2Z"/><path class="cls-1" d="M155.07,2.65a13.81,13.81,0,0,1-1.69,2.27,7.19,7.19,0,0,0-1-.69A11.82,11.82,0,0,0,155.09,0l1.12.29c-.17.45-.37.9-.58,1.33h4.84v1h-3.4a8.17,8.17,0,0,1,.67,1.69l-1.07.38a9.58,9.58,0,0,0-.77-2.07Zm9.85,6.59v1.67h3.42V12h-3.42v3c0,.75-.16,1.06-.74,1.26a12.88,12.88,0,0,1-3.08.19,4.37,4.37,0,0,0-.45-1.13c1.28,0,2.33,0,2.67,0s.39-.09.39-.34V12H153.16V10.91h10.55V9.24H152.59V8.19H160V6.46h-5.69v-1H160V4.3c-.22-.16-.45-.28-.59-.37A9.07,9.07,0,0,0,162.06,0l1.13.29c-.16.45-.36.88-.57,1.33h6v1h-4a7.92,7.92,0,0,1,1,1.73l-1,.45a9.59,9.59,0,0,0-1.3-2.18H162a11.07,11.07,0,0,1-1.15,1.49h.37v1.3h5.86v1h-5.86V8.19h7.55V9.24Zm-8.28,2.84a12.47,12.47,0,0,1,3.13,2.68l-.92.76a12.44,12.44,0,0,0-3.08-2.77Z"/><path class="cls-1" d="M187.67,11.31h-7.33V15c0,.75-.17,1.12-.82,1.29a14.05,14.05,0,0,1-3.28.2,6.36,6.36,0,0,0-.5-1.15c1.4.05,2.61.05,2.95,0s.47-.11.47-.36V11.31h-7.28V10.19h7.28V8.86h.63a16.94,16.94,0,0,0,2.75-1.68h-7.69V6.1h8.92l.25,0,.77.56a15.94,15.94,0,0,1-4.45,3v.56h7.33ZM173.39,7h-1.13V3.08h2.81A13.12,13.12,0,0,0,173.5.77l1-.46a11.37,11.37,0,0,1,1.75,2.48l-.56.29h3.8A11.54,11.54,0,0,0,178.11.4l1-.4a11.46,11.46,0,0,1,1.47,2.79l-.73.29h3.26a19.07,19.07,0,0,0,2-2.88l1.23.43c-.58.83-1.26,1.71-1.89,2.45h2.86V7h-1.15V4.16H173.39Z"/><path class="cls-1" d="M196.29,10.75a32.65,32.65,0,0,0-1.67-2.81v8.5H193.5V7.71a20.43,20.43,0,0,1-2.39,5.34,6,6,0,0,0-.65-1,20.33,20.33,0,0,0,2.9-6.95H190.8V4h2.7V.07h1.12V4h2.23v1.1h-2.23V6.52c.54.66,2,2.77,2.36,3.29Zm8.55-2.86a14,14,0,0,1-2.25,4.46,11.29,11.29,0,0,0,4.56,3.12,5.3,5.3,0,0,0-.85,1,12.07,12.07,0,0,1-4.46-3.26,12.77,12.77,0,0,1-4.9,3.28,5.32,5.32,0,0,0-.63-.94,12.2,12.2,0,0,0,4.81-3.22A16.22,16.22,0,0,1,198.81,8l1.05-.3a14,14,0,0,0,2,3.74,11.85,11.85,0,0,0,1.78-3.83Zm-4.34-3A14,14,0,0,1,197.44,9a4.6,4.6,0,0,0-.84-.72,11.09,11.09,0,0,0,2.81-3.78Zm6.29-1.05H197V2.75h4.29V.07h1.17V2.75h4.34Zm-2.7.56a18.76,18.76,0,0,1,3,3.84l-1,.59a18.46,18.46,0,0,0-3-3.91Z"/><path class="cls-1" d="M215.35,10.75a32.65,32.65,0,0,0-1.67-2.81v8.5h-1.12V7.71a20.1,20.1,0,0,1-2.39,5.34,5.45,5.45,0,0,0-.65-1,20.33,20.33,0,0,0,2.9-6.95h-2.56V4h2.7V.07h1.12V4h2.23v1.1h-2.23V6.52c.54.66,2,2.77,2.36,3.29Zm8.56-2.86a14.41,14.41,0,0,1-2.25,4.46,11.32,11.32,0,0,0,4.55,3.12,5.3,5.3,0,0,0-.85,1,12.15,12.15,0,0,1-4.46-3.26,12.77,12.77,0,0,1-4.9,3.28,4.83,4.83,0,0,0-.63-.94,12.13,12.13,0,0,0,4.81-3.22A16.5,16.5,0,0,1,217.87,8l1-.3a14.31,14.31,0,0,0,2,3.74,11.65,11.65,0,0,0,1.78-3.83Zm-4.34-3A14.33,14.33,0,0,1,216.51,9a4.68,4.68,0,0,0-.85-.72,11.09,11.09,0,0,0,2.81-3.78Zm6.28-1.05h-9.79V2.75h4.28V.07h1.17V2.75h4.34Zm-2.7.56a18.42,18.42,0,0,1,3,3.84l-1,.59a18.46,18.46,0,0,0-3-3.91Z"/><path class="cls-1" d="M244.07,10.64a30.51,30.51,0,0,1-4.18,2.52,12.2,12.2,0,0,0,5.29,2.31,5.78,5.78,0,0,0-.75,1.06A11.45,11.45,0,0,1,236,9.76h-2.65v4.93c1.54-.25,3.23-.56,4.88-.84l0,1.06c-2.86.52-6,1.08-8.12,1.44l-.3-1.1c.66-.09,1.44-.22,2.3-.36V9.76h-3.17V8.68h3.17V.81h11.07v1h-9.85v1.6h9.3v1h-9.3V6h9.3V7h-9.3V8.68h11.58V9.76h-7.72a9.87,9.87,0,0,0,2,2.74A31.91,31.91,0,0,0,243.09,10Z"/><path class="cls-1" d="M95.05,70.18c-.43.24-.43.38-.48.82a78.19,78.19,0,0,1-1.63,9.64c-.1.44-.34.92-.86.92s-2.4-.53-2.4-1.2c0-.24.24-1,.28-1.25a90,90,0,0,0,1.64-9.46c0-.48,0-.91.62-.91.34,0,3.22.38,3.22,1C95.44,70,95.24,70.13,95.05,70.18ZM96,42c.15-.58.24-.72.48-.72s4.13,1.34,4.13,2.16c0,.39-.33.43-.72.53a.87.87,0,0,0-.62.48c-1.2,2.78-1.88,4.37-3.27,7.1a.7.7,0,0,0-.09.44.94.94,0,0,0,.28.62,2.72,2.72,0,0,0,.34.34.91.91,0,0,0,.67.33c.43,0,.58-.24.77-.53.72-1.48,1.44-3,2-4.51.14-.33.29-.86.72-.86a15,15,0,0,1,2.59,1.15c.72.38,1.49.67,1.49,1.1s-.1.44-.58.48a1.14,1.14,0,0,0-.91.58,88.68,88.68,0,0,1-5.86,10.22.72.72,0,0,0-.14.44c0,.43.33.52.72.52l2.06-.28a1,1,0,0,0,1-.92,1.74,1.74,0,0,0-.09-.43,14.53,14.53,0,0,1-.53-1.63c0-.86,2.06-1.34,2.35-1.34.87,0,1.06.91,1.83,3.21.23.77,1.58,5,1.58,5.57,0,.72-2.16,1.25-2.59,1.25-.63,0-.77-.72-.92-1.2a.84.84,0,0,0-1-.72c-.15.05-.29.05-.43.09-.92.24-1.21.58-1.21,1.54v9.46c0,2.06.1,4.08.1,6.14,0,1.44-.34,1.54-2,1.54s-2-.05-2-1.49c0-2.06.09-4.13.09-6.19V67.59c0-.87-.38-1.25-1.24-1.16l-2.26.29c-.29.1-.34.2-.48.48s-.24.53-.58.53c-.52,0-.67-.72-1-2-.14-.76-.57-2.3-.57-2.68,0-.58.57-.53,1.39-.58a1.69,1.69,0,0,0,1.58-1c.58-.91,1.11-1.87,1.68-2.78a1.82,1.82,0,0,0,.29-.92,1.5,1.5,0,0,0-.57-1.1c-1.2-1.25-2.5-2.45-3.84-3.6a1,1,0,0,1-.58-.86c0-.58.82-3.27,1.82-3.27a.66.66,0,0,1,.48.24.81.81,0,0,0,.48.15.58.58,0,0,0,.53-.39A67.29,67.29,0,0,0,96,42Zm7.68,36.29c-.72,0-.86-.62-1-1.2a45.28,45.28,0,0,0-1.58-6.91,3.94,3.94,0,0,1-.19-.82c0-.72,2-1,2.49-1,.67,0,.82.77,1.44,2.88.24.86,1.35,5,1.35,5.71S104.17,78.29,103.69,78.29Zm7.92-22.37c1,0,1.35-.24,1.78-1.2.43-1.34.86-2.73,1.25-4.13.09-.33.19-.72.62-.72a16,16,0,0,1,2.74.87c.72.24,1.39.48,1.39.91s-.19.43-.48.48-.62.1-.82.48c-.28.72-.52,1.39-.81,2.11a1.13,1.13,0,0,0-.1.43c0,.58.43.72.91.77h1.73c.87,0,1.25-.33,1.35-1.25,0-3.64,0-7.34,0-11,0-.58-.05-1.15-.05-1.58,0-.68.34-.82,1-.82s2.93.19,3.65.29,1.1.1,1.1.67-.38.58-.67.72c-.48.24-.53.53-.53,1.54V54.67c0,.92.43,1.25,1.35,1.25h.19c1.73,0,3.46-.09,5.18-.09,1.16,0,1.06.62,1.06,2s0,2-1.06,2c-1.72,0-3.45-.1-5.18-.1H127c-1,0-1.29.39-1.34,1.3.1,1.58.15,3.17.29,4.75,0,.2.09.43.33.43a.43.43,0,0,0,.39-.23,39.11,39.11,0,0,0,2.11-4.61c.1-.24.29-.53.58-.53.81,0,2.88,1.53,3.6,2a.85.85,0,0,1,.48.72c0,.39-.34.53-.67.63-.58.19-.63.38-1,1a57.31,57.31,0,0,1-4.28,7.44,2.29,2.29,0,0,0-.53,1.45,3.1,3.1,0,0,0,.1.67c.14.72,1.06,4,1.92,4s1-2.54,1-3.17c.14-2,.1-2.59,1.1-2.59.82,0,2.69.34,2.69,1.87,0,3-1.25,9.27-5.09,9.27-2.49,0-4.17-2.84-4.94-4.9-.14-.29-.29-.58-.67-.58a1,1,0,0,0-.63.29c-.81.91-4.61,4.85-5.61,4.85s-2.74-2-2.74-2.74c0-.38.43-.76,1.25-1.39.43-.38,1-.81,1.68-1.44a.44.44,0,0,0,.14-.33c0-.29-.29-.39-.53-.44-.67,0-1.34,0-2.06,0h-2.06c-1,0-1.3.38-1.3,1.34s-.14,1.06-2.11,1.06H109c-1.68,0-1.72,0-1.63-2,0-.43,0-1,0-1.68V66.43c0-.81,0-1.58,0-2.4,0-1.24.48-1.82,1.73-1.82.82,0,1.63,0,2.45,0h3.07c.82,0,1.63,0,2.45,0,1.29,0,1.77.58,1.77,1.82,0,.82,0,1.59,0,2.4v7c0,.76,0,1.53,0,2.25,0,.24.1.43.34.43s.14-.09.24-.09c.72-.77,1.39-1.59,2.06-2.4a2.26,2.26,0,0,0,.58-1.54v-.48c-.58-4.13-.58-6.53-.82-10.61,0-.91-.43-1.25-1.34-1.25h-8.69c-1.73,0-3.45.1-5.18.1-1.16,0-1.11-.58-1.11-2s0-2,1.11-2c1.73,0,3.45.09,5.18.09ZM119.2,45.5c.91,0,.86.53.86,2s0,2-.86,2c-1.25,0-2.45-.1-3.7-.1h-5.18c-1.25,0-2.45.1-3.7.1-.91,0-.86-.58-.86-2s-.05-2,.86-2c.19,0,2.4.1,2.74.1.91-.05,1.15-.48,1.2-1.3a10.47,10.47,0,0,0-.15-2.16v-.38c0-.53.48-.58.87-.58.72,0,2.93.2,3.74.29.43.05,1.25.05,1.25.58,0,.29-.29.38-.62.62-.53.34-.58.82-.53,1.73a1,1,0,0,0,1.2,1.2C117.28,45.65,118.24,45.5,119.2,45.5ZM108.49,55.59c-.52,0-.57-.29-1-1.49l-.87-2.31a1.41,1.41,0,0,1-.19-.62c0-.82,2.26-1.3,2.69-1.3.62,0,.77.44,1.39,2a12.08,12.08,0,0,1,.72,2.35C111.23,55,109.17,55.59,108.49,55.59Zm6.82,11.23a1.07,1.07,0,0,0-1.1-1.15h-1.88a1.11,1.11,0,0,0-1.15,1.15v.53a1.11,1.11,0,0,0,1.15,1.15h1.88a1.07,1.07,0,0,0,1.1-1.15Zm-3,4.37a1.08,1.08,0,0,0-1.15,1.15v.72a1.11,1.11,0,0,0,1.15,1.15h1.88a1.07,1.07,0,0,0,1.1-1.15v-.72a1,1,0,0,0-1.1-1.15Zm17.77-18.1c-.58,0-.68-.53-.87-1a36.64,36.64,0,0,0-2.45-5.86,2,2,0,0,1-.28-.72c0-.76,2.11-1.58,2.73-1.58a.9.9,0,0,1,.77.48,22.54,22.54,0,0,1,1.54,3A22.13,22.13,0,0,1,133,51.55C133,52.56,130.48,53.09,130.1,53.09Z"/><path class="cls-1" d="M174.06,81.41a1,1,0,0,0-1.1-1.1h-24.1c-.77,0-1.1.33-1.1,1.1,0,1.63-.29,1.63-2.69,1.63-2.07,0-2.59,0-2.59-1.34,0-2,.14-4,.14-6V51.12c0-1.54-.1-3-.1-4.56,0-2,.82-2.5,2.69-2.5,1.49,0,3,.1,4.56.1H172c1.54,0,3.07-.1,4.56-.1,1.87,0,2.74.53,2.74,2.5,0,1.54-.1,3-.1,4.56V75.75c0,2,.1,4,.1,6,0,1.39-.53,1.39-2.6,1.39s-2.64,0-2.64-1.39Zm-15.74-31.2a1.26,1.26,0,0,0-1.3-1.34H149a1.37,1.37,0,0,0-1.35,1.34v8.3c.1.87.53,1.35,1.35,1.35H157c.82-.1,1.3-.48,1.3-1.35Zm0,15.46a1.28,1.28,0,0,0-1.3-1.35H149a1.38,1.38,0,0,0-1.35,1.35v8.64A1.38,1.38,0,0,0,149,75.65H157a1.27,1.27,0,0,0,1.3-1.34Zm14.54-5.81c.82-.1,1.3-.48,1.3-1.35v-8.3a1.26,1.26,0,0,0-1.3-1.34h-8.21a1.37,1.37,0,0,0-1.34,1.34v8.3c.1.87.53,1.35,1.34,1.35Zm-9.55,14.45a1.37,1.37,0,0,0,1.34,1.34h8.21a1.27,1.27,0,0,0,1.3-1.34V65.67a1.28,1.28,0,0,0-1.3-1.35h-8.21a1.38,1.38,0,0,0-1.34,1.35Z"/><path class="cls-1" d="M214.29,70.56c1.72-.24,7-.91,7.44-.91.91,0,.91,1.3.91,2,0,1.2-.15,1.68-.91,1.82-1.73.39-5,.72-6.82.92-.91.19-1.25.57-1.25,1.48v.92c0,.91.1,1.87.1,2.83,0,4-3.75,4.61-7,4.61-1.2,0-3,.09-3-3.32,0-.67.15-1.39,1-1.39.53,0,1.49.15,2.3.15,2.12,0,2-.72,2-3v-.29c0-.86-.34-1.24-1.25-1.24s-1.82.14-2.45.19c-2.25.19-2.44.24-2.78.81a.83.83,0,0,1-.62.44c-.44,0-.68-.53-.77-1-.15-.63-.82-3-.82-3.41,0-.67.67-.67,1-.67,2.16,0,4.27-.24,6.43-.34.91-.14,1.2-.48,1.25-1.39a4.59,4.59,0,0,0-.1-1.16v-.33c0-.48.29-.58.72-.58.2,0,.58,0,.82,0h.29a1.72,1.72,0,0,0,1-.24c.33-.19,1.87-1,1.87-1.39s-.58-.34-1-.34h-5.9c-1.25,0-2.55.1-3.6.1s-1.06-.58-1.06-1.83,0-2,1-2,2.45.09,3.65.09h8.69c1,0,2.06,0,3.12,0,1.77,0,2.83,2.3,2.83,2.83,0,1.2-6.15,4.22-7.35,4.85a1,1,0,0,0-.38.43A.52.52,0,0,0,214.29,70.56Zm3.07-25.25c1.39,0,2.78-.09,4.17-.09,1,0,1,.48,1,2s0,2-1,2c-1.39,0-2.78-.09-4.17-.09H206.12c-1.39,0-2.78.09-4.17.09-1,0-1-.48-1-2s0-2,1-2c1.39,0,2.78.09,4.17.09H208c.92,0,1.3-.33,1.35-1.25a13.19,13.19,0,0,0-.14-1.87v-.43c0-.58.38-.67.81-.67s3.79.29,4.37.38c.38,0,.86.1.86.58s-.38.53-.72.72a1.28,1.28,0,0,0-.62,1.29c0,.92.43,1.25,1.34,1.25ZM220,56.55c0,.76.05,1.29.05,1.92,0,1.39-.63,1.87-2,1.87-.91,0-1.83-.1-2.74-.1H208c-.91,0-1.83.1-2.74.1-1.29,0-2-.43-2-1.83,0-.67.09-1.29.09-2V54.63c0-.63-.09-1.3-.09-1.92,0-1.35.67-1.83,2-1.83.92,0,1.88,0,2.79,0h7.39c.91,0,1.83,0,2.74,0,1.25,0,2,.43,2,1.78,0,.67-.05,1.34-.05,2Zm-5.47.28a1,1,0,0,0,1.15-1.1v-.34a1.06,1.06,0,0,0-1.15-1.15h-5.77a1.06,1.06,0,0,0-1.15,1.15v.34a1,1,0,0,0,1.15,1.1Zm24.91-1.34c.38.1,1.1.19,1.1.72,0,.24-.19.38-.43.48-.72.38-.82.48-.91,1.3a36.91,36.91,0,0,1-4.61,12.33,1.94,1.94,0,0,0-.29,1,1.57,1.57,0,0,0,.39,1,37.65,37.65,0,0,0,8.4,7.49c.29.19.72.48.72.86,0,.91-1.92,3.17-2.83,3.17-1.2,0-7.88-6.53-8.93-7.78a1.08,1.08,0,0,0-.82-.43,1.22,1.22,0,0,0-.81.39A40.89,40.89,0,0,1,222,83.28a3.75,3.75,0,0,1-1.44.72c-.82,0-2.74-2.59-2.74-3.26,0-.34.43-.58,1-.91A36.55,36.55,0,0,0,227.87,72a1.84,1.84,0,0,0,.43-1.1,2.1,2.1,0,0,0-.24-1,33.94,33.94,0,0,1-2.93-8.21c-.09-.29-.28-.34-.33-.34a.45.45,0,0,0-.39.24c-.28.58-.86,1.88-1.58,1.88s-3-1.64-3-2.4a4.28,4.28,0,0,1,.53-1.16c2.16-3.84,5.62-13.58,6.24-18,0-.38.15-.86.67-.86s2.74.72,3.27.86c.86.24,1.77.38,1.77.91,0,.34-.43.48-.67.63-.53.09-.72.43-1.53,3.31a32.25,32.25,0,0,0-.92,3.22c0,.62.48.81,1,.81h6.68c1.77,0,3.5-.09,5.28-.09,1.2,0,1.15.52,1.15,2.3s.05,2.35-1.15,2.35c-.91,0-1.78,0-2.69,0C239.34,55.39,239.34,55.44,239.44,55.49Zm-8.21,10.75a.69.69,0,0,0,.58-.38,28.45,28.45,0,0,0,2.93-9.27v-.24c0-.76-.53-1-1.2-1H229c-.62,0-1.15.24-1.15,1v.28a36.25,36.25,0,0,0,2.74,9.22A.72.72,0,0,0,231.23,66.24Z"/></g></g></svg>