<svg width="238" height="49" viewBox="0 0 238 49" fill="none" xmlns="http://www.w3.org/2000/svg">
<path d="M60.5313 1.125H45.1407L30.2188 36.2812L13.2657 1.125H0.140666V3.23437H6.39066V45.8906L0.140666 45.8906V48L15.9219 48C15.6094 46.6979 14.9063 45.9948 13.8125 45.8906H9.67191V15.1875L26.4688 48.625H27.9532L45.1407 8.62499V45.8906H38.8907V48H60.5313C60.2188 46.6979 59.5156 45.9948 58.4219 45.8906H54.2813V3.23437H60.5313V1.125ZM91.5938 0.343747C84.875 0.343747 79.1719 2.47916 74.4844 6.74999C69.5365 11.2812 67.0625 17.1406 67.0625 24.3281C67.0625 32.6094 70.0052 39.0417 75.8906 43.625C80.3177 47.0625 85.474 48.7812 91.3594 48.7812C98.0261 48.7812 103.677 46.6198 108.313 42.2969C113.208 37.7135 115.656 31.8281 115.656 24.6406C115.656 16.099 112.635 9.58854 106.594 5.10937C102.323 1.93229 97.3229 0.343747 91.5938 0.343747ZM91.5938 46.5156C85.1354 46.5156 80.9948 43.1042 79.1719 36.2812C78.3386 33.1042 77.9219 29.2239 77.9219 24.6406C77.9219 10.7344 81.9063 3.41666 89.875 2.6875C90.3958 2.63541 90.8906 2.60937 91.3594 2.60937C98.3386 2.60937 102.583 6.85416 104.094 15.3437C104.563 17.9479 104.797 20.9427 104.797 24.3281C104.797 37.1406 101.568 44.4062 95.1094 46.125C94.0156 46.3854 92.8438 46.5156 91.5938 46.5156ZM146.641 48.3906L162.891 3.23437H166.797V1.125H153.594V3.23437H159.844L147.578 37.5312L134.063 3.23437H140.234V1.125H120.234V3.23437H124.453L139.687 42.2187C140.937 45.3958 141.927 47.2448 142.656 47.7656C143.229 48.1823 144.089 48.3906 145.234 48.3906H146.641ZM192.937 48C192.625 46.6979 191.922 45.9948 190.828 45.8906H186.687V3.23437H192.937V1.125H170.828V3.23437H177.078V45.8906H170.828V48H192.937ZM237.437 15.8125L237.125 1.125L199 1.125V3.23437H205.25V45.8906H199V48H237.125L237.437 33.3125L235.406 33.3125L233.844 38.1562C232.49 42.2187 230.458 44.6667 227.75 45.5C226.865 45.7604 225.901 45.8906 224.859 45.8906H214.859V25.0312H230.25V22.6875H214.859V3.23437H224.859C228.87 3.23437 231.708 5.3177 233.375 9.48437C233.583 9.95312 233.766 10.4479 233.922 10.9687L235.406 15.8125H237.437Z" fill="black"/>
</svg>