<svg width="148" height="85" viewBox="0 0 148 85" fill="none" xmlns="http://www.w3.org/2000/svg">
<path d="M0.731641 35.05C0.731641 35.55 1.18164 36 1.68164 36H6.23164C6.78164 36 7.18164 35.55 7.18164 35.05V13.55H7.23164L28.1316 36.5H29.3316C29.8316 36.5 30.2816 36.1 30.2816 35.6V1.95C30.2816 1.45 29.8316 0.999998 29.3316 0.999998H24.7316C24.1816 0.999998 23.7816 1.45 23.7816 1.95V22.6H23.7316L2.93164 0.499998H1.68164C1.18164 0.499998 0.731641 0.899999 0.731641 1.4V35.05ZM43.9035 35.05C43.9035 35.55 44.3035 36 44.8535 36H65.2035C65.7535 36 66.1535 35.55 66.1535 35.05V30.95C66.1535 30.45 65.7535 30 65.2035 30H50.4035V21.25H62.7535C63.2535 21.25 63.7035 20.85 63.7035 20.3V16.15C63.7035 15.65 63.2535 15.2 62.7535 15.2H50.4035V7H65.2035C65.7535 7 66.1535 6.55 66.1535 6.05V1.95C66.1535 1.45 65.7535 0.999998 65.2035 0.999998H44.8535C44.3035 0.999998 43.9035 1.45 43.9035 1.95V35.05ZM84.148 35.8C84.248 36.2 84.648 36.5 85.048 36.5H85.848C86.348 36.5 86.548 36.25 86.698 35.95L95.548 13.3H95.798L104.748 35.95C104.848 36.25 105.148 36.5 105.598 36.5H106.398C106.798 36.5 107.198 36.2 107.298 35.8L116.748 2.2C116.948 1.5 116.548 0.999998 115.848 0.999998H111.248C110.848 0.999998 110.448 1.35 110.348 1.7L105.248 21.65H105.048L97.048 1.05C96.948 0.749998 96.698 0.499998 96.198 0.499998H95.298C94.798 0.499998 94.548 0.749998 94.448 1.05L86.498 21.65H86.298L81.098 1.7C80.998 1.35 80.598 0.999998 80.198 0.999998H75.598C74.898 0.999998 74.498 1.5 74.698 2.2L84.148 35.8ZM125.469 32.6C126.469 33.55 130.169 36.5 136.469 36.5C143.519 36.5 147.969 31.75 147.969 26.6C147.969 20.15 142.369 17.25 137.519 15.3C133.469 13.65 131.619 12.05 131.619 9.7C131.619 8.1 133.169 6.2 136.019 6.2C138.769 6.2 142.569 8.7 142.969 8.95C143.569 9.35 144.319 8.95 144.719 8.35L146.619 5.5C146.969 5 146.819 4.15 146.319 3.85C145.319 3.1 141.419 0.499998 136.319 0.499998C128.369 0.499998 125.069 5.65 125.069 10.1C125.069 16 129.769 19 134.469 20.9C138.669 22.6 140.819 24.35 140.819 26.9C140.819 29.05 138.869 30.75 136.269 30.75C133.019 30.75 128.969 27.8 128.719 27.65C128.269 27.3 127.419 27.3 127.019 28L125.219 31.1C124.769 31.9 125.019 32.15 125.469 32.6ZM31.8584 63.824H29.7224C29.7944 64.232 29.8424 65.048 29.8424 65.528C29.8424 65.96 29.8184 67.016 29.8184 68.264C29.1464 68.312 28.5224 68.336 27.9704 68.336C27.0824 68.336 26.2184 68.312 24.8984 68.144L24.9464 69.968C25.7624 70.064 26.6504 70.088 28.0184 70.088C28.5224 70.088 29.1224 70.064 29.7944 70.016C29.7704 71.072 29.7704 72.2 29.7704 73.16C29.7704 73.592 29.7704 74.072 29.7704 74.528C27.0104 75.704 24.5144 77.792 24.5144 79.784C24.5144 81.92 27.6344 83.768 29.5064 83.768C30.8024 83.768 31.6184 83.048 31.6184 80.816C31.6184 79.784 31.5704 77.648 31.5224 75.608C33.2504 75.008 34.9544 74.672 36.7544 74.672C39.0344 74.672 40.8824 75.776 40.8824 77.816C40.8824 80.024 38.9624 81.152 36.8504 81.56C35.9624 81.752 34.9304 81.752 34.0424 81.728L34.7144 83.672C35.5544 83.624 36.6104 83.576 37.6904 83.336C40.9784 82.544 42.8024 80.696 42.8024 77.792C42.8024 74.912 40.2824 73.016 36.7784 73.016C35.1944 73.016 33.3224 73.328 31.4984 73.904C31.4984 73.616 31.4984 73.328 31.4984 73.064C31.4984 72.104 31.5224 70.952 31.5464 69.824C33.2984 69.632 35.1704 69.32 36.5864 68.984L36.5384 67.112C35.1704 67.52 33.3464 67.856 31.5944 68.072C31.6184 66.992 31.6664 66.056 31.6904 65.48C31.7144 64.928 31.7864 64.256 31.8584 63.824ZM39.2984 66.488L38.4344 67.928C39.9704 68.744 42.6344 70.4 43.8104 71.528L44.7944 69.992C43.6184 69.032 41.0024 67.4 39.2984 66.488ZM26.3864 79.688C26.3864 78.608 27.8504 77.216 29.8184 76.304C29.8424 78.056 29.8904 79.688 29.8904 80.552C29.8904 81.344 29.5544 81.728 29.0024 81.728C28.0664 81.728 26.3864 80.792 26.3864 79.688ZM56.0264 67.784H59.8184V66.128H52.9784C53.2664 65.216 53.5304 64.256 53.7224 63.248L51.9944 62.912C51.4184 65.816 50.4344 68.672 49.0184 70.52C49.4264 70.76 50.1704 71.24 50.4824 71.552C51.2264 70.52 51.8504 69.224 52.4264 67.784H54.2504V71.72C54.2504 71.984 54.2504 72.272 54.2504 72.56H49.3064V74.264H54.1304C53.8184 77.408 52.6904 80.864 49.0424 83.456C49.4264 83.72 50.0504 84.392 50.2904 84.776C53.0264 82.832 54.4904 80.24 55.2584 77.696C56.5544 79.16 58.4264 81.416 59.2424 82.592L60.4424 81.08C59.6984 80.24 56.7944 77 55.6664 75.872C55.7624 75.344 55.8584 74.792 55.9064 74.264H60.5144V72.56H56.0024C56.0264 72.272 56.0264 71.984 56.0264 71.744V67.784ZM63.0104 80.576V66.68H68.0744V80.576H63.0104ZM61.2824 65V84.152H63.0104V82.256H68.0744V83.912H69.8504V65H61.2824ZM82.3544 64.184L81.8744 66.008C83.6984 66.512 88.9064 67.568 91.1864 67.88L91.6424 66.032C89.5304 65.84 84.4184 64.832 82.3544 64.184ZM81.8264 68.552L79.8104 68.288C79.6664 70.808 79.0664 75.848 78.5864 78.032L80.3624 78.464C80.5064 78.08 80.7224 77.672 81.0824 77.264C82.7624 75.248 85.3544 74.048 88.5224 74.048C90.9704 74.048 92.7464 75.416 92.7464 77.336C92.7464 80.624 89.0504 82.808 81.4664 81.872L82.0424 83.84C90.9704 84.584 94.7624 81.68 94.7624 77.384C94.7624 74.576 92.3144 72.368 88.6424 72.368C85.7624 72.368 83.1224 73.28 80.8184 75.296C81.0824 73.76 81.4904 70.184 81.8264 68.552ZM117.766 64.496H115.726C115.798 64.904 115.846 65.768 115.846 66.296V69.728C113.278 69.944 110.494 70.208 108.142 70.424C108.166 69.152 108.166 67.976 108.166 67.184C108.166 66.44 108.214 65.792 108.262 65.24H106.174C106.27 65.984 106.318 66.536 106.318 67.28C106.318 67.688 106.318 69.008 106.294 70.616C105.142 70.712 104.182 70.808 103.582 70.856C102.718 70.952 101.83 71 101.086 71L101.302 72.968C101.95 72.872 102.982 72.728 103.726 72.632C104.35 72.56 105.238 72.464 106.294 72.344C106.294 74.744 106.294 77.288 106.318 78.32C106.438 82.136 106.966 83.408 112.51 83.408C114.934 83.408 117.862 83.192 119.47 83.024L119.542 80.984C117.982 81.272 115.006 81.56 112.414 81.56C108.262 81.56 108.214 80.648 108.142 78.056C108.118 77.12 108.118 74.624 108.142 72.152C110.542 71.912 113.35 71.624 115.822 71.432C115.774 72.944 115.678 74.576 115.558 75.368C115.486 75.92 115.222 76.016 114.646 76.016C114.094 76.016 113.062 75.896 112.246 75.704L112.198 77.36C112.846 77.48 114.502 77.696 115.366 77.696C116.47 77.696 116.998 77.384 117.214 76.328C117.454 75.2 117.502 73.064 117.55 71.312C118.606 71.24 119.518 71.192 120.238 71.168C120.838 71.168 121.75 71.144 122.134 71.168V69.296C121.558 69.32 120.886 69.368 120.262 69.416C119.47 69.464 118.558 69.512 117.598 69.584C117.622 68.528 117.622 67.328 117.646 66.224C117.67 65.72 117.694 64.904 117.766 64.496Z" fill="black"/>
</svg>
