<svg width="199" height="85" viewBox="0 0 199 85" fill="none" xmlns="http://www.w3.org/2000/svg">
<path d="M0.991407 35.05C0.991407 35.55 1.44141 36 1.94141 36H6.49141C7.04141 36 7.44141 35.55 7.44141 35.05V13.55H7.49141L28.3914 36.5H29.5914C30.0914 36.5 30.5414 36.1 30.5414 35.6V1.95C30.5414 1.45 30.0914 0.999998 29.5914 0.999998H24.9914C24.4414 0.999998 24.0414 1.45 24.0414 1.95V22.6H23.9914L3.19141 0.499998H1.94141C1.44141 0.499998 0.991407 0.899999 0.991407 1.4V35.05ZM41.6633 18.55C41.6633 28.55 49.6133 36.5 59.6133 36.5C69.6133 36.5 77.6133 28.55 77.6133 18.55C77.6133 8.55 69.6133 0.499998 59.6133 0.499998C49.6133 0.499998 41.6633 8.55 41.6633 18.55ZM48.1633 18.55C48.1633 12.25 53.3133 7 59.6133 7C65.9133 7 71.1133 12.25 71.1133 18.55C71.1133 24.85 65.9133 30 59.6133 30C53.3133 30 48.1633 24.85 48.1633 18.55ZM93.0117 35.05C93.0117 35.55 93.4617 36 93.9617 36H98.6117C99.1117 36 99.5617 35.55 99.5617 35.05V7H107.212C107.762 7 108.162 6.55 108.162 6.05V1.95C108.162 1.45 107.762 0.999998 107.212 0.999998H85.3617C84.8117 0.999998 84.4117 1.45 84.4117 1.95V6.05C84.4117 6.55 84.8117 7 85.3617 7H93.0117V35.05ZM117.861 35.05C117.861 35.55 118.311 36 118.811 36H123.461C123.961 36 124.411 35.55 124.411 35.05V1.95C124.411 1.45 123.961 0.999998 123.461 0.999998H118.811C118.311 0.999998 117.861 1.45 117.861 1.95V35.05ZM135.484 18.55C135.484 28.55 143.534 36.5 153.534 36.5C157.984 36.5 162.284 34.95 165.684 31.65C166.034 31.3 166.134 30.65 165.734 30.3L162.634 27.1C162.334 26.8 161.784 26.75 161.384 27.1C159.284 28.8 156.734 29.95 153.734 29.95C147.334 29.95 142.534 24.65 142.534 18.4C142.534 12.1 147.284 6.75 153.684 6.75C156.484 6.75 159.284 7.85 161.384 9.7C161.784 10.1 162.284 10.1 162.634 9.7L165.684 6.55C166.084 6.15 166.084 5.55 165.634 5.15C162.234 2.1 158.584 0.499998 153.534 0.499998C143.534 0.499998 135.484 8.55 135.484 18.55ZM176.714 35.05C176.714 35.55 177.114 36 177.664 36H198.014C198.564 36 198.964 35.55 198.964 35.05V30.95C198.964 30.45 198.564 30 198.014 30H183.214V21.25H195.564C196.064 21.25 196.514 20.85 196.514 20.3V16.15C196.514 15.65 196.064 15.2 195.564 15.2H183.214V7H198.014C198.564 7 198.964 6.55 198.964 6.05V1.95C198.964 1.45 198.564 0.999998 198.014 0.999998H177.664C177.114 0.999998 176.714 1.45 176.714 1.95V35.05ZM57.624 63.824H55.488C55.56 64.232 55.608 65.048 55.608 65.528C55.608 65.96 55.584 67.016 55.584 68.264C54.912 68.312 54.288 68.336 53.736 68.336C52.848 68.336 51.984 68.312 50.664 68.144L50.712 69.968C51.528 70.064 52.416 70.088 53.784 70.088C54.288 70.088 54.888 70.064 55.56 70.016C55.536 71.072 55.536 72.2 55.536 73.16C55.536 73.592 55.536 74.072 55.536 74.528C52.776 75.704 50.28 77.792 50.28 79.784C50.28 81.92 53.4 83.768 55.272 83.768C56.568 83.768 57.384 83.048 57.384 80.816C57.384 79.784 57.336 77.648 57.288 75.608C59.016 75.008 60.72 74.672 62.52 74.672C64.8 74.672 66.648 75.776 66.648 77.816C66.648 80.024 64.728 81.152 62.616 81.56C61.728 81.752 60.696 81.752 59.808 81.728L60.48 83.672C61.32 83.624 62.376 83.576 63.456 83.336C66.744 82.544 68.568 80.696 68.568 77.792C68.568 74.912 66.048 73.016 62.544 73.016C60.96 73.016 59.088 73.328 57.264 73.904C57.264 73.616 57.264 73.328 57.264 73.064C57.264 72.104 57.288 70.952 57.312 69.824C59.064 69.632 60.936 69.32 62.352 68.984L62.304 67.112C60.936 67.52 59.112 67.856 57.36 68.072C57.384 66.992 57.432 66.056 57.456 65.48C57.48 64.928 57.552 64.256 57.624 63.824ZM65.064 66.488L64.2 67.928C65.736 68.744 68.4 70.4 69.576 71.528L70.56 69.992C69.384 69.032 66.768 67.4 65.064 66.488ZM52.152 79.688C52.152 78.608 53.616 77.216 55.584 76.304C55.608 78.056 55.656 79.688 55.656 80.552C55.656 81.344 55.32 81.728 54.768 81.728C53.832 81.728 52.152 80.792 52.152 79.688ZM81.792 67.784H85.584V66.128H78.744C79.032 65.216 79.296 64.256 79.488 63.248L77.76 62.912C77.184 65.816 76.2 68.672 74.784 70.52C75.192 70.76 75.936 71.24 76.248 71.552C76.992 70.52 77.616 69.224 78.192 67.784H80.016V71.72C80.016 71.984 80.016 72.272 80.016 72.56H75.072V74.264H79.896C79.584 77.408 78.456 80.864 74.808 83.456C75.192 83.72 75.816 84.392 76.056 84.776C78.792 82.832 80.256 80.24 81.024 77.696C82.32 79.16 84.192 81.416 85.008 82.592L86.208 81.08C85.464 80.24 82.56 77 81.432 75.872C81.528 75.344 81.624 74.792 81.672 74.264H86.28V72.56H81.768C81.792 72.272 81.792 71.984 81.792 71.744V67.784ZM88.776 80.576V66.68H93.84V80.576H88.776ZM87.048 65V84.152H88.776V82.256H93.84V83.912H95.616V65H87.048ZM108.12 64.184L107.64 66.008C109.464 66.512 114.672 67.568 116.952 67.88L117.408 66.032C115.296 65.84 110.184 64.832 108.12 64.184ZM107.592 68.552L105.576 68.288C105.432 70.808 104.832 75.848 104.352 78.032L106.128 78.464C106.272 78.08 106.488 77.672 106.848 77.264C108.528 75.248 111.12 74.048 114.288 74.048C116.736 74.048 118.512 75.416 118.512 77.336C118.512 80.624 114.816 82.808 107.232 81.872L107.808 83.84C116.736 84.584 120.528 81.68 120.528 77.384C120.528 74.576 118.08 72.368 114.408 72.368C111.528 72.368 108.888 73.28 106.584 75.296C106.848 73.76 107.256 70.184 107.592 68.552ZM144 64.496H141.96C142.032 64.904 142.08 65.768 142.08 66.296V69.728C139.512 69.944 136.728 70.208 134.376 70.424C134.4 69.152 134.4 67.976 134.4 67.184C134.4 66.44 134.448 65.792 134.496 65.24H132.408C132.504 65.984 132.552 66.536 132.552 67.28C132.552 67.688 132.552 69.008 132.528 70.616C131.376 70.712 130.416 70.808 129.816 70.856C128.952 70.952 128.064 71 127.32 71L127.536 72.968C128.184 72.872 129.216 72.728 129.96 72.632C130.584 72.56 131.472 72.464 132.528 72.344C132.528 74.744 132.528 77.288 132.552 78.32C132.672 82.136 133.2 83.408 138.744 83.408C141.168 83.408 144.096 83.192 145.704 83.024L145.776 80.984C144.216 81.272 141.24 81.56 138.648 81.56C134.496 81.56 134.448 80.648 134.376 78.056C134.352 77.12 134.352 74.624 134.376 72.152C136.776 71.912 139.584 71.624 142.056 71.432C142.008 72.944 141.912 74.576 141.792 75.368C141.72 75.92 141.456 76.016 140.88 76.016C140.328 76.016 139.296 75.896 138.48 75.704L138.432 77.36C139.08 77.48 140.736 77.696 141.6 77.696C142.704 77.696 143.232 77.384 143.448 76.328C143.688 75.2 143.736 73.064 143.784 71.312C144.84 71.24 145.752 71.192 146.472 71.168C147.072 71.168 147.984 71.144 148.368 71.168V69.296C147.792 69.32 147.12 69.368 146.496 69.416C145.704 69.464 144.792 69.512 143.832 69.584C143.856 68.528 143.856 67.328 143.88 66.224C143.904 65.72 143.928 64.904 144 64.496Z" fill="black"/>
</svg>
