<svg xmlns="http://www.w3.org/2000/svg" viewBox="0 0 241.03 97.74"><defs><style>.cls-1{fill:#ff6b60;}.cls-1,.cls-2{stroke:#1a3446;stroke-linecap:round;stroke-linejoin:round;stroke-width:4.44px;}.cls-2{fill:#fff;}</style></defs><g id="レイヤー_2" data-name="レイヤー 2"><g id="レイヤー_1-2" data-name="レイヤー 1"><g id="レイヤー_2-2" data-name="レイヤー 2"><g id="design"><path class="cls-1" d="M90.66,88.16l102.15,3.47c22.09,0,46-27.32,46-49.41a40,40,0,0,0-40-40H83.08"/><path class="cls-1" d="M121.74,2.22H55.52C33.43,2.22,4,30.35,4,52.44S33.43,82.22,55.52,82.22l71.1,2.41"/><path class="cls-2" d="M92.94,95.52h92.62a40,40,0,1,0,0-80H90.66"/><path class="cls-2" d="M122.12,15.52H42.22a40,40,0,0,0,0,80h82.17"/></g></g><path d="M70,57a29.13,29.13,0,0,1,6.84-.94c5.47,0,9.79,2.92,9.79,7.81,0,4.21-2.2,7.38-7.85,8.78a27.64,27.64,0,0,1-4.68.58l-1.65-4.57a28,28,0,0,0,4.39-.25c2.88-.51,5.18-2,5.18-4.57,0-2.42-2.16-3.82-5.25-3.82a25.42,25.42,0,0,0-6.7,1c.07,2.85.18,5.58.18,6.81,0,4.42-1.62,5.58-3.92,5.58-3.49,0-8.42-3-8.42-6.77,0-3.13,3.63-6.34,8-8.25,0-.82,0-1.65,0-2.48v-3C65.2,53,64.55,53,64,53c-1.62,0-3.42,0-5-.18l-.08-4.32a39.28,39.28,0,0,0,4.94.28c.64,0,1.33,0,2.05-.07,0-1.26,0-2.3,0-2.91a27.94,27.94,0,0,0-.25-3.14h4.9c-.08.65-.22,2.2-.29,3.1s-.07,1.66-.11,2.56A49.62,49.62,0,0,0,76.75,47l.11,4.47a66.17,66.17,0,0,1-6.8,1.11c0,1.08,0,2.16,0,3.21ZM66.1,67c0-.9,0-2.52-.11-4.39-2.2,1.12-3.64,2.59-3.64,3.85,0,1.08,1.66,2.09,2.6,2.09C65.59,68.58,66.1,68.26,66.1,67ZM80.78,46.52a78.26,78.26,0,0,1,8.75,5l-2.16,3.67A53.42,53.42,0,0,0,78.8,50Z"/><path d="M109.33,62.21v9.14c0,1.55-.21,2.41-1.22,3a8.21,8.21,0,0,1-4,.58,12.12,12.12,0,0,0-1.05-3.2c1,0,2,0,2.31,0s.47-.1.47-.43V62.21h-3.75V49.14h3.21c.1-.9.25-1.87.36-2.77h-4.93V56.59c0,5.4-.36,13.11-2.6,17.89a14.05,14.05,0,0,0-3-2.19c1.87-4.39,2-10.76,2-15.66V42.7H113v3.67h-3.24c-.28,1-.57,1.91-.86,2.77h4.21V62.21Zm-3.92,2.12a26.29,26.29,0,0,1-2.49,7.6A17.29,17.29,0,0,0,100,70.35a18.6,18.6,0,0,0,2.2-6.66Zm4.32-12.23h-4.32v2.19h4.32Zm-4.32,7.12h4.32V57h-4.32Zm6.12,11.09a39.4,39.4,0,0,0-1.91-5.76l2.7-1a33.75,33.75,0,0,1,2.09,5.65Zm9.18-.22A25,25,0,0,1,114.08,75a29.84,29.84,0,0,0-2.66-2.59A18.77,18.77,0,0,0,117.36,68Zm-1.84-21.27c.14-.83.25-1.69.32-2.52h-5.54V42.7h15.26v3.6h-5.54c-.25.86-.5,1.73-.76,2.52h5.51v19h-13.5v-19ZM124.38,52h-6.16v2.31h6.16Zm0,5.22h-6.16v2.3h6.16Zm0,5.26h-6.16v2.34h6.16Zm.5,5.65a44.32,44.32,0,0,1,4.9,4.64l-3.21,2.16A39.52,39.52,0,0,0,121.82,70Z"/><path d="M143.61,50.48c0,2.3,0,5,.21,7.55.51,5.15,1.59,8.64,3.82,8.64,1.69,0,3.09-4.17,3.78-7L155,64c-2.38,6.19-4.61,8.39-7.49,8.39-3.89,0-7.31-3.53-8.32-13.1-.32-3.28-.39-7.42-.39-9.62a21.31,21.31,0,0,0-.25-3.6l5.47.08A28.39,28.39,0,0,0,143.61,50.48Zm24.76,14.65-4.72,1.8c-.54-5.73-2.44-14.11-6.33-18.51l4.53-1.51C165.24,51.05,168,59.65,168.37,65.13Z"/></g></g></svg>