<svg xmlns="http://www.w3.org/2000/svg" viewBox="0 0 241.03 97.74"><defs><style>.cls-1{fill:#8cb5d8;}.cls-1,.cls-2{stroke:#1a3446;stroke-linecap:round;stroke-linejoin:round;stroke-width:4.44px;}.cls-2{fill:#fff;}</style></defs><g id="レイヤー_2" data-name="レイヤー 2"><g id="レイヤー_1-2" data-name="レイヤー 1"><g id="レイヤー_2-2" data-name="レイヤー 2"><g id="design"><path class="cls-1" d="M90.66,88.16l102.15,3.47c22.09,0,46-27.32,46-49.41a40,40,0,0,0-40-40H83.08"/><path class="cls-1" d="M121.74,2.22H55.52C33.43,2.22,4,30.35,4,52.44S33.43,82.22,55.52,82.22l71.1,2.41"/><path class="cls-2" d="M92.94,95.52h92.62a40,40,0,1,0,0-80H90.66"/><path class="cls-2" d="M122.12,15.52H42.22a40,40,0,0,0,0,80h82.17"/></g></g><path d="M62.46,61.89c-.21,4.39-1,9.53-3.2,13.06a18.45,18.45,0,0,0-3.39-2.55c2.38-3.85,2.6-9.47,2.6-13.61V49.65h14V61.89ZM73.19,47H57.28V43.06H73.19ZM62.53,53.46V58h5.8V53.46Zm27.65,4.11H87V74.92H82.73V57.57H78.55c-.32,5.5-1.65,12.49-6.44,17.27A10.83,10.83,0,0,0,68.94,72c5-5.07,5.51-12.2,5.51-17.52V44.5l3,.68a40.27,40.27,0,0,0,8.78-3.52L90,44.9a59.48,59.48,0,0,1-11.34,3.85v4.68H90.18Z"/><path d="M129.63,46.26v4.11H110.38a41.58,41.58,0,0,1-4.22,7.09V74.88h-4.35V62.35a26.76,26.76,0,0,1-3.17,2.52,31.06,31.06,0,0,0-2.12-4.14,27.19,27.19,0,0,0,9-10.36H97.67V46.26h9.72c.61-1.69,1.15-3.34,1.58-5l4.5,1.08c-.39,1.33-.86,2.63-1.37,3.92ZM121,70.06h8.54v4H108v-4h8.71V61.85h-7.3v-4h7.3v-6H121v6h7.13v4H121Z"/><path d="M145.44,62.14l3.31-1.41,1,3.78c-3.81,1.91-7.91,3.82-11.23,5.37l-1.72-4.32c1.29-.47,2.88-1.08,4.68-1.8V53.64h-4.22V49.58h4.22V41.76h4v7.82h3.64v4.06h-3.64Zm19.22,8.28c2,0,2.34-.83,2.67-4.5a10.84,10.84,0,0,0,3.74,1.55c-.58,5-1.84,6.76-6,6.76h-7.66c-4.86,0-6.27-1.33-6.27-6.3V58.68l-1.94.83-1.59-3.81,3.53-1.48V44.75h4.11v7.71l3-1.26V41.26h4v8.21L165,48.24l.76-.5.75-.5,3,1-.14.72c0,6.84-.07,11.16-.25,12.63a3.08,3.08,0,0,1-1.84,3,10,10,0,0,1-3.74.51,12,12,0,0,0-.9-3.6,16.72,16.72,0,0,0,1.72.07c.44,0,.65-.15.8-.79s.1-3.21.1-8.32l-3.09,1.37V66.57h-4v-11l-3,1.29V68c0,2.12.32,2.45,2.52,2.45Z"/></g></g></svg>