<svg xmlns="http://www.w3.org/2000/svg" viewBox="0 0 298.25 97.74"><defs><style>.cls-1{fill:#185f8d;}.cls-1,.cls-2{stroke:#1a3446;stroke-linecap:round;stroke-linejoin:round;stroke-width:4.44px;}.cls-2{fill:#fff;}</style></defs><g id="レイヤー_2" data-name="レイヤー 2"><g id="レイヤー_1-2" data-name="レイヤー 1"><g id="レイヤー_2-2" data-name="レイヤー 2"><g id="design"><path class="cls-1" d="M197.88,2.22H55.52C33.43,2.22,4,30.35,4,52.44S33.43,82.22,55.52,82.22l142.36,4.83"/><path class="cls-1" d="M178.59,89.2,250,91.63c22.09,0,46-27.32,46-49.41a40,40,0,0,0-40-40H182.75"/><path class="cls-2" d="M181.23,95.52h61.55a40,40,0,0,0,0-80h-60"/><path class="cls-2" d="M196.39,15.52H42.22a40,40,0,0,0,0,80H193.36"/></g></g><path d="M77.81,60.07c1.29.9,4.28,3.27,5.11,3.92l-2.48,3.06a33.93,33.93,0,0,0-2.63-2.8v7.66H73.67V64.68a25.67,25.67,0,0,1-4.57,5.07,15.91,15.91,0,0,0-2.77-3,23.54,23.54,0,0,0,6.47-7H67.33v-3.6h6.34V53.41H67.23V49.88h3.31a16.82,16.82,0,0,0-1.08-4l2.19-.5h-4V41.93h6V38.65h4.14v3.28h6v3.49h-3.7l2.08.4c-.64,1.54-1.22,3-1.72,4.06h3.63v3.53H77.81v2.77h5.94v3.6H77.81Zm-5-14.65a14.07,14.07,0,0,1,1.22,4l-1.8.5h7.06l-2.38-.5a27.08,27.08,0,0,0,1.34-4Zm27.57,8.75H97v17.6H92.85V54.17H89.18c0,5.36-.79,13-5.54,17.89a9.81,9.81,0,0,0-3.06-2.92c4.14-4.39,4.57-10.51,4.57-15.48V41.17l2.52.72a41.84,41.84,0,0,0,9.14-3.17l3.42,3.14a58.29,58.29,0,0,1-11,3.31v5h11.23Z"/><path d="M117.8,54.71c-.18.5-.36,1-.57,1.44h17.71V71.91h-4.47v-1H117.91v1h-4.28V62.37a27.22,27.22,0,0,1-5.47,5.51,24.89,24.89,0,0,0-3.21-3.2,21.91,21.91,0,0,0,8.25-10h-6.91V51.36h13.64V49.81H109.71V46.72h10.22V45.2h-12V41.89h6a16.24,16.24,0,0,0-1.55-2.41l3.78-1.19a12.68,12.68,0,0,1,2.3,3.53l-.18.07h7.92l-.25-.07a19.82,19.82,0,0,0,1.87-3.53l4.68,1.12c-.72.93-1.4,1.76-2,2.48h6.12V45.2H124.28v1.52h10.44v3.09H124.28v1.55H138v3.35Zm.11,4.46v1.3h12.56v-1.3Zm12.56,3.67H117.91v1.3h12.56Zm0,5V66.51H117.91v1.33Z"/><path d="M152.87,58.7v8.64c0,2.12-.4,3.17-1.55,3.82s-2.95.75-5.47.75A16.25,16.25,0,0,0,144.66,68c1.37.07,2.88.07,3.35.07s.65-.18.65-.68V60c-1.37.44-2.7.83-3.93,1.19l-1.15-4.46c1.41-.25,3.13-.65,5.08-1.12V49h-4.54V45h4.54V38.4h4.21V45h3.56v4h-3.56V54.6l3-.72.43,3.71Zm22.64-4a22.79,22.79,0,0,1-5.87,10.4,26.94,26.94,0,0,0,8.35,3,19.68,19.68,0,0,0-2.8,3.89,25.55,25.55,0,0,1-9.08-4A31.2,31.2,0,0,1,156.47,72a16.83,16.83,0,0,0-2.2-3.92,26.16,26.16,0,0,0,8.46-3.1,25.28,25.28,0,0,1-4.32-6.51l3-.94h-3.93V53.7h.72a14.78,14.78,0,0,0-2.81-3.1,7.46,7.46,0,0,0,4-7.23V39.7h12.74v7.81c0,1,.11,1.08.54,1.08h1c.54,0,.65-.51.72-3.64a10.9,10.9,0,0,0,3.49,1.51c-.36,4.43-1.26,5.65-3.74,5.65h-2.27c-2.95,0-3.85-1-3.85-4.57V43.66h-4.61c0,3.38-1,7.45-5.11,10h13.57l.79-.15Zm-13.14,2.88a17.61,17.61,0,0,0,3.74,5,16.54,16.54,0,0,0,3.75-5Z"/><path d="M215.29,68.28c0,1.65-.22,2.52-1.26,3.09s-2.38.58-4.25.58a12.83,12.83,0,0,0-1-3.28c.94,0,1.91,0,2.24,0s.43-.15.43-.47V59h-12V72h-3.81V58.13l-2.27,3.06c-.43-.94-1.19-2.27-2-3.57V72h-4.1V59.93a29.41,29.41,0,0,1-3.27,6.29,25,25,0,0,0-2-4.1,36.66,36.66,0,0,0,4.86-9.68h-4.29V48.52h4.68V44.2c-1.26.21-2.52.39-3.71.54a12.66,12.66,0,0,0-1.18-3.24,47.08,47.08,0,0,0,10.4-2.63l2.77,3h7.78V38.4h4.13v3.42h7.74v3.35H195.38V42.25c-1.22.43-2.55.79-4,1.15v5.12h3.93v3.92h-3.93v.47c1,.9,3.35,3.63,4.22,4.71V55.71h19.65Zm-17.13-13.9v-8h14.9v8Zm5.76,13.72v1.69H201V60.43h8.85V68.1Zm-2.16-16.6h7.48V49.31h-7.48Zm2.16,11.56v2.48h3V63.06Z"/></g></g></svg>