<svg width="182" height="85" viewBox="0 0 182 85" fill="none" xmlns="http://www.w3.org/2000/svg">
<path d="M9.29102 35.05C9.29102 35.55 9.74102 36 10.241 36H14.891C15.391 36 15.841 35.55 15.841 35.05V7H23.491C24.041 7 24.441 6.55 24.441 6.05V1.95C24.441 1.45 24.041 0.999998 23.491 0.999998H1.64102C1.09102 0.999998 0.691016 1.45 0.691016 1.95V6.05C0.691016 6.55 1.09102 7 1.64102 7H9.29102V35.05ZM34.1398 35.05C34.1398 35.55 34.5898 36 35.0898 36H39.7398C40.2898 36 40.6898 35.55 40.6898 35.05V21.25H56.9898V35.05C56.9898 35.55 57.3898 36 57.9398 36H62.5398C63.0398 36 63.4898 35.55 63.4898 35.05V1.95C63.4898 1.45 63.0398 0.999998 62.5398 0.999998H57.9398C57.3898 0.999998 56.9898 1.45 56.9898 1.95V15.2H40.6898V1.95C40.6898 1.45 40.2898 0.999998 39.7398 0.999998H35.0898C34.5898 0.999998 34.1398 1.45 34.1398 1.95V35.05ZM77.0676 35.05C77.0676 35.55 77.4676 36 78.0176 36H98.3676C98.9176 36 99.3176 35.55 99.3176 35.05V30.95C99.3176 30.45 98.9176 30 98.3676 30H83.5676V21.25H95.9176C96.4176 21.25 96.8676 20.85 96.8676 20.3V16.15C96.8676 15.65 96.4176 15.2 95.9176 15.2H83.5676V7H98.3676C98.9176 7 99.3176 6.55 99.3176 6.05V1.95C99.3176 1.45 98.9176 0.999998 98.3676 0.999998H78.0176C77.4676 0.999998 77.0676 1.45 77.0676 1.95V35.05ZM108.662 34.85C108.562 35.55 108.962 36 109.612 36H114.112C114.562 36 114.962 35.6 115.012 35.25L117.912 16.3C117.962 16.3 118.062 16.3 118.062 16.3L126.912 35.95C127.062 36.25 127.312 36.5 127.762 36.5H128.662C129.112 36.5 129.412 36.25 129.512 35.95L138.262 16.3C138.262 16.3 138.362 16.3 138.412 16.3L141.362 35.25C141.462 35.6 141.862 36 142.312 36H146.862C147.512 36 147.912 35.55 147.762 34.85L141.862 1.25C141.812 0.85 141.512 0.499998 140.962 0.499998H140.162C139.712 0.499998 139.462 0.699998 139.312 0.999998L128.312 24.6C128.262 24.6 128.262 24.6 128.162 24.6L117.162 0.999998C117.012 0.699998 116.712 0.499998 116.312 0.499998H115.512C114.962 0.499998 114.662 0.85 114.612 1.25L108.662 34.85ZM159.114 35.05C159.114 35.55 159.514 36 160.064 36H180.414C180.964 36 181.364 35.55 181.364 35.05V30.95C181.364 30.45 180.964 30 180.414 30H165.614V21.25H177.964C178.464 21.25 178.914 20.85 178.914 20.3V16.15C178.914 15.65 178.464 15.2 177.964 15.2H165.614V7H180.414C180.964 7 181.364 6.55 181.364 6.05V1.95C181.364 1.45 180.964 0.999998 180.414 0.999998H160.064C159.514 0.999998 159.114 1.45 159.114 1.95V35.05ZM59 65.24V67.232C59.6 67.184 60.392 67.16 61.184 67.16H70.88C71.576 67.16 72.416 67.184 73.112 67.232V65.24C72.416 65.336 71.552 65.384 70.88 65.384H61.16C60.392 65.384 59.672 65.312 59 65.24ZM56.12 71.264V73.256C56.792 73.208 57.488 73.208 58.208 73.208H65.408C65.336 75.464 65.072 77.48 64.016 79.16C63.08 80.672 61.352 82.064 59.48 82.832L61.256 84.152C63.296 83.096 65.12 81.368 65.984 79.76C66.944 77.984 67.328 75.8 67.4 73.208H73.928C74.504 73.208 75.272 73.232 75.8 73.256V71.264C75.224 71.36 74.432 71.384 73.928 71.384H58.208C57.464 71.384 56.792 71.336 56.12 71.264ZM82.448 72.608V74.96C83.192 74.888 84.464 74.84 85.784 74.84H98.96C100.04 74.84 101.048 74.936 101.528 74.96V72.608C101 72.656 100.136 72.728 98.936 72.728H85.784C84.44 72.728 83.168 72.656 82.448 72.608ZM128.456 67.784L126.944 66.56C126.608 66.68 126.056 66.752 125.384 66.752H111.08C110.24 66.752 109.304 66.656 108.632 66.56V68.72C109.112 68.672 110.144 68.576 111.08 68.576H125.192C123.992 70.736 121.232 74.264 117.704 76.904C116.072 75.44 114.104 73.832 113.216 73.184L111.656 74.456C112.928 75.344 115.712 77.744 117.152 79.184C118.664 80.744 120.584 82.856 121.472 84.08L123.224 82.688C122.264 81.512 120.56 79.712 119.12 78.272C123.08 75.248 126.128 71.336 127.856 68.528C128 68.312 128.216 68.048 128.456 67.784Z" fill="black"/>
</svg>
