<svg xmlns="http://www.w3.org/2000/svg" width="29.72mm" height="3.81mm" viewBox="0 0 84.26 10.81"><defs><style>.cls-1{fill:#231815;}</style></defs><g id="レイヤー_2" data-name="レイヤー 2"><g id="レイヤー_1-2" data-name="レイヤー 1"><path class="cls-1" d="M0,9.25A7.93,7.93,0,0,0,2.88,5.9l-2.3,0V5.1H3.12V4.68s0-.21,0-.61c0,0,.54,0,.94.07.17,0,.25.07.25.14s-.11.17-.34.22a3,3,0,0,0,0,.31V5.1H6v.82l-2,0A5.46,5.46,0,0,0,6.46,8.29l-1,.49A6.42,6.42,0,0,1,3.87,6.72c0,.7.06,2.18.06,2.63v1.42H3.09V9.28c0-.79,0-1.84.06-2.44A8.58,8.58,0,0,1,1,9.71ZM.29,1H.73A13.22,13.22,0,0,0,5.46.3L6,1a.41.41,0,0,1,.13.26c0,.06,0,.1-.08.1a.66.66,0,0,1-.32-.15A28.21,28.21,0,0,1,1,1.8ZM1.67,2.19A7,7,0,0,1,2.39,3.9s-.78.31-.78.31a6.75,6.75,0,0,0-.7-1.8Zm1.81-.27a6.59,6.59,0,0,1,.6,1.71s-.81.26-.81.26A5.05,5.05,0,0,0,2.7,2.1Zm.78,2.21A10.09,10.09,0,0,0,5.33,1.55s.7.16.94.25.18.11.18.17-.08.12-.29.12H6.08a19,19,0,0,1-1,2.2Zm.67,5.93a8.36,8.36,0,0,0,5.23-3.37s.6.37.8.52.21.2.21.27-.1.14-.23.14a1,1,0,0,1-.23,0A9.66,9.66,0,0,1,6,10.75Zm.86-4A7.72,7.72,0,0,0,9.94,3.18s.57.33.76.48.21.19.21.25-.1.12-.24.12l-.2,0A10,10,0,0,1,6.81,6.74ZM6,2.83A8.1,8.1,0,0,0,9.74.18s.56.32.75.46.22.19.22.25S10.6,1,10.45,1l-.18,0A10.6,10.6,0,0,1,7.06,3.45Z"/><path class="cls-1" d="M13.5,3.31h2.84c0-.49,0-1.14,0-1.56h-3.4V.86H23.17v.89H19.4V3.31h3.19v7.41h-.9V10h-7.3v.82H13.5Zm8.19,5.8v-5H19.4V6.26c0,.2.1.29.47.29.69,0,.83-.25.86-1.56l.82.84c-.17,1.55-.94,1.55-1.79,1.55-.61,0-1.26-.08-1.26-.93V4.14H17.22A4.16,4.16,0,0,1,15.35,7.7l-1-.43V9.11Zm-7.3-2a3.09,3.09,0,0,0,1.95-2.95H14.39ZM18.5,3.31V1.75H17.24c0,.22,0,1,0,1.56Z"/><path class="cls-1" d="M27.89,9.68a11.86,11.86,0,0,0,1.34.12c.62,0,.9-.17.9-.65V7.05h-3V6.34a9,9,0,0,1-1.43.92l-1-.51a7.76,7.76,0,0,0,2.81-1.84,6.13,6.13,0,0,0-1.25-.77l.46-.57A10,10,0,0,1,28,4.34c.22-.27.42-.55.6-.81a6.12,6.12,0,0,0-1.18-.71l.47-.58A11.13,11.13,0,0,1,29,2.88c.3-.54.51-1,.64-1.31H28a11.39,11.39,0,0,1-2.19,2.6l-1-.38A9.06,9.06,0,0,0,27.84,0l.89.19c.12,0,.18.09.18.13s-.11.15-.32.16c0,0-.08.16-.24.42H30a.3.3,0,0,0,.16-.07L30.05.5l.72-.24a13,13,0,0,0,1.78,3.1,7.63,7.63,0,0,0,1.39-1.81h-2V.82h2.48c.06,0,.1-.09.16-.09s.72.39.72.55-.11.16-.28.23A15.11,15.11,0,0,1,33,3.92,8.06,8.06,0,0,0,36.1,6.06l-.93.64a8.66,8.66,0,0,1-2.73-2.18v.75H28.71V4.75a10,10,0,0,1-1.48,1.5h6.94v.8H31v1a9.53,9.53,0,0,0,0,1.1v.09c0,1.19-1,1.38-2,1.38h-.45Zm-2.71,0A6.21,6.21,0,0,0,28,7.45s.95.48.95.71c0,.07-.09.1-.2.1a.67.67,0,0,1-.24,0,8.7,8.7,0,0,1-2.36,2Zm7.23-5.2a14.19,14.19,0,0,1-1.89-2.91,11.66,11.66,0,0,1-1.59,2.91Zm.13,3.07a9,9,0,0,0,2.78,1.89l-1,.62a11.44,11.44,0,0,1-2.46-2Z"/><path class="cls-1" d="M39.2,10a6,6,0,0,1-.56-2.73c0-.23,0-.46,0-.67.14-2.34.69-3.9.77-5.44,0-.06,0-.07,0-.07s1.09.29,1.11.3.18.11.18.17-.09.13-.34.14a39.81,39.81,0,0,0-1,4.57,4.49,4.49,0,0,0,0,.59c0,.11,0,.49.08.49s.92-2.11,1-2.3c0,0,.19.49.37.86-.23.65-.61,1.53-.77,2.2A4.26,4.26,0,0,0,40,9.16a2.87,2.87,0,0,0,.05.57v0s0,.05-.05.06Zm3.67-2.9c-.32.37-.33.41-.33.5,0,.4.87.82,2.14.82a6.72,6.72,0,0,0,2.47-.49L47,9.05a8.21,8.21,0,0,1-2.27.35c-1.9,0-3.1-.84-3.1-1.69a1.14,1.14,0,0,1,.45-.87Zm-.76-4.69a5.22,5.22,0,0,0,1.72.23,13.34,13.34,0,0,0,2.76-.31v1A14.18,14.18,0,0,1,44,3.55a6.37,6.37,0,0,1-2-.24Z"/><path class="cls-1" d="M50.28,4.26l0-.06s0,0,.08,0c1.83-.29,3.62-1.66,6.23-1.66,3.12,0,3.22,2.36,3.22,2.81,0,2.71-3.46,4.05-6.34,4.05h0c-.43-.44-1-.95-1-.95h.38c3.38,0,5.9-1.23,5.9-3.15a1.88,1.88,0,0,0-2.16-1.89c-2.38,0-4,1.43-5.49,1.82Z"/><path class="cls-1" d="M67.87,7.57c-.75,1.38-1.38,1.8-2,1.8a1.85,1.85,0,0,1-.77-.21C63.5,8.35,63.29,6.52,63.28,5s0-1.85,0-2.33c0,0,0-.08.06-.08l.05,0s.78.07,1.08.12c.12,0,.2.08.2.14s-.1.16-.3.19c0,.53,0,1.42-.06,2,0,.14,0,.27,0,.4,0,1.28.24,2.28,1.27,2.78a.71.71,0,0,0,.32.08c.47,0,.81-.61,1.35-2ZM71.51,8l-.06,0s0,0,0-.07v-.2a7.45,7.45,0,0,0-2.29-5L70,2.47a8,8,0,0,1,2.49,5v.11Z"/><path class="cls-1" d="M75.25,2.66a.19.19,0,0,1,0-.07s0-.07.11-.07c1.75,0,3.93-.75,8.15-1.21l.14,0a.58.58,0,0,1,.16-.05c.11,0,.47.83.47,1s0,.1-.11.1A.45.45,0,0,1,84,2.25a4,4,0,0,0-1.39.29c-1.15.45-3.18,2.23-3.18,3.83,0,2,2.29,2.48,3.9,2.53l-.89,1c-1.14-.17-4-.88-4-3.41,0-1.2.85-2.8,2.71-4.06-2,.27-3.92,1-5.37,1.15Z"/></g></g></svg>