<svg xmlns="http://www.w3.org/2000/svg" width="16.25mm" height="3.27mm" viewBox="0 0 46.06 9.26"><defs><style>.cls-1{fill:#231815;}</style></defs><g id="レイヤー_2" data-name="レイヤー 2"><g id="レイヤー_1-2" data-name="レイヤー 1"><path class="cls-1" d="M0,8.55A5.53,5.53,0,0,0,3.53,3.37a7.07,7.07,0,0,0-.06-.91s1,0,1.2,0,.32.1.32.18-.14.19-.35.24c0,.27,0,.51,0,.76,0,.05,0,.1,0,.15a7.24,7.24,0,0,0,2.9-2.3L.3,1.56V.62H8.12c.1,0,.14-.08.23-.08s.8.54.8.69-.14.16-.31.17A9,9,0,0,1,5.3,4.68l-.72-.47a7.19,7.19,0,0,1-3.4,5.05Z"/><path class="cls-1" d="M12.53,8.48C16,7.4,17.9,5.29,19.41,2.22l-2.95,0a12.47,12.47,0,0,1-3.07,2.92l-1-.55A10.26,10.26,0,0,0,16.63,0c1.06.25,1.31.34,1.31.46s-.16.13-.3.13h-.08c-.15.27-.32.55-.49.8l2.83,0c.11,0,.15-.12.24-.12a2,2,0,0,1,.82.7c0,.1-.12.16-.29.19C19,5.46,17.18,8,13.6,9.23Z"/><path class="cls-1" d="M24.29,4.52c.65-.18,1.81-.53,3.07-.9,0-1.22.05-2.3.05-2.3a8.63,8.63,0,0,0,0-.9s.88,0,1.19.08.24.1.24.16-.16.19-.36.2c0,.26,0,.45,0,.68l0,1.77c2.08-.62,4.1-1.25,4.15-1.27s.12-.13.21-.13.93.37.93.54-.09.14-.24.21a14.51,14.51,0,0,1-2.31,3.56L30,6a10.48,10.48,0,0,0,2.17-2.91c-.71.23-2.26.72-3.82,1.2,0,1.09-.05,2-.05,2.09v.08c0,1.08.23,1.58,1.95,1.58a16.54,16.54,0,0,0,3.09-.38L32.94,8.8A18,18,0,0,1,30.31,9c-1.42,0-3-.23-3-2.16v0c0-.37,0-1.26,0-2.23l-2.72.85Z"/><path class="cls-1" d="M36.82,8.23A11.16,11.16,0,0,0,43,2.16l-4.7,0V1.27l5.17,0c.1,0,.15-.08.22-.08s.05,0,.09,0c.61.42.75.53.75.62S44.4,2,44.28,2a22.87,22.87,0,0,1-1.79,3,24.8,24.8,0,0,1,3.57,3.19L45.12,9a20.07,20.07,0,0,0-3.18-3.2A10.93,10.93,0,0,1,37.84,9Z"/></g></g></svg>