<svg xmlns="http://www.w3.org/2000/svg" width="20.89mm" height="3.7mm" viewBox="0 0 59.21 10.48"><defs><style>.cls-1{fill:#231815;}.cls-2{fill:#fff;}</style></defs><g id="レイヤー_2" data-name="レイヤー 2"><g id="レイヤー_1-2" data-name="レイヤー 1"><path class="cls-1" d="M0,9.16A5.53,5.53,0,0,0,3.53,4a7.07,7.07,0,0,0-.06-.91s1,0,1.2.05S5,3.23,5,3.3s-.14.19-.35.24c0,.27,0,.51,0,.77,0,0,0,.09,0,.14a7.15,7.15,0,0,0,2.9-2.3L.3,2.17V1.24l7.82,0c.1,0,.14-.08.23-.08s.8.54.8.69S9,2,8.84,2A9,9,0,0,1,5.3,5.29l-.72-.47a7.17,7.17,0,0,1-3.4,5Z"/><path class="cls-1" d="M12.53,9.09C16,8,17.9,5.9,19.41,2.83l-2.95,0a12.28,12.28,0,0,1-3.07,2.92l-1-.55A10.21,10.21,0,0,0,16.63.61c1.06.25,1.31.34,1.31.46s-.16.13-.3.13h-.08a9,9,0,0,1-.49.8L19.9,2c.11,0,.15-.12.24-.12a2,2,0,0,1,.82.7c0,.1-.12.16-.29.2C19,6.07,17.18,8.56,13.6,9.85Z"/><path class="cls-1" d="M24.29,5.13c.65-.18,1.81-.52,3.07-.9,0-1.22.05-2.3.05-2.3a8.72,8.72,0,0,0,0-.9s.88,0,1.19.09.24.09.24.15-.16.19-.36.21c0,.25,0,.44,0,.67l0,1.77c2.08-.62,4.1-1.25,4.15-1.27s.12-.13.21-.13.93.37.93.54-.09.14-.24.21a14.79,14.79,0,0,1-2.31,3.57L30,6.6a10.7,10.7,0,0,0,2.17-2.92c-.71.23-2.26.72-3.82,1.2,0,1.09-.05,2-.05,2.09v.08c0,1.08.23,1.59,1.95,1.59a16.68,16.68,0,0,0,3.09-.39l-.39,1.17a19.35,19.35,0,0,1-2.63.2c-1.42,0-3-.23-3-2.16v0c0-.37,0-1.25,0-2.23-1.11.35-2.13.68-2.72.85Z"/><path class="cls-1" d="M36.82,8.84A11.16,11.16,0,0,0,43,2.77l-4.7,0V1.88l5.17,0c.1,0,.15-.07.22-.07a.19.19,0,0,1,.09,0c.61.42.75.53.75.63s-.16.14-.28.17a22.87,22.87,0,0,1-1.79,3,24.8,24.8,0,0,1,3.57,3.19l-.94.73a20.49,20.49,0,0,0-3.18-3.2,10.93,10.93,0,0,1-4.1,3.2Z"/><path class="cls-2" d="M48.73,0H59.21V10.48H48.73ZM58.6,9.87V.6H49.33V9.87Z"/></g></g></svg>