<svg width="400" height="49" viewBox="0 0 400 49" fill="none" xmlns="http://www.w3.org/2000/svg">
<path d="M9.86693 17.0549C10.0829 17.0729 10.3169 17.0909 10.5149 17.0909C11.8289 17.0909 12.8549 16.6589 12.8549 15.1649C12.8549 15.1289 12.8549 15.0929 12.8549 15.0569C12.8369 14.7329 12.8189 13.6169 12.8189 12.7889V12.3209H14.9429V13.3289H16.1669V9.4769H17.2649V8.2349H16.1669V5.3909H13.3589C13.8809 4.5989 14.5289 3.4649 14.5289 3.4649C14.8169 3.3749 14.9069 3.3209 14.9069 3.2489C14.9069 3.1049 14.2049 2.5289 13.8629 2.3309C13.8449 2.3129 13.8089 2.3129 13.7909 2.3129C13.6649 2.3129 13.5209 2.4569 13.5209 2.4569H11.4689C11.5949 2.1869 11.7029 1.9349 11.8109 1.7369C12.2069 1.7189 12.3509 1.6109 12.3509 1.5209C12.3509 1.4309 12.2609 1.3409 12.1349 1.3049C11.5949 1.1069 10.7489 0.926897 10.7489 0.926897C10.7489 0.926897 10.2449 3.2849 7.97693 5.3009V4.3289H5.34893V3.3749H8.28293V2.2949H5.34893V2.1869C5.34893 2.1869 5.36693 1.8089 5.38493 1.6109C5.74493 1.5569 5.88893 1.4489 5.88893 1.3589C5.88893 1.2509 5.76293 1.1609 5.54693 1.1249C5.15093 1.0709 4.12493 1.0169 4.12493 1.0169C4.16093 1.5029 4.16093 2.1329 4.16093 2.1329V2.2949H1.20893V3.3749H4.16093V4.3289H1.42493V5.3909H4.16093V6.3629H0.88493V7.4429H8.57093V6.3629H5.34893V5.3909H7.88693L7.74293 5.4989L8.94893 6.0389L9.27293 5.7149V6.5429H11.5229V8.2349H8.30093V9.4769H11.5229V11.1869H9.05693V12.3209H11.5229V14.9669C11.5229 15.6509 11.1629 15.8309 10.5149 15.8309C10.1189 15.8309 9.63293 15.7589 9.05693 15.6869L9.86693 17.0549ZM1.94693 17.2709H3.13493V13.7789H6.50093V15.0749C6.50093 15.6869 6.05093 15.8489 5.52893 15.8489C5.07893 15.8489 4.57493 15.7229 4.23293 15.6869L4.98893 17.0729C5.15093 17.0909 5.31293 17.0909 5.45693 17.0909C6.78893 17.0909 7.68893 16.6949 7.68893 15.2369C7.68893 15.2009 7.68893 15.1649 7.68893 15.1289C7.68893 14.8049 7.67093 14.4089 7.67093 13.5809C7.67093 9.9809 7.65293 8.2889 7.65293 8.2889H1.94693V17.2709ZM9.56093 5.3909C10.1729 4.7069 10.6049 4.0409 10.9469 3.4469H13.1789C13.1789 3.4469 12.6749 4.4909 12.0089 5.3909H9.56093ZM12.8189 8.2349V6.5429H14.9429V8.2349H12.8189ZM12.8189 11.1869V9.4769H14.9429V11.1869H12.8189ZM3.13493 10.4669V9.3689H6.50093V10.4669H3.13493ZM3.13493 12.7169V11.5289H6.50093V12.7169H3.13493ZM25.1129 3.8969C25.1129 3.8969 26.0669 5.4269 26.3189 6.3629L27.4709 5.9669C27.1109 4.8689 26.2469 3.4649 26.2469 3.4649L25.1129 3.8969ZM24.5549 14.9849H25.7789V13.2929H30.9629V14.4449H32.1869V10.3409C32.1869 10.3409 32.1869 9.7109 32.2229 9.3149C32.5469 9.2609 32.6909 9.1349 32.6909 9.0269C32.6909 8.9189 32.5469 8.8109 32.3489 8.7929C31.7549 8.7389 30.9089 8.7209 30.9089 8.7209C30.9629 9.2969 30.9629 10.1789 30.9629 10.1789V12.1769H28.9829V7.6769H33.4649V6.5069H30.4049C30.8549 5.6609 31.4669 4.2569 31.4669 4.2569C31.7729 4.2209 31.9529 4.1309 31.9529 4.0229C31.9529 3.9329 31.8449 3.8249 31.5569 3.7349C31.2689 3.6449 30.3689 3.4469 30.3689 3.4469C30.3689 3.4469 30.0989 4.5809 29.1809 6.5069H23.4029V7.6769H27.6869V12.1769H25.7789V10.3409C25.7789 10.3409 25.7789 9.7109 25.8149 9.3149C26.1389 9.2609 26.2649 9.1349 26.2649 9.0269C26.2649 8.9189 26.1389 8.8109 25.9229 8.7929C25.3469 8.7389 24.5009 8.7209 24.5009 8.7209C24.5549 9.3329 24.5549 10.1789 24.5549 10.1789V14.9849ZM21.3689 17.1449H22.7189V2.9789H34.0409V14.6969C34.0409 15.3449 33.4829 15.5789 32.4929 15.5789C31.8629 15.5789 31.0349 15.4709 30.0809 15.3269L31.0169 16.8209C31.4849 16.8569 31.9529 16.8749 32.4029 16.8749C34.0229 16.8749 35.4089 16.5509 35.4089 14.8229C35.4089 14.8049 35.4089 14.7869 35.4089 14.7689L35.3729 12.3389V1.7549H21.3689V17.1449ZM44.1569 10.3229H45.3629V9.7109H51.8249V10.1069H53.0669V1.7009H44.1569V10.3229ZM40.8629 13.3109H42.2129V12.2489H47.1089V17.2169H48.4229V12.2489H55.4069V11.0969H42.2129V4.2749C42.2129 4.2749 42.2129 3.7349 42.2489 3.4829C42.6089 3.4109 42.7709 3.2849 42.7709 3.1589C42.7709 3.0689 42.6629 2.9789 42.4649 2.9429C42.0869 2.8709 40.8089 2.7989 40.8089 2.7989C40.8269 3.3029 40.8629 4.2389 40.8629 4.2389V13.3109ZM49.8989 13.6349C50.2589 13.9949 52.4369 15.9929 54.3809 16.8749L55.7669 15.8129C53.3009 15.0209 51.2669 13.2569 50.7629 12.8069L49.8989 13.6349ZM40.9349 17.0549C42.7889 16.3169 44.2649 15.0569 45.2549 13.9769C45.3809 14.0489 45.5249 14.0669 45.6509 14.0669C45.7949 14.0669 45.9209 14.0309 45.9209 13.9229C45.9209 13.8329 45.8489 13.7249 45.6869 13.5809C45.4709 13.3829 44.6249 12.8609 44.5349 12.7889C44.2469 13.1669 42.7349 15.1109 39.5849 16.1369L40.9349 17.0549ZM45.3629 4.0229V2.8529H51.8249V4.0229H45.3629ZM45.3629 6.3269V5.1029H51.8249V6.3269H45.3629ZM45.3629 8.6489V7.4069H51.8249V8.6489H45.3629ZM60.0509 5.4449H74.1629V4.0769H67.8989V2.7629C67.8989 2.7629 67.8989 2.1509 67.9349 1.8629C68.2769 1.8269 68.5829 1.6289 68.5829 1.4669C68.5829 1.3049 68.2409 1.1789 66.3509 1.1069C66.3869 1.6109 66.4049 2.5109 66.4049 2.5109V4.0769H60.0509V5.4449ZM59.3309 16.1909H74.9189V14.7869H69.2669C70.4369 11.5289 71.2469 7.8209 71.3189 7.3889C71.7689 7.3889 72.0389 7.2269 72.0389 7.0469C72.0389 6.9389 71.9309 6.8309 71.6429 6.7589C70.9049 6.5969 69.9869 6.4529 69.8069 6.4349C69.7709 6.8129 69.1589 11.1869 67.7549 14.7869H59.3309V16.1909ZM65.5769 13.5269C65.1629 10.2869 63.8849 6.9209 63.7769 6.6329L62.3009 6.9389C62.4269 7.2809 63.6509 10.5029 64.0289 13.8329L65.5769 13.5269ZM82.9289 12.1769H94.3409V10.9349H91.3349V6.8489H93.7829V5.6069H85.9889V3.6989C88.2389 3.5009 91.2269 2.9429 92.4869 2.5829C92.6849 2.7629 92.8649 2.8529 92.9909 2.8529C93.0989 2.8529 93.1709 2.7989 93.1709 2.6909C93.1709 2.6189 93.1529 2.5469 93.0809 2.4389C92.8109 2.0609 92.0729 1.2149 92.0729 1.2149C90.8849 1.7369 87.5549 2.3849 85.3949 2.5469C85.0709 2.4749 84.6209 2.4209 84.6209 2.4209V10.9349H82.9289V12.1769ZM79.3829 2.2589C79.3829 2.2589 81.3089 3.4829 82.2629 4.7429L83.3609 3.6449C82.3349 2.5289 80.4269 1.3589 80.4269 1.3589L79.3829 2.2589ZM89.1569 13.6169C89.5889 14.1929 91.5509 16.1729 93.2789 17.0549L94.7909 16.0829C92.3249 15.1289 90.5789 13.4009 90.2009 12.8969L89.1569 13.6169ZM78.2489 6.6149C78.2489 6.6149 80.4809 7.7129 81.5069 8.9009L82.4609 7.6589C81.4349 6.7229 79.2029 5.5529 79.2029 5.5529L78.2489 6.6149ZM82.8209 17.2349C85.1249 15.9929 86.7449 13.9229 86.7449 13.9229C86.8349 13.9409 86.9249 13.9589 87.0149 13.9589C87.1949 13.9589 87.3389 13.9049 87.3389 13.8149C87.3389 13.6709 87.2849 13.6349 85.8089 12.8969C85.6109 13.2929 84.1349 15.2729 81.2189 16.4069L82.8209 17.2349ZM81.5609 10.0529C81.0029 11.5109 79.7969 14.4269 78.4109 16.0109C78.4109 16.0109 79.1849 16.5869 79.9049 16.9289C79.9589 16.9469 80.0129 16.9649 80.0489 16.9649C80.1569 16.9649 80.1929 16.8929 80.1929 16.7849C80.1929 16.6949 80.1569 16.5689 80.0849 16.4609C81.1829 14.5169 82.0109 12.6809 82.5689 11.3309L81.5609 10.0529ZM85.9889 10.9349V6.8489H90.0029V10.9349H85.9889ZM114.429 8.7389C113.295 7.6769 111.459 5.1749 110.523 1.7369L109.263 2.0609C110.271 5.4449 111.567 7.8209 112.845 9.4409L114.429 8.7389ZM104.655 9.8189C105.951 7.9289 107.121 5.0309 107.571 2.7989C107.607 2.7989 107.625 2.7989 107.661 2.7989C107.967 2.7989 108.183 2.6909 108.183 2.5649C108.183 2.4389 108.075 2.2589 106.365 1.8629C105.915 4.9769 104.421 8.0189 103.107 9.4049L104.655 9.8189ZM113.799 16.1369C112.863 13.4729 110.631 9.9449 110.631 9.9449C110.271 10.0889 109.407 10.3769 109.407 10.3769C109.965 11.1509 110.667 12.3929 111.279 13.7249C110.325 13.9589 108.579 14.3009 106.851 14.5529C107.841 12.1049 108.939 8.1629 108.993 7.9469C109.425 7.9109 109.659 7.7669 109.659 7.6229C109.659 7.5149 109.515 7.3889 109.245 7.3349C108.885 7.2629 107.607 7.0829 107.607 7.0829C107.553 7.8209 106.545 12.0149 105.375 14.7329C104.745 14.8049 104.133 14.8409 103.611 14.8589C103.611 14.8589 103.935 15.8309 104.169 16.4249C104.259 16.6589 104.385 16.7849 104.493 16.7849C104.637 16.7849 104.745 16.5869 104.745 16.1909C104.745 16.1729 104.745 16.1549 104.745 16.1369C108.021 15.7229 110.631 15.1289 111.747 14.8409C112.035 15.5429 112.269 16.2449 112.413 16.8389L113.799 16.1369ZM100.497 17.1449H101.847V13.7069C101.847 12.3209 101.739 8.2169 101.685 6.7589C101.919 7.2629 102.243 7.9469 102.693 8.7389L103.863 8.2349C102.981 7.2089 102.369 6.2369 102.009 5.6249H104.007V4.3829H101.829V2.6909C101.829 2.6909 101.829 2.0969 101.865 1.6829C102.207 1.6109 102.369 1.4669 102.369 1.3589C102.369 1.2509 102.243 1.1429 101.991 1.1249C101.379 1.0709 100.461 1.0169 100.461 1.0169C100.497 1.7189 100.515 2.5469 100.515 2.5469V4.3829H98.0309V5.6249H100.281C100.029 6.5249 99.0569 9.6569 97.1129 11.6909L98.4989 12.1409C99.5249 10.7729 100.281 8.6309 100.623 7.5509C100.569 9.1529 100.497 11.9249 100.497 13.6169V17.1449ZM118.281 17.1809H119.613V15.9569H130.575V17.0549H131.925V5.9309H127.137V3.5909H132.789V2.2589H117.417V3.5909H122.511C122.529 4.2209 122.547 5.1929 122.547 5.9309H118.281V17.1809ZM123.879 5.9309C123.879 5.1029 123.897 3.9149 123.897 3.5909H125.787V5.9309H123.879ZM119.613 14.6429V11.8709L121.053 12.5189C123.195 11.0609 123.825 9.0989 123.861 7.1729H125.787V10.6469C125.787 11.9249 126.759 12.0329 127.677 12.0329C128.955 12.0329 130.107 12.0329 130.359 9.7109L129.135 8.4509C129.081 10.4129 128.883 10.7909 127.839 10.7909C127.281 10.7909 127.137 10.6649 127.137 10.3589V7.1729H130.575V14.6429H119.613ZM119.613 7.1729H122.547C122.493 8.7209 122.025 10.4669 119.613 11.6009V7.1729ZM136.965 3.6089H151.959V2.3849H145.065V2.0609C145.065 2.0609 145.083 1.7909 145.101 1.6469C145.515 1.5749 145.677 1.4489 145.677 1.3229C145.677 1.2149 145.569 0.962898 143.733 0.962898C143.769 1.2509 143.787 1.7729 143.787 1.7729V2.3849H136.965V3.6089ZM140.079 8.3609H141.321V7.9469H147.603V8.3429H148.809V4.6529H140.079V8.3609ZM137.721 17.2349H139.053V10.1969H150.015V14.7869C150.015 15.3269 149.925 15.6509 148.791 15.6509C148.341 15.6509 147.765 15.6149 146.973 15.5069L147.945 16.9829C148.161 16.9829 148.359 17.0009 148.575 17.0009C149.979 17.0009 151.347 16.7309 151.347 14.8769C151.347 14.5709 151.311 13.6889 151.311 13.3829L151.293 9.0449H137.721V17.2349ZM141.015 15.7229H142.239V14.5169H146.793V15.0569H147.945V11.2409H141.015V15.7229ZM141.321 6.8849L141.303 5.6609H147.603V6.8849H141.321ZM142.239 13.4909L142.221 12.1769H146.793V13.4909H142.239ZM164.397 4.9409C164.793 4.4549 165.153 3.9149 165.441 3.3929H166.737C166.881 3.6449 167.349 4.5089 167.619 5.4089L168.807 4.9589C168.555 4.4189 168.213 3.8069 167.979 3.3929H171.489V2.2949H166.035C166.143 2.0789 166.233 1.8809 166.305 1.7189C166.683 1.6829 166.809 1.5929 166.809 1.4849C166.809 1.3949 166.701 1.2869 166.575 1.2509C166.233 1.1249 165.261 0.836897 165.261 0.836897C165.171 1.3769 164.415 3.2489 162.957 4.5809L164.397 4.9409ZM157.179 5.6429C157.773 5.0309 158.385 4.1669 158.889 3.3929H159.717C159.861 3.6809 160.311 4.5629 160.545 5.4269L161.751 5.0129C161.517 4.4549 161.157 3.8069 160.923 3.3929H163.767V2.2949H159.537C159.645 2.1149 159.735 1.9529 159.807 1.8269C160.275 1.8089 160.455 1.6649 160.455 1.5209C160.455 1.4489 160.383 1.3769 160.293 1.3409C159.951 1.1969 158.997 0.908898 158.997 0.908898C158.871 1.4669 157.539 3.7709 155.631 5.1749L157.179 5.6429ZM156.441 9.9089H171.237V8.7389H164.325V7.2989H170.157V6.1109H164.325C164.325 6.0029 164.325 5.8049 164.361 5.6429C164.667 5.5889 164.811 5.4449 164.811 5.3369C164.811 5.2469 164.721 5.1569 164.541 5.1209C164.199 5.0669 162.975 5.0129 162.975 5.0129C163.029 5.3909 163.029 5.6969 163.029 5.8769C163.029 5.9489 163.029 6.0029 163.029 6.1109H157.611V7.2989H163.029V8.7389H156.441V9.9089ZM156.693 12.7169H166.449V14.8409V14.8589C166.449 15.4709 165.963 15.7229 165.027 15.7229C164.505 15.7229 163.839 15.6509 163.047 15.5249L164.037 17.0189C164.271 17.0369 164.487 17.0369 164.703 17.0369C166.413 17.0369 167.745 16.6589 167.745 15.0029C167.745 14.8769 167.727 14.2109 167.727 13.3289V12.7169H171.165V11.4929H167.727C167.727 11.3669 167.727 11.1509 167.763 10.9349C168.087 10.8809 168.249 10.7369 168.249 10.6289C168.249 10.5029 168.105 10.3949 167.817 10.3769C167.421 10.3409 166.395 10.2509 166.395 10.2509C166.449 10.7729 166.449 11.1689 166.449 11.3849V11.4929H156.693V12.7169ZM159.177 13.8869C159.177 13.8869 160.887 14.7509 162.237 16.0829L163.011 14.9489C161.733 13.8149 159.951 12.9689 159.951 12.9689L159.177 13.8869ZM175.809 8.3249H177.231V5.5349L188.967 5.5529V8.3609H190.425V4.2929H186.951C187.365 3.7169 188.013 2.7989 188.337 2.0969C188.355 2.0969 188.373 2.0969 188.391 2.0969C188.787 2.0969 188.967 1.9889 188.967 1.8809C188.967 1.7909 188.877 1.7009 188.715 1.6289C188.157 1.3769 187.131 1.1429 187.131 1.1429C186.753 2.4389 185.943 3.6989 185.529 4.3109H183.081C183.459 4.1669 184.143 3.9329 184.143 3.9149C183.783 2.3309 182.811 1.1429 182.811 1.1429L181.569 1.4489C181.569 1.4489 182.433 2.6369 182.811 4.3109H179.463C179.805 4.1489 180.471 3.8429 180.471 3.8249C179.877 2.4029 178.743 1.2509 178.743 1.2509L177.519 1.7369C177.519 1.7369 178.599 2.8349 179.211 4.3109H175.809V8.3249ZM175.143 12.1229H183.495C183.549 12.5009 183.549 12.8609 183.549 13.2209C183.549 13.2389 183.549 13.2389 183.549 13.2569C183.549 15.0389 182.613 15.5249 181.551 15.5249C180.831 15.5249 180.021 15.2909 179.427 15.0749L180.399 16.8749C180.669 16.9469 181.029 17.0009 181.425 17.0009C182.901 17.0009 184.953 16.2809 184.953 13.2569C184.953 13.2389 184.953 13.2209 184.953 13.2029C184.953 12.8609 184.935 12.5009 184.881 12.1229H191.145L191.163 10.7909H184.485C184.413 10.6289 184.323 10.4849 184.215 10.3229C185.169 9.7649 187.095 8.3609 187.455 8.0189C187.707 7.9829 187.869 7.9289 187.869 7.7849C187.869 7.7309 187.833 7.6589 187.761 7.5509C187.653 7.4429 186.987 6.8129 186.843 6.8129C186.735 6.8129 186.663 6.9209 186.573 6.9209H178.563V8.1449L185.403 8.0909C184.881 8.5769 184.089 9.1169 183.441 9.5129C183.261 9.3689 183.045 9.2249 182.811 9.0989L181.587 9.6209C182.271 9.9809 182.721 10.3769 183.009 10.7909H175.143V12.1229ZM200.181 4.3109H210.261V3.1229H205.581V2.1689C205.581 2.1689 205.599 1.8989 205.617 1.7009C206.013 1.6289 206.193 1.4849 206.193 1.3769C206.193 1.1969 205.833 1.0889 204.195 1.0169C204.231 1.3769 204.249 1.8809 204.249 1.8809V3.1229H200.181V4.3109ZM205.725 5.4089C205.725 5.4089 207.201 7.5149 209.037 8.8829L210.333 8.0009C207.885 6.5429 206.769 4.7249 206.769 4.7249L205.725 5.4089ZM201.063 9.1169C202.737 7.7129 203.763 5.8229 203.763 5.8229C203.871 5.8409 203.979 5.8589 204.069 5.8589C204.267 5.8589 204.393 5.7869 204.393 5.6969C204.393 5.6069 204.285 5.4809 204.069 5.3369C203.763 5.1389 202.899 4.7069 202.899 4.7069C202.899 4.7069 202.071 6.7769 199.785 8.4509L201.063 9.1169ZM200.397 17.0909C202.143 16.4249 203.727 15.2369 205.005 13.7069C206.373 15.2549 207.903 16.2989 209.379 16.9109L210.927 15.8489C208.965 15.2189 207.183 14.1929 205.797 12.6809C206.571 11.5649 207.201 10.3229 207.669 8.9549C207.705 8.9549 207.741 8.9549 207.777 8.9549C208.029 8.9549 208.209 8.8469 208.209 8.7029C208.209 8.5409 207.759 8.3609 206.535 7.9109C206.247 9.2609 205.725 10.5209 204.987 11.6549C204.249 10.6289 203.673 9.3869 203.277 7.9469L202.071 8.5589C202.647 10.1789 203.385 11.5469 204.213 12.6989C202.863 14.3189 201.009 15.5429 198.741 16.1369L200.397 17.0909ZM196.941 17.1989H198.255V14.2829C198.255 12.6449 198.147 9.2609 198.111 7.0649C198.327 7.8209 198.741 9.1349 199.227 10.2149L200.451 9.8549C199.137 8.0549 198.507 6.2009 198.327 5.6069H200.073V4.4009H198.219V2.3669C198.219 2.3669 198.237 1.9889 198.255 1.7549C198.579 1.6649 198.723 1.5389 198.723 1.4309C198.723 1.1969 198.147 1.1069 196.923 1.0529C196.977 1.4309 196.977 2.1689 196.977 2.1689V4.4009H194.799V5.6069H196.851C196.599 6.6149 195.735 9.4769 193.935 11.7809L195.267 12.0869C196.059 10.8089 196.689 8.9549 197.067 7.7489C197.013 9.6929 196.941 12.9689 196.941 14.1749V17.1989ZM219.819 9.0809C219.819 10.1969 220.737 11.1149 221.853 11.1149C222.969 11.1149 223.887 10.1969 223.887 9.0809C223.887 7.9649 222.969 7.0469 221.853 7.0469C220.737 7.0469 219.819 7.9649 219.819 9.0809ZM234.489 12.5009H235.875V11.1869H240.411V17.0909H241.833V11.1869H246.549V12.3749H247.971V4.3649H241.815V2.6909C241.815 2.6909 241.833 2.1329 241.851 1.7909C242.139 1.7549 242.409 1.5749 242.409 1.4309C242.409 1.1249 240.699 1.1069 240.357 1.1069C240.411 1.8449 240.411 2.5289 240.411 2.5289V4.3649H234.489V12.5009ZM241.815 9.8549V5.6609H246.549V9.8549H241.815ZM235.875 9.8549V5.6609H240.411V9.8549H235.875ZM261.147 4.9409C261.543 4.4549 261.903 3.9149 262.191 3.3929H263.487C263.631 3.6449 264.099 4.5089 264.369 5.4089L265.557 4.9589C265.305 4.4189 264.963 3.8069 264.729 3.3929H268.239V2.2949H262.785C262.893 2.0789 262.983 1.8809 263.055 1.7189C263.433 1.6829 263.559 1.5929 263.559 1.4849C263.559 1.3949 263.451 1.2869 263.325 1.2509C262.983 1.1249 262.011 0.836897 262.011 0.836897C261.921 1.3769 261.165 3.2489 259.707 4.5809L261.147 4.9409ZM253.929 5.6429C254.523 5.0309 255.135 4.1669 255.639 3.3929H256.467C256.611 3.6809 257.061 4.5629 257.295 5.4269L258.501 5.0129C258.267 4.4549 257.907 3.8069 257.673 3.3929H260.517V2.2949H256.287C256.395 2.1149 256.485 1.9529 256.557 1.8269C257.025 1.8089 257.205 1.6649 257.205 1.5209C257.205 1.4489 257.133 1.3769 257.043 1.3409C256.701 1.1969 255.747 0.908898 255.747 0.908898C255.621 1.4669 254.289 3.7709 252.381 5.1749L253.929 5.6429ZM253.191 9.9089H267.987V8.7389H261.075V7.2989H266.907V6.1109H261.075C261.075 6.0029 261.075 5.8049 261.111 5.6429C261.417 5.5889 261.561 5.4449 261.561 5.3369C261.561 5.2469 261.471 5.1569 261.291 5.1209C260.949 5.0669 259.725 5.0129 259.725 5.0129C259.779 5.3909 259.779 5.6969 259.779 5.8769C259.779 5.9489 259.779 6.0029 259.779 6.1109H254.361V7.2989H259.779V8.7389H253.191V9.9089ZM253.443 12.7169H263.199V14.8409V14.8589C263.199 15.4709 262.713 15.7229 261.777 15.7229C261.255 15.7229 260.589 15.6509 259.797 15.5249L260.787 17.0189C261.021 17.0369 261.237 17.0369 261.453 17.0369C263.163 17.0369 264.495 16.6589 264.495 15.0029C264.495 14.8769 264.477 14.2109 264.477 13.3289V12.7169H267.915V11.4929H264.477C264.477 11.3669 264.477 11.1509 264.513 10.9349C264.837 10.8809 264.999 10.7369 264.999 10.6289C264.999 10.5029 264.855 10.3949 264.567 10.3769C264.171 10.3409 263.145 10.2509 263.145 10.2509C263.199 10.7729 263.199 11.1689 263.199 11.3849V11.4929H253.443V12.7169ZM255.927 13.8869C255.927 13.8869 257.637 14.7509 258.987 16.0829L259.761 14.9489C258.483 13.8149 256.701 12.9689 256.701 12.9689L255.927 13.8869ZM281.721 17.1809H283.089V3.1049H286.113C285.933 3.7889 285.033 6.2189 284.205 7.5329C286.023 8.9009 286.617 10.1069 286.617 11.4389C286.617 12.7709 285.915 13.4189 284.601 13.4189C284.259 13.4189 283.881 13.3829 283.449 13.2929L284.313 14.7689C284.511 14.7869 284.691 14.8049 284.871 14.8049C287.067 14.8049 287.949 13.3289 287.949 11.3849C287.949 9.2969 286.491 7.9469 285.699 7.2989C286.131 6.5249 287.031 4.4909 287.643 2.8709C287.913 2.8349 288.003 2.7629 288.003 2.6909C288.003 2.6369 287.967 2.5649 287.913 2.5109C287.877 2.4749 287.175 1.7909 287.031 1.7909C286.941 1.7909 286.851 1.9169 286.743 1.9169H281.721V17.1809ZM272.127 4.3289H280.839V3.1229H277.203V2.4389C277.203 2.4389 277.203 2.0069 277.239 1.7189C277.635 1.6469 277.779 1.5029 277.779 1.3949C277.779 1.2689 277.635 1.1429 277.419 1.1249C276.681 1.0529 275.835 1.0349 275.835 1.0349C275.889 1.5389 275.889 2.1869 275.889 2.1869V3.1229H272.127V4.3289ZM271.965 9.2249H281.109V7.9469H278.427C278.859 6.9389 279.363 5.6249 279.363 5.6249C279.795 5.6069 279.993 5.4989 279.993 5.3729C279.993 5.2829 279.885 5.1749 279.723 5.1209C279.129 4.8689 278.211 4.6529 278.211 4.6529C278.211 4.6529 277.743 6.6329 277.185 7.9469H271.965V9.2249ZM273.423 5.1029C273.423 5.1029 274.197 6.2549 274.467 7.7849L275.709 7.2989C275.277 5.7149 274.593 4.7429 274.593 4.7429L273.423 5.1029ZM273.225 17.0729H274.521V16.2629H278.661V16.9649H279.975V10.9169H273.225V17.0729ZM274.521 15.0569V12.1589H278.661V15.0569H274.521ZM2.50493 34.9869H15.5009V33.3849H2.50493V34.9869ZM8.15693 47.1549H9.84893V39.3249H15.5009V37.7589H2.50493V39.3249H8.15693V47.1549ZM19.9289 43.9689H26.1209V46.9209H27.6869V43.9689H29.5229V42.5289H27.6869V33.7269H25.9409L19.9289 42.6909V43.9689ZM21.6749 42.6009L25.4549 36.8769C25.7429 36.4449 26.1569 35.7969 26.2649 35.4729C26.2289 36.1569 26.1389 39.9189 26.1389 40.1889L26.1209 42.5289L21.6749 42.6009ZM31.897 43.0329C31.987 45.7509 33.877 47.1369 36.271 47.1369C38.611 47.1369 40.771 45.8589 40.771 43.2309C40.771 41.4489 39.745 40.0089 38.017 39.7749C39.511 39.5049 40.321 38.1729 40.321 36.8409C40.321 34.5909 38.575 33.5109 36.433 33.5109C33.481 33.5109 32.365 35.5989 32.365 37.1649H34.021C34.129 35.1849 35.713 34.9149 36.397 34.9149C38.287 34.9149 38.791 36.1209 38.791 36.9129C38.791 38.2089 37.639 39.1449 36.451 39.1449C36.415 39.1449 36.397 39.1449 36.379 39.1449L35.083 39.0909V40.6209L36.361 40.5849C36.379 40.5849 36.397 40.5849 36.415 40.5849C37.459 40.5849 39.169 41.1429 39.169 43.0329C39.169 45.4449 37.063 45.6789 36.361 45.6789C35.857 45.6789 33.751 45.6249 33.625 43.0329H31.897ZM44.315 46.9209H52.577V45.3189L46.349 45.3909C46.457 45.2469 46.691 44.9229 46.961 44.6169C47.807 43.6449 49.517 42.2409 50.741 41.0709C52.127 39.7569 52.613 38.6589 52.613 37.0929C52.613 35.5449 51.479 33.5649 48.689 33.5649C45.845 33.5649 44.513 35.5449 44.315 38.0649L45.989 38.0829C46.043 36.3369 47.051 35.0589 48.617 35.0589C50.003 35.0589 50.921 35.9589 50.921 37.2009C50.921 38.2089 50.453 39.0909 49.589 40.0089C48.275 41.3769 46.547 42.8169 45.485 44.0949C44.891 44.7969 44.513 45.3909 44.315 45.7329V46.9209ZM56.445 43.1049H61.251V41.5569H56.445V43.1049ZM67.2114 39.9189C66.0594 40.1889 64.7094 41.3409 64.7094 43.3029C64.7094 45.6969 66.5814 47.1909 69.2994 47.1909C71.7654 47.1909 73.6554 45.7149 73.6554 43.2129C73.6554 41.5029 72.5394 40.2609 71.0274 39.9189C71.9454 39.6669 73.2234 38.8029 73.2234 36.8589C73.2234 35.0589 71.7294 33.5109 69.2454 33.5109C66.7074 33.5109 65.1594 35.0949 65.1594 36.9849C65.1594 38.7669 66.3474 39.6129 67.2114 39.9189ZM66.7434 36.9669C66.7434 35.5989 67.7694 34.7709 69.1914 34.7709C70.7214 34.7709 71.6214 35.6349 71.6214 36.8949C71.6214 38.4069 70.5774 39.1629 69.2274 39.1629C67.9314 39.1629 66.7434 38.4789 66.7434 36.9669ZM69.2094 40.6029C70.6674 40.6029 71.9994 41.4849 71.9994 43.2489C71.9994 44.7789 70.7214 45.8049 69.2814 45.8049C67.8054 45.8049 66.3474 44.9769 66.3474 43.2849C66.3474 43.2669 66.3474 43.2669 66.3474 43.2489C66.3474 41.5029 67.6974 40.6029 69.1734 40.6029C69.1914 40.6029 69.2094 40.6029 69.2094 40.6029ZM81.1414 47.2089C83.8594 47.2089 85.6234 44.9769 85.6234 40.3869C85.6234 35.8149 83.8594 33.5289 81.1414 33.5289C78.4054 33.5289 76.6234 35.8149 76.6234 40.3869C76.6234 44.9769 78.3874 47.2089 81.1414 47.2089ZM81.1414 45.7869C79.4674 45.7869 78.3694 43.9689 78.3694 40.3869C78.3694 36.7329 79.4674 34.8609 81.1414 34.8609C82.7254 34.8609 83.8774 36.7329 83.8774 40.3869C83.8774 43.9689 82.7254 45.7869 81.1414 45.7869ZM88.3755 43.0329C88.4655 45.7509 90.3555 47.1369 92.7495 47.1369C95.0895 47.1369 97.2495 45.8589 97.2495 43.2309C97.2495 41.4489 96.2235 40.0089 94.4955 39.7749C95.9895 39.5049 96.7995 38.1729 96.7995 36.8409C96.7995 34.5909 95.0535 33.5109 92.9115 33.5109C89.9595 33.5109 88.8435 35.5989 88.8435 37.1649H90.4995C90.6075 35.1849 92.1915 34.9149 92.8755 34.9149C94.7655 34.9149 95.2695 36.1209 95.2695 36.9129C95.2695 38.2089 94.1175 39.1449 92.9295 39.1449C92.8935 39.1449 92.8755 39.1449 92.8575 39.1449L91.5615 39.0909V40.6209L92.8395 40.5849C92.8575 40.5849 92.8755 40.5849 92.8935 40.5849C93.9375 40.5849 95.6475 41.1429 95.6475 43.0329C95.6475 45.4449 93.5415 45.6789 92.8395 45.6789C92.3355 45.6789 90.2295 45.6249 90.1035 43.0329H88.3755ZM103.008 39.9189C101.856 40.1889 100.506 41.3409 100.506 43.3029C100.506 45.6969 102.378 47.1909 105.096 47.1909C107.562 47.1909 109.452 45.7149 109.452 43.2129C109.452 41.5029 108.336 40.2609 106.824 39.9189C107.742 39.6669 109.02 38.8029 109.02 36.8589C109.02 35.0589 107.526 33.5109 105.042 33.5109C102.504 33.5109 100.956 35.0949 100.956 36.9849C100.956 38.7669 102.144 39.6129 103.008 39.9189ZM102.54 36.9669C102.54 35.5989 103.566 34.7709 104.988 34.7709C106.518 34.7709 107.418 35.6349 107.418 36.8949C107.418 38.4069 106.374 39.1629 105.024 39.1629C103.728 39.1629 102.54 38.4789 102.54 36.9669ZM105.006 40.6029C106.464 40.6029 107.796 41.4849 107.796 43.2489C107.796 44.7789 106.518 45.8049 105.078 45.8049C103.602 45.8049 102.144 44.9769 102.144 43.2849C102.144 43.2669 102.144 43.2669 102.144 43.2489C102.144 41.5029 103.494 40.6029 104.97 40.6029C104.988 40.6029 105.006 40.6029 105.006 40.6029ZM128.238 48.0549C128.454 48.0729 128.688 48.0909 128.886 48.0909C130.2 48.0909 131.226 47.6589 131.226 46.1649C131.226 46.1289 131.226 46.0929 131.226 46.0569C131.208 45.7329 131.19 44.6169 131.19 43.7889V43.3209H133.314V44.3289H134.538V40.4769H135.636V39.2349H134.538V36.3909H131.73C132.252 35.5989 132.9 34.4649 132.9 34.4649C133.188 34.3749 133.278 34.3209 133.278 34.2489C133.278 34.1049 132.576 33.5289 132.234 33.3309C132.216 33.3129 132.18 33.3129 132.162 33.3129C132.036 33.3129 131.892 33.4569 131.892 33.4569H129.84C129.966 33.1869 130.074 32.9349 130.182 32.7369C130.578 32.7189 130.722 32.6109 130.722 32.5209C130.722 32.4309 130.632 32.3409 130.506 32.3049C129.966 32.1069 129.12 31.9269 129.12 31.9269C129.12 31.9269 128.616 34.2849 126.348 36.3009V35.3289H123.72V34.3749H126.654V33.2949H123.72V33.1869C123.72 33.1869 123.738 32.8089 123.756 32.6109C124.116 32.5569 124.26 32.4489 124.26 32.3589C124.26 32.2509 124.134 32.1609 123.918 32.1249C123.522 32.0709 122.496 32.0169 122.496 32.0169C122.532 32.5029 122.532 33.1329 122.532 33.1329V33.2949H119.58V34.3749H122.532V35.3289H119.796V36.3909H122.532V37.3629H119.256V38.4429H126.942V37.3629H123.72V36.3909H126.258L126.114 36.4989L127.32 37.0389L127.644 36.7149V37.5429H129.894V39.2349H126.672V40.4769H129.894V42.1869H127.428V43.3209H129.894V45.9669C129.894 46.6509 129.534 46.8309 128.886 46.8309C128.49 46.8309 128.004 46.7589 127.428 46.6869L128.238 48.0549ZM120.318 48.2709H121.506V44.7789H124.872V46.0749C124.872 46.6869 124.422 46.8489 123.9 46.8489C123.45 46.8489 122.946 46.7229 122.604 46.6869L123.36 48.0729C123.522 48.0909 123.684 48.0909 123.828 48.0909C125.16 48.0909 126.06 47.6949 126.06 46.2369C126.06 46.2009 126.06 46.1649 126.06 46.1289C126.06 45.8049 126.042 45.4089 126.042 44.5809C126.042 40.9809 126.024 39.2889 126.024 39.2889H120.318V48.2709ZM127.932 36.3909C128.544 35.7069 128.976 35.0409 129.318 34.4469H131.55C131.55 34.4469 131.046 35.4909 130.38 36.3909H127.932ZM131.19 39.2349V37.5429H133.314V39.2349H131.19ZM131.19 42.1869V40.4769H133.314V42.1869H131.19ZM121.506 41.4669V40.3689H124.872V41.4669H121.506ZM121.506 43.7169V42.5289H124.872V43.7169H121.506ZM143.484 34.8969C143.484 34.8969 144.438 36.4269 144.69 37.3629L145.842 36.9669C145.482 35.8689 144.618 34.4649 144.618 34.4649L143.484 34.8969ZM142.926 45.9849H144.15V44.2929H149.334V45.4449H150.558V41.3409C150.558 41.3409 150.558 40.7109 150.594 40.3149C150.918 40.2609 151.062 40.1349 151.062 40.0269C151.062 39.9189 150.918 39.8109 150.72 39.7929C150.126 39.7389 149.28 39.7209 149.28 39.7209C149.334 40.2969 149.334 41.1789 149.334 41.1789V43.1769H147.354V38.6769H151.836V37.5069H148.776C149.226 36.6609 149.838 35.2569 149.838 35.2569C150.144 35.2209 150.324 35.1309 150.324 35.0229C150.324 34.9329 150.216 34.8249 149.928 34.7349C149.64 34.6449 148.74 34.4469 148.74 34.4469C148.74 34.4469 148.47 35.5809 147.552 37.5069H141.774V38.6769H146.058V43.1769H144.15V41.3409C144.15 41.3409 144.15 40.7109 144.186 40.3149C144.51 40.2609 144.636 40.1349 144.636 40.0269C144.636 39.9189 144.51 39.8109 144.294 39.7929C143.718 39.7389 142.872 39.7209 142.872 39.7209C142.926 40.3329 142.926 41.1789 142.926 41.1789V45.9849ZM139.74 48.1449H141.09V33.9789H152.412V45.6969C152.412 46.3449 151.854 46.5789 150.864 46.5789C150.234 46.5789 149.406 46.4709 148.452 46.3269L149.388 47.8209C149.856 47.8569 150.324 47.8749 150.774 47.8749C152.394 47.8749 153.78 47.5509 153.78 45.8229C153.78 45.8049 153.78 45.7869 153.78 45.7689L153.744 43.3389V32.7549H139.74V48.1449ZM162.528 41.3229H163.734V40.7109H170.196V41.1069H171.438V32.7009H162.528V41.3229ZM159.234 44.3109H160.584V43.2489H165.48V48.2169H166.794V43.2489H173.778V42.0969H160.584V35.2749C160.584 35.2749 160.584 34.7349 160.62 34.4829C160.98 34.4109 161.142 34.2849 161.142 34.1589C161.142 34.0689 161.034 33.9789 160.836 33.9429C160.458 33.8709 159.18 33.7989 159.18 33.7989C159.198 34.3029 159.234 35.2389 159.234 35.2389V44.3109ZM168.27 44.6349C168.63 44.9949 170.808 46.9929 172.752 47.8749L174.138 46.8129C171.672 46.0209 169.638 44.2569 169.134 43.8069L168.27 44.6349ZM159.306 48.0549C161.16 47.3169 162.636 46.0569 163.626 44.9769C163.752 45.0489 163.896 45.0669 164.022 45.0669C164.166 45.0669 164.292 45.0309 164.292 44.9229C164.292 44.8329 164.22 44.7249 164.058 44.5809C163.842 44.3829 162.996 43.8609 162.906 43.7889C162.618 44.1669 161.106 46.1109 157.956 47.1369L159.306 48.0549ZM163.734 35.0229V33.8529H170.196V35.0229H163.734ZM163.734 37.3269V36.1029H170.196V37.3269H163.734ZM163.734 39.6489V38.4069H170.196V39.6489H163.734ZM181.95 43.1769H193.362V41.9349H190.356V37.8489H192.804V36.6069H185.01V34.6989C187.26 34.5009 190.248 33.9429 191.508 33.5829C191.706 33.7629 191.886 33.8529 192.012 33.8529C192.12 33.8529 192.192 33.7989 192.192 33.6909C192.192 33.6189 192.174 33.5469 192.102 33.4389C191.832 33.0609 191.094 32.2149 191.094 32.2149C189.906 32.7369 186.576 33.3849 184.416 33.5469C184.092 33.4749 183.642 33.4209 183.642 33.4209V41.9349H181.95V43.1769ZM178.404 33.2589C178.404 33.2589 180.33 34.4829 181.284 35.7429L182.382 34.6449C181.356 33.5289 179.448 32.3589 179.448 32.3589L178.404 33.2589ZM188.178 44.6169C188.61 45.1929 190.572 47.1729 192.3 48.0549L193.812 47.0829C191.346 46.1289 189.6 44.4009 189.222 43.8969L188.178 44.6169ZM177.27 37.6149C177.27 37.6149 179.502 38.7129 180.528 39.9009L181.482 38.6589C180.456 37.7229 178.224 36.5529 178.224 36.5529L177.27 37.6149ZM181.842 48.2349C184.146 46.9929 185.766 44.9229 185.766 44.9229C185.856 44.9409 185.946 44.9589 186.036 44.9589C186.216 44.9589 186.36 44.9049 186.36 44.8149C186.36 44.6709 186.306 44.6349 184.83 43.8969C184.632 44.2929 183.156 46.2729 180.24 47.4069L181.842 48.2349ZM180.582 41.0529C180.024 42.5109 178.818 45.4269 177.432 47.0109C177.432 47.0109 178.206 47.5869 178.926 47.9289C178.98 47.9469 179.034 47.9649 179.07 47.9649C179.178 47.9649 179.214 47.8929 179.214 47.7849C179.214 47.6949 179.178 47.5689 179.106 47.4609C180.204 45.5169 181.032 43.6809 181.59 42.3309L180.582 41.0529ZM185.01 41.9349V37.8489H189.024V41.9349H185.01ZM213.45 39.7389C212.316 38.6769 210.48 36.1749 209.544 32.7369L208.284 33.0609C209.292 36.4449 210.588 38.8209 211.866 40.4409L213.45 39.7389ZM203.676 40.8189C204.972 38.9289 206.142 36.0309 206.592 33.7989C206.628 33.7989 206.646 33.7989 206.682 33.7989C206.988 33.7989 207.204 33.6909 207.204 33.5649C207.204 33.4389 207.096 33.2589 205.386 32.8629C204.936 35.9769 203.442 39.0189 202.128 40.4049L203.676 40.8189ZM212.82 47.1369C211.884 44.4729 209.652 40.9449 209.652 40.9449C209.292 41.0889 208.428 41.3769 208.428 41.3769C208.986 42.1509 209.688 43.3929 210.3 44.7249C209.346 44.9589 207.6 45.3009 205.872 45.5529C206.862 43.1049 207.96 39.1629 208.014 38.9469C208.446 38.9109 208.68 38.7669 208.68 38.6229C208.68 38.5149 208.536 38.3889 208.266 38.3349C207.906 38.2629 206.628 38.0829 206.628 38.0829C206.574 38.8209 205.566 43.0149 204.396 45.7329C203.766 45.8049 203.154 45.8409 202.632 45.8589C202.632 45.8589 202.956 46.8309 203.19 47.4249C203.28 47.6589 203.406 47.7849 203.514 47.7849C203.658 47.7849 203.766 47.5869 203.766 47.1909C203.766 47.1729 203.766 47.1549 203.766 47.1369C207.042 46.7229 209.652 46.1289 210.768 45.8409C211.056 46.5429 211.29 47.2449 211.434 47.8389L212.82 47.1369ZM199.518 48.1449H200.868V44.7069C200.868 43.3209 200.76 39.2169 200.706 37.7589C200.94 38.2629 201.264 38.9469 201.714 39.7389L202.884 39.2349C202.002 38.2089 201.39 37.2369 201.03 36.6249H203.028V35.3829H200.85V33.6909C200.85 33.6909 200.85 33.0969 200.886 32.6829C201.228 32.6109 201.39 32.4669 201.39 32.3589C201.39 32.2509 201.264 32.1429 201.012 32.1249C200.4 32.0709 199.482 32.0169 199.482 32.0169C199.518 32.7189 199.536 33.5469 199.536 33.5469V35.3829H197.052V36.6249H199.302C199.05 37.5249 198.078 40.6569 196.134 42.6909L197.52 43.1409C198.546 41.7729 199.302 39.6309 199.644 38.5509C199.59 40.1529 199.518 42.9249 199.518 44.6169V48.1449ZM216.294 35.6349H231.99V34.3209H224.754V33.7989C224.754 33.7989 224.754 33.2229 224.772 32.8089C225.168 32.7189 225.384 32.5749 225.384 32.4309C225.384 32.1789 224.61 32.1069 223.314 32.0529C223.368 32.8269 223.368 33.6729 223.368 33.6729V34.3209H216.294V35.6349ZM218.094 46.2189H219.516V39.1269H223.368V48.0729H224.754V39.1269H228.894C228.894 39.1269 228.894 40.9269 228.894 42.3309C228.894 43.0329 228.894 43.6269 228.876 43.8429C228.858 44.4729 228.552 44.7609 227.526 44.7609C227.112 44.7609 226.572 44.7069 225.87 44.6169L226.896 46.1109C227.13 46.1289 227.364 46.1289 227.598 46.1289C228.966 46.1289 230.298 45.8049 230.298 44.0409C230.298 44.0049 230.298 43.9509 230.298 43.9149C230.298 43.6629 230.262 42.7089 230.262 42.3129V37.9029H224.754V37.7589C224.754 37.7589 224.772 37.1109 224.79 36.7689C225.186 36.6789 225.384 36.5349 225.384 36.4089C225.384 36.0489 223.494 35.9949 223.314 35.9949C223.368 36.6249 223.368 37.5789 223.368 37.5789V37.9029H218.094V46.2189ZM236.76 43.5009H238.146V42.1869H242.682V48.0909H244.104V42.1869H248.82V43.3749H250.242V35.3649H244.086V33.6909C244.086 33.6909 244.104 33.1329 244.122 32.7909C244.41 32.7549 244.68 32.5749 244.68 32.4309C244.68 32.1249 242.97 32.1069 242.628 32.1069C242.682 32.8449 242.682 33.5289 242.682 33.5289V35.3649H236.76V43.5009ZM244.086 40.8549V36.6609H248.82V40.8549H244.086ZM238.146 40.8549V36.6609H242.682V40.8549H238.146ZM259.242 44.7789C261.312 43.6449 262.932 42.1689 264.174 40.7469C265.398 41.7549 266.604 42.9429 267.468 44.1849L268.674 43.0869C267.522 41.7909 266.262 40.6749 265.038 39.7029C266.136 38.2809 266.82 37.0029 267.144 36.3369C267.252 36.3549 267.342 36.3729 267.432 36.3729C267.702 36.3729 267.81 36.2649 267.81 36.1569C267.81 36.0849 267.756 35.9949 267.648 35.9229C267.27 35.6709 266.118 35.1489 266.118 35.1489C265.884 35.7789 265.218 37.2549 263.976 38.9109C262.536 37.8489 261.15 37.0209 260.07 36.4089L259.026 37.3089C259.8 37.7049 261.438 38.6409 263.148 39.9189C261.852 41.3949 260.124 42.8529 257.838 43.8969L259.242 44.7789ZM256.02 47.9829H257.406V47.0829H270.42V45.7509H257.406L257.37 34.4469H269.97L269.988 33.1509H256.02V47.9829ZM275.352 48.1809H276.684V46.9569H287.646V48.0549H288.996V36.9309H284.208V34.5909H289.86V33.2589H274.488V34.5909H279.582C279.6 35.2209 279.618 36.1929 279.618 36.9309H275.352V48.1809ZM280.95 36.9309C280.95 36.1029 280.968 34.9149 280.968 34.5909H282.858V36.9309H280.95ZM276.684 45.6429V42.8709L278.124 43.5189C280.266 42.0609 280.896 40.0989 280.932 38.1729H282.858V41.6469C282.858 42.9249 283.83 43.0329 284.748 43.0329C286.026 43.0329 287.178 43.0329 287.43 40.7109L286.206 39.4509C286.152 41.4129 285.954 41.7909 284.91 41.7909C284.352 41.7909 284.208 41.6649 284.208 41.3589V38.1729H287.646V45.6429H276.684ZM276.684 38.1729H279.618C279.564 39.7209 279.096 41.4669 276.684 42.6009V38.1729ZM299.058 48.1629C302.082 46.8309 303.396 44.7969 303.756 41.9349H306.978V42.9069H308.256V37.9569H309.714V36.7329H308.256V33.0249H299.4V34.2309H302.514V36.7329H298.356V37.9569H302.514C302.514 39.0009 302.514 39.6129 302.514 39.8289C302.514 39.8289 302.514 40.1889 302.496 40.6749H299.076V41.9349H302.37C302.01 44.3829 300.786 46.2549 297.564 47.2449L299.058 48.1629ZM295.8 48.1989H297.15L297.24 37.7229C297.24 37.7229 297.258 37.2549 297.294 36.9309C297.618 36.8229 297.816 36.6789 297.816 36.5529C297.816 36.4449 297.69 36.3549 297.402 36.3189C297.366 36.3189 297.186 36.3009 296.952 36.2829C297.744 34.9329 298.302 33.6909 298.644 32.8809C298.698 32.8989 298.77 32.8989 298.824 32.8989C299.076 32.8989 299.274 32.7909 299.274 32.6469C299.274 32.5749 299.184 32.4849 298.986 32.4129C298.77 32.3409 297.636 31.9629 297.438 31.9269C296.574 35.4549 293.694 38.9469 292.92 39.5049L294.252 40.0809C294.882 39.3609 295.458 38.6229 295.962 37.8669C295.926 38.9109 295.89 40.4769 295.872 41.5929L295.8 48.1989ZM303.864 36.7329V34.2309H306.978V36.7329H303.864ZM303.846 40.6749C303.864 40.2249 303.864 40.0989 303.864 39.8829V37.9569H306.978V40.6749H303.846ZM319.74 38.6949H320.82V38.0829H325.644V38.5869H326.76V32.6109H319.74V38.6949ZM318.426 47.2089C321.108 45.9309 322.908 43.5009 323.628 42.3849H324.942C324.348 43.6989 322.746 46.5429 319.542 47.5509L321.018 48.2529C321.828 47.8569 322.548 47.3529 323.16 46.8129L323.754 47.9289C324.096 47.9649 324.438 48.0009 324.744 48.0009C326.058 48.0009 328.182 47.7489 328.182 41.4129L321.63 41.4309C321.954 40.9809 322.206 40.6029 322.368 40.3149H328.722V39.1449H317.994V40.3149H321.09C320.442 41.3769 318.858 43.4289 315.87 44.5449L317.202 45.3189C318.768 44.4729 319.974 43.3749 320.856 42.3849H322.296C321.558 43.4829 319.92 45.4809 317.076 46.3989L318.426 47.2089ZM315.222 42.4749C314.34 42.8709 313.404 43.2489 312.54 43.5009C312.54 43.5009 313.098 44.4549 313.422 44.8689C313.53 44.9949 313.638 45.0669 313.71 45.0669C313.818 45.0669 313.89 44.9589 313.89 44.7429C313.89 44.6709 313.89 44.5809 313.872 44.4909C316.212 43.4469 317.526 42.6909 318.75 41.9529L318.624 40.7109C318.318 40.9089 317.526 41.3589 316.536 41.8629V37.5069H318.66V36.2829H316.536V33.7989C316.536 33.7989 316.536 33.2049 316.572 32.9709C316.95 32.8809 317.112 32.7549 317.112 32.6469C317.112 32.5389 316.986 32.4489 316.788 32.4309C316.158 32.3229 315.168 32.3229 315.168 32.3229C315.222 32.7909 315.222 33.5109 315.222 33.5109V36.2829H312.972V37.5069H315.222V42.4749ZM320.82 34.7889V33.6909H325.644V34.7889H320.82ZM320.82 36.9849V35.8509H325.644V36.9849H320.82ZM326.922 42.3849C326.76 46.6689 325.464 46.7049 324.708 46.7049C324.294 46.7049 323.862 46.6149 323.466 46.5249C324.996 45.0489 325.86 43.2849 326.256 42.3849H326.922ZM332.97 45.5709H334.248V44.0769H339.144V45.1209H340.422V35.7429H343.896V45.5529C343.896 46.3089 343.374 46.6149 342.15 46.6149C341.61 46.6149 340.944 46.5609 340.134 46.4529L341.196 48.0549C341.484 48.0729 341.772 48.0729 342.06 48.0729C343.698 48.0729 345.39 47.7849 345.39 45.8229C345.39 45.7509 345.39 45.6789 345.39 45.6069C345.372 45.2649 345.354 44.0229 345.354 43.1769V35.7429H348.36V34.4289H340.422V32.7369H332.97V45.5709ZM337.29 37.6149V33.8709H339.162V37.6149H337.29ZM334.248 37.6149V33.8709H335.976V37.6149H334.248ZM337.29 42.9069V38.7309H339.144V42.9069H337.29ZM334.248 42.9069V38.7309H335.976V42.9069H334.248ZM354.426 43.0509C354.516 45.8949 356.658 47.1549 359.214 47.1549C359.754 47.1549 364.182 47.1369 364.182 43.2129C364.182 41.4309 363.084 40.0629 361.122 39.8109C362.688 39.6129 363.678 38.3349 363.678 36.9309C363.678 34.7349 362.004 33.5289 359.376 33.5289C356.37 33.5289 354.93 35.3289 354.93 37.1649H356.712C356.73 36.8229 356.892 34.9689 359.376 34.9689C360.96 34.9689 362.004 35.6169 362.004 36.9489C362.004 38.2449 360.816 39.1629 359.412 39.1629C359.394 39.1629 359.358 39.1629 359.34 39.1629L357.9 39.1269V40.6569L359.322 40.6389C359.358 40.6389 359.394 40.6389 359.43 40.6389C360.582 40.6389 362.436 41.2329 362.436 43.0869C362.436 44.5629 361.338 45.6789 359.304 45.6789C359.286 45.6789 359.268 45.6789 359.25 45.6789C357.666 45.6789 356.37 44.9949 356.28 43.0509H354.426ZM373.002 40.7829H384.846V39.3609H373.002V40.7829ZM397.608 46.9209H399.48V33.6909H398.22C397.968 34.3389 397.302 35.5629 394.926 35.7249V36.8049H397.608V46.9209Z" fill="black"/>
</svg>
