<svg width="238" height="18" viewBox="0 0 238 18" fill="none" xmlns="http://www.w3.org/2000/svg">
<path d="M9.864 17.134C10.08 17.152 10.314 17.17 10.512 17.17C11.826 17.17 12.852 16.738 12.852 15.244C12.852 15.208 12.852 15.172 12.852 15.136C12.834 14.812 12.816 13.696 12.816 12.868V12.4H14.94V13.408H16.164V9.556H17.262V8.314H16.164V5.47H13.356C13.878 4.678 14.526 3.544 14.526 3.544C14.814 3.454 14.904 3.4 14.904 3.328C14.904 3.184 14.202 2.608 13.86 2.41C13.842 2.392 13.806 2.392 13.788 2.392C13.662 2.392 13.518 2.536 13.518 2.536H11.466C11.592 2.266 11.7 2.014 11.808 1.816C12.204 1.798 12.348 1.69 12.348 1.6C12.348 1.51 12.258 1.42 12.132 1.384C11.592 1.186 10.746 1.006 10.746 1.006C10.746 1.006 10.242 3.364 7.974 5.38V4.408H5.346V3.454H8.28V2.374H5.346V2.266C5.346 2.266 5.364 1.888 5.382 1.69C5.742 1.636 5.886 1.528 5.886 1.438C5.886 1.33 5.76 1.24 5.544 1.204C5.148 1.15 4.122 1.096 4.122 1.096C4.158 1.582 4.158 2.212 4.158 2.212V2.374H1.206V3.454H4.158V4.408H1.422V5.47H4.158V6.442H0.882V7.522H8.568V6.442H5.346V5.47H7.884L7.74 5.578L8.946 6.118L9.27 5.794V6.622H11.52V8.314H8.298V9.556H11.52V11.266H9.054V12.4H11.52V15.046C11.52 15.73 11.16 15.91 10.512 15.91C10.116 15.91 9.63 15.838 9.054 15.766L9.864 17.134ZM1.944 17.35H3.132V13.858H6.498V15.154C6.498 15.766 6.048 15.928 5.526 15.928C5.076 15.928 4.572 15.802 4.23 15.766L4.986 17.152C5.148 17.17 5.31 17.17 5.454 17.17C6.786 17.17 7.686 16.774 7.686 15.316C7.686 15.28 7.686 15.244 7.686 15.208C7.686 14.884 7.668 14.488 7.668 13.66C7.668 10.06 7.65 8.368 7.65 8.368H1.944V17.35ZM9.558 5.47C10.17 4.786 10.602 4.12 10.944 3.526H13.176C13.176 3.526 12.672 4.57 12.006 5.47H9.558ZM12.816 8.314V6.622H14.94V8.314H12.816ZM12.816 11.266V9.556H14.94V11.266H12.816ZM3.132 10.546V9.448H6.498V10.546H3.132ZM3.132 12.796V11.608H6.498V12.796H3.132ZM25.02 3.976C25.02 3.976 25.974 5.506 26.226 6.442L27.378 6.046C27.018 4.948 26.154 3.544 26.154 3.544L25.02 3.976ZM24.462 15.064H25.686V13.372H30.87V14.524H32.094V10.42C32.094 10.42 32.094 9.79 32.13 9.394C32.454 9.34 32.598 9.214 32.598 9.106C32.598 8.998 32.454 8.89 32.256 8.872C31.662 8.818 30.816 8.8 30.816 8.8C30.87 9.376 30.87 10.258 30.87 10.258V12.256H28.89V7.756H33.372V6.586H30.312C30.762 5.74 31.374 4.336 31.374 4.336C31.68 4.3 31.86 4.21 31.86 4.102C31.86 4.012 31.752 3.904 31.464 3.814C31.176 3.724 30.276 3.526 30.276 3.526C30.276 3.526 30.006 4.66 29.088 6.586H23.31V7.756H27.594V12.256H25.686V10.42C25.686 10.42 25.686 9.79 25.722 9.394C26.046 9.34 26.172 9.214 26.172 9.106C26.172 8.998 26.046 8.89 25.83 8.872C25.254 8.818 24.408 8.8 24.408 8.8C24.462 9.412 24.462 10.258 24.462 10.258V15.064ZM21.276 17.224H22.626V3.058H33.948V14.776C33.948 15.424 33.39 15.658 32.4 15.658C31.77 15.658 30.942 15.55 29.988 15.406L30.924 16.9C31.392 16.936 31.86 16.954 32.31 16.954C33.93 16.954 35.316 16.63 35.316 14.902C35.316 14.884 35.316 14.866 35.316 14.848L35.28 12.418V1.834H21.276V17.224ZM43.974 10.402H45.18V9.79H51.642V10.186H52.884V1.78H43.974V10.402ZM40.68 13.39H42.03V12.328H46.926V17.296H48.24V12.328H55.224V11.176H42.03V4.354C42.03 4.354 42.03 3.814 42.066 3.562C42.426 3.49 42.588 3.364 42.588 3.238C42.588 3.148 42.48 3.058 42.282 3.022C41.904 2.95 40.626 2.878 40.626 2.878C40.644 3.382 40.68 4.318 40.68 4.318V13.39ZM49.716 13.714C50.076 14.074 52.254 16.072 54.198 16.954L55.584 15.892C53.118 15.1 51.084 13.336 50.58 12.886L49.716 13.714ZM40.752 17.134C42.606 16.396 44.082 15.136 45.072 14.056C45.198 14.128 45.342 14.146 45.468 14.146C45.612 14.146 45.738 14.11 45.738 14.002C45.738 13.912 45.666 13.804 45.504 13.66C45.288 13.462 44.442 12.94 44.352 12.868C44.064 13.246 42.552 15.19 39.402 16.216L40.752 17.134ZM45.18 4.102V2.932H51.642V4.102H45.18ZM45.18 6.406V5.182H51.642V6.406H45.18ZM45.18 8.728V7.486H51.642V8.728H45.18ZM59.778 5.524H73.89V4.156H67.626V2.842C67.626 2.842 67.626 2.23 67.662 1.942C68.004 1.906 68.31 1.708 68.31 1.546C68.31 1.384 67.968 1.258 66.078 1.186C66.114 1.69 66.132 2.59 66.132 2.59V4.156H59.778V5.524ZM59.058 16.27H74.646V14.866H68.994C70.164 11.608 70.974 7.9 71.046 7.468C71.496 7.468 71.766 7.306 71.766 7.126C71.766 7.018 71.658 6.91 71.37 6.838C70.632 6.676 69.714 6.532 69.534 6.514C69.498 6.892 68.886 11.266 67.482 14.866H59.058V16.27ZM65.304 13.606C64.89 10.366 63.612 7 63.504 6.712L62.028 7.018C62.154 7.36 63.378 10.582 63.756 13.912L65.304 13.606ZM82.566 12.256H93.978V11.014H90.972V6.928H93.42V5.686H85.626V3.778C87.876 3.58 90.864 3.022 92.124 2.662C92.322 2.842 92.502 2.932 92.628 2.932C92.736 2.932 92.808 2.878 92.808 2.77C92.808 2.698 92.79 2.626 92.718 2.518C92.448 2.14 91.71 1.294 91.71 1.294C90.522 1.816 87.192 2.464 85.032 2.626C84.708 2.554 84.258 2.5 84.258 2.5V11.014H82.566V12.256ZM79.02 2.338C79.02 2.338 80.946 3.562 81.9 4.822L82.998 3.724C81.972 2.608 80.064 1.438 80.064 1.438L79.02 2.338ZM88.794 13.696C89.226 14.272 91.188 16.252 92.916 17.134L94.428 16.162C91.962 15.208 90.216 13.48 89.838 12.976L88.794 13.696ZM77.886 6.694C77.886 6.694 80.118 7.792 81.144 8.98L82.098 7.738C81.072 6.802 78.84 5.632 78.84 5.632L77.886 6.694ZM82.458 17.314C84.762 16.072 86.382 14.002 86.382 14.002C86.472 14.02 86.562 14.038 86.652 14.038C86.832 14.038 86.976 13.984 86.976 13.894C86.976 13.75 86.922 13.714 85.446 12.976C85.248 13.372 83.772 15.352 80.856 16.486L82.458 17.314ZM81.198 10.132C80.64 11.59 79.434 14.506 78.048 16.09C78.048 16.09 78.822 16.666 79.542 17.008C79.596 17.026 79.65 17.044 79.686 17.044C79.794 17.044 79.83 16.972 79.83 16.864C79.83 16.774 79.794 16.648 79.722 16.54C80.82 14.596 81.648 12.76 82.206 11.41L81.198 10.132ZM85.626 11.014V6.928H89.64V11.014H85.626ZM113.976 8.818C112.842 7.756 111.006 5.254 110.07 1.816L108.81 2.14C109.818 5.524 111.114 7.9 112.392 9.52L113.976 8.818ZM104.202 9.898C105.498 8.008 106.668 5.11 107.118 2.878C107.154 2.878 107.172 2.878 107.208 2.878C107.514 2.878 107.73 2.77 107.73 2.644C107.73 2.518 107.622 2.338 105.912 1.942C105.462 5.056 103.968 8.098 102.654 9.484L104.202 9.898ZM113.346 16.216C112.41 13.552 110.178 10.024 110.178 10.024C109.818 10.168 108.954 10.456 108.954 10.456C109.512 11.23 110.214 12.472 110.826 13.804C109.872 14.038 108.126 14.38 106.398 14.632C107.388 12.184 108.486 8.242 108.54 8.026C108.972 7.99 109.206 7.846 109.206 7.702C109.206 7.594 109.062 7.468 108.792 7.414C108.432 7.342 107.154 7.162 107.154 7.162C107.1 7.9 106.092 12.094 104.922 14.812C104.292 14.884 103.68 14.92 103.158 14.938C103.158 14.938 103.482 15.91 103.716 16.504C103.806 16.738 103.932 16.864 104.04 16.864C104.184 16.864 104.292 16.666 104.292 16.27C104.292 16.252 104.292 16.234 104.292 16.216C107.568 15.802 110.178 15.208 111.294 14.92C111.582 15.622 111.816 16.324 111.96 16.918L113.346 16.216ZM100.044 17.224H101.394V13.786C101.394 12.4 101.286 8.296 101.232 6.838C101.466 7.342 101.79 8.026 102.24 8.818L103.41 8.314C102.528 7.288 101.916 6.316 101.556 5.704H103.554V4.462H101.376V2.77C101.376 2.77 101.376 2.176 101.412 1.762C101.754 1.69 101.916 1.546 101.916 1.438C101.916 1.33 101.79 1.222 101.538 1.204C100.926 1.15 100.008 1.096 100.008 1.096C100.044 1.798 100.062 2.626 100.062 2.626V4.462H97.578V5.704H99.828C99.576 6.604 98.604 9.736 96.66 11.77L98.046 12.22C99.072 10.852 99.828 8.71 100.17 7.63C100.116 9.232 100.044 12.004 100.044 13.696V17.224ZM117.738 17.26H119.07V16.036H130.032V17.134H131.382V6.01H126.594V3.67H132.246V2.338H116.874V3.67H121.968C121.986 4.3 122.004 5.272 122.004 6.01H117.738V17.26ZM123.336 6.01C123.336 5.182 123.354 3.994 123.354 3.67H125.244V6.01H123.336ZM119.07 14.722V11.95L120.51 12.598C122.652 11.14 123.282 9.178 123.318 7.252H125.244V10.726C125.244 12.004 126.216 12.112 127.134 12.112C128.412 12.112 129.564 12.112 129.816 9.79L128.592 8.53C128.538 10.492 128.34 10.87 127.296 10.87C126.738 10.87 126.594 10.744 126.594 10.438V7.252H130.032V14.722H119.07ZM119.07 7.252H122.004C121.95 8.8 121.482 10.546 119.07 11.68V7.252ZM136.332 3.688H151.326V2.464H144.432V2.14C144.432 2.14 144.45 1.87 144.468 1.726C144.882 1.654 145.044 1.528 145.044 1.402C145.044 1.294 144.936 1.042 143.1 1.042C143.136 1.33 143.154 1.852 143.154 1.852V2.464H136.332V3.688ZM139.446 8.44H140.688V8.026H146.97V8.422H148.176V4.732H139.446V8.44ZM137.088 17.314H138.42V10.276H149.382V14.866C149.382 15.406 149.292 15.73 148.158 15.73C147.708 15.73 147.132 15.694 146.34 15.586L147.312 17.062C147.528 17.062 147.726 17.08 147.942 17.08C149.346 17.08 150.714 16.81 150.714 14.956C150.714 14.65 150.678 13.768 150.678 13.462L150.66 9.124H137.088V17.314ZM140.382 15.802H141.606V14.596H146.16V15.136H147.312V11.32H140.382V15.802ZM140.688 6.964L140.67 5.74H146.97V6.964H140.688ZM141.606 13.57L141.588 12.256H146.16V13.57H141.606ZM163.674 5.02C164.07 4.534 164.43 3.994 164.718 3.472H166.014C166.158 3.724 166.626 4.588 166.896 5.488L168.084 5.038C167.832 4.498 167.49 3.886 167.256 3.472H170.766V2.374H165.312C165.42 2.158 165.51 1.96 165.582 1.798C165.96 1.762 166.086 1.672 166.086 1.564C166.086 1.474 165.978 1.366 165.852 1.33C165.51 1.204 164.538 0.915999 164.538 0.915999C164.448 1.456 163.692 3.328 162.234 4.66L163.674 5.02ZM156.456 5.722C157.05 5.11 157.662 4.246 158.166 3.472H158.994C159.138 3.76 159.588 4.642 159.822 5.506L161.028 5.092C160.794 4.534 160.434 3.886 160.2 3.472H163.044V2.374H158.814C158.922 2.194 159.012 2.032 159.084 1.906C159.552 1.888 159.732 1.744 159.732 1.6C159.732 1.528 159.66 1.456 159.57 1.42C159.228 1.276 158.274 0.987999 158.274 0.987999C158.148 1.546 156.816 3.85 154.908 5.254L156.456 5.722ZM155.718 9.988H170.514V8.818H163.602V7.378H169.434V6.19H163.602C163.602 6.082 163.602 5.884 163.638 5.722C163.944 5.668 164.088 5.524 164.088 5.416C164.088 5.326 163.998 5.236 163.818 5.2C163.476 5.146 162.252 5.092 162.252 5.092C162.306 5.47 162.306 5.776 162.306 5.956C162.306 6.028 162.306 6.082 162.306 6.19H156.888V7.378H162.306V8.818H155.718V9.988ZM155.97 12.796H165.726V14.92V14.938C165.726 15.55 165.24 15.802 164.304 15.802C163.782 15.802 163.116 15.73 162.324 15.604L163.314 17.098C163.548 17.116 163.764 17.116 163.98 17.116C165.69 17.116 167.022 16.738 167.022 15.082C167.022 14.956 167.004 14.29 167.004 13.408V12.796H170.442V11.572H167.004C167.004 11.446 167.004 11.23 167.04 11.014C167.364 10.96 167.526 10.816 167.526 10.708C167.526 10.582 167.382 10.474 167.094 10.456C166.698 10.42 165.672 10.33 165.672 10.33C165.726 10.852 165.726 11.248 165.726 11.464V11.572H155.97V12.796ZM158.454 13.966C158.454 13.966 160.164 14.83 161.514 16.162L162.288 15.028C161.01 13.894 159.228 13.048 159.228 13.048L158.454 13.966ZM174.996 8.404H176.418V5.614L188.154 5.632V8.44H189.612V4.372H186.138C186.552 3.796 187.2 2.878 187.524 2.176C187.542 2.176 187.56 2.176 187.578 2.176C187.974 2.176 188.154 2.068 188.154 1.96C188.154 1.87 188.064 1.78 187.902 1.708C187.344 1.456 186.318 1.222 186.318 1.222C185.94 2.518 185.13 3.778 184.716 4.39H182.268C182.646 4.246 183.33 4.012 183.33 3.994C182.97 2.41 181.998 1.222 181.998 1.222L180.756 1.528C180.756 1.528 181.62 2.716 181.998 4.39H178.65C178.992 4.228 179.658 3.922 179.658 3.904C179.064 2.482 177.93 1.33 177.93 1.33L176.706 1.816C176.706 1.816 177.786 2.914 178.398 4.39H174.996V8.404ZM174.33 12.202H182.682C182.736 12.58 182.736 12.94 182.736 13.3C182.736 13.318 182.736 13.318 182.736 13.336C182.736 15.118 181.8 15.604 180.738 15.604C180.018 15.604 179.208 15.37 178.614 15.154L179.586 16.954C179.856 17.026 180.216 17.08 180.612 17.08C182.088 17.08 184.14 16.36 184.14 13.336C184.14 13.318 184.14 13.3 184.14 13.282C184.14 12.94 184.122 12.58 184.068 12.202H190.332L190.35 10.87H183.672C183.6 10.708 183.51 10.564 183.402 10.402C184.356 9.844 186.282 8.44 186.642 8.098C186.894 8.062 187.056 8.008 187.056 7.864C187.056 7.81 187.02 7.738 186.948 7.63C186.84 7.522 186.174 6.892 186.03 6.892C185.922 6.892 185.85 7 185.76 7H177.75V8.224L184.59 8.17C184.068 8.656 183.276 9.196 182.628 9.592C182.448 9.448 182.232 9.304 181.998 9.178L180.774 9.7C181.458 10.06 181.908 10.456 182.196 10.87H174.33V12.202ZM199.278 4.39H209.358V3.202H204.678V2.248C204.678 2.248 204.696 1.978 204.714 1.78C205.11 1.708 205.29 1.564 205.29 1.456C205.29 1.276 204.93 1.168 203.292 1.096C203.328 1.456 203.346 1.96 203.346 1.96V3.202H199.278V4.39ZM204.822 5.488C204.822 5.488 206.298 7.594 208.134 8.962L209.43 8.08C206.982 6.622 205.866 4.804 205.866 4.804L204.822 5.488ZM200.16 9.196C201.834 7.792 202.86 5.902 202.86 5.902C202.968 5.92 203.076 5.938 203.166 5.938C203.364 5.938 203.49 5.866 203.49 5.776C203.49 5.686 203.382 5.56 203.166 5.416C202.86 5.218 201.996 4.786 201.996 4.786C201.996 4.786 201.168 6.856 198.882 8.53L200.16 9.196ZM199.494 17.17C201.24 16.504 202.824 15.316 204.102 13.786C205.47 15.334 207 16.378 208.476 16.99L210.024 15.928C208.062 15.298 206.28 14.272 204.894 12.76C205.668 11.644 206.298 10.402 206.766 9.034C206.802 9.034 206.838 9.034 206.874 9.034C207.126 9.034 207.306 8.926 207.306 8.782C207.306 8.62 206.856 8.44 205.632 7.99C205.344 9.34 204.822 10.6 204.084 11.734C203.346 10.708 202.77 9.466 202.374 8.026L201.168 8.638C201.744 10.258 202.482 11.626 203.31 12.778C201.96 14.398 200.106 15.622 197.838 16.216L199.494 17.17ZM196.038 17.278H197.352V14.362C197.352 12.724 197.244 9.34 197.208 7.144C197.424 7.9 197.838 9.214 198.324 10.294L199.548 9.934C198.234 8.134 197.604 6.28 197.424 5.686H199.17V4.48H197.316V2.446C197.316 2.446 197.334 2.068 197.352 1.834C197.676 1.744 197.82 1.618 197.82 1.51C197.82 1.276 197.244 1.186 196.02 1.132C196.074 1.51 196.074 2.248 196.074 2.248V4.48H193.896V5.686H195.948C195.696 6.694 194.832 9.556 193.032 11.86L194.364 12.166C195.156 10.888 195.786 9.034 196.164 7.828C196.11 9.772 196.038 13.048 196.038 14.254V17.278ZM213.426 16H215.172V9.754H221.85V16H223.596V2.878H221.85V8.296H215.172V2.878H213.426V16ZM227.993 16H229.721V10.852H232.655C235.391 10.852 237.515 9.502 237.515 6.82C237.515 4.282 236.219 2.878 232.637 2.878H227.993V16ZM229.721 9.394V4.336H232.637C235.013 4.336 235.751 5.254 235.751 6.856C235.751 8.638 234.491 9.394 232.601 9.394H229.721Z" fill="black"/>
</svg>

