<svg xmlns="http://www.w3.org/2000/svg" width="37.28mm" height="3.85mm" viewBox="0 0 105.67 10.93"><defs><style>.cls-1{fill:#231815;}</style></defs><g id="レイヤー_2" data-name="レイヤー 2"><g id="レイヤー_1-2" data-name="レイヤー 1"><path class="cls-1" d="M.64,3.14A13.64,13.64,0,0,1,2.81,4.55l-.64.82A8.42,8.42,0,0,0,0,3.85ZM2.88,7a30.16,30.16,0,0,1-1.66,3.42.42.42,0,0,1,.08.22c0,.07,0,.12-.1.12l-.1,0a7.13,7.13,0,0,1-1-.61,15.48,15.48,0,0,0,2.1-4ZM1.45.35a11.55,11.55,0,0,1,2,1.52l-.74.73A8.66,8.66,0,0,0,.76,1Zm.53,10A6.34,6.34,0,0,0,5,8c1,.49,1,.51,1,.61s-.1.09-.22.09l-.18,0a9.53,9.53,0,0,1-2.61,2.21ZM3.12,6.73H4.25V1.06a4.76,4.76,0,0,1,.51.08A18.81,18.81,0,0,0,9.21.25s.49.57.67.82a.27.27,0,0,1,.06.17c0,.07,0,.1-.12.1a.57.57,0,0,1-.33-.18,30.17,30.17,0,0,1-4.33.75V3.18h5.19V4H8.72V6.73h2v.83H3.12Zm4.71,0V4H5.16V6.73ZM8,8A8.21,8.21,0,0,0,11,10.16l-1,.65A10.66,10.66,0,0,1,7.27,8.52Z"/><path class="cls-1" d="M14.3,8.52c0-1.13,0-3,.09-4A11.24,11.24,0,0,1,13,7.53l-.92-.3a10.45,10.45,0,0,0,2.11-4h-1.5V2.36h1.66V1.14s0-.55,0-1l1,.07c.17,0,.25.09.25.16s-.11.17-.34.21c0,.28,0,.68,0,.68V2.36h1.45v.83H15.31a11.62,11.62,0,0,0,1.24,1.74l-.78.34c-.3-.53-.52-1-.68-1.32,0,1,.11,3.7.11,4.63v2.29h-.9ZM16,5.71a10.14,10.14,0,0,0,2.17-5c1.14.27,1.21.39,1.21.47s-.14.16-.34.16H19A14,14,0,0,1,17.07,6Zm6.2,5a9.35,9.35,0,0,0-.44-1.33,38.79,38.79,0,0,1-4.67.86v0c0,.26-.07.4-.16.4s-.16-.09-.22-.24c-.16-.4-.37-1.05-.37-1.05.35,0,.75,0,1.17-.08A26.54,26.54,0,0,0,19,4.16s.85.12,1.09.17.28.12.28.19-.16.19-.45.22c0,.14-.76,2.77-1.42,4.4,1.15-.17,2.31-.4,2.95-.55a14.31,14.31,0,0,0-1.25-2.23l.82-.29a26.44,26.44,0,0,1,2.11,4.12Zm.29-4.93A14.81,14.81,0,0,1,20.14.82L21,.6a10.6,10.6,0,0,0,2.61,4.67Z"/><path class="cls-1" d="M25.63,3.39h2.84c0-.49,0-1.14,0-1.56H25.06V1H35.3v.88H31.53V3.39h3.19v7.42h-.9v-.74h-7.3v.82h-.89ZM33.82,9.2v-5H31.53V6.34c0,.21.1.29.47.29.7,0,.83-.25.86-1.56l.82.84c-.17,1.55-.94,1.55-1.79,1.55-.61,0-1.26-.07-1.26-.92V4.22H29.35a4.12,4.12,0,0,1-1.87,3.56l-1-.43V9.2Zm-7.3-2a3.06,3.06,0,0,0,1.95-2.95H26.52Zm4.11-3.78V1.83H29.37c0,.22,0,1,0,1.56Z"/><path class="cls-1" d="M37.56,1h4.55V.62s0-.34,0-.54c1.22,0,1.3.17,1.3.24s-.11.17-.39.22c0,.1,0,.28,0,.28V1h4.59v.82h-10Zm.5,4.44h9V8.36c0,.2,0,.79,0,1,0,1.24-.91,1.42-1.84,1.42h-.42l-.65-1a7.92,7.92,0,0,0,1.21.1c.76,0,.82-.22.82-.58v-3H39v4.69h-.89Zm1.58-2.93h5.81V5h-.8V4.74H40.46V5h-.82Zm.62,4.39h4.62V9.47h-.77V9.11h-3v.81h-.81ZM44.65,4V3.21h-4.2V4Zm-.54,4.4V7.56h-3v.87Z"/><path class="cls-1" d="M49.48,2.89A7.27,7.27,0,0,0,51.72.05s.63.19.86.29a.15.15,0,0,1,.11.12c0,.09-.12.19-.43.2L52.08,1H54.9V1.7H53a9.83,9.83,0,0,1,.55,1.08l-.8.28A8.92,8.92,0,0,0,52.2,1.7h-.55a11.14,11.14,0,0,1-1.14,1.5ZM50,5.27h4.39v-1H50.8v-.8h3.61V3.36a3.54,3.54,0,0,0,0-.58s.82,0,1,.07.18.09.18.15-.09.17-.3.2a1.84,1.84,0,0,0,0,.31h3.88v.8H55.27v1h4.6V6H50Zm.16,1.83h6.5V7c0-.15,0-.41,0-.76l1,.09c.19,0,.28.08.28.16s-.1.17-.32.21a2.7,2.7,0,0,0,0,.37h2.29v.82H57.54v.4c0,.59,0,1,0,1.12,0,1.1-.89,1.35-2,1.35h-.44l-.66-1a9.23,9.23,0,0,0,1.32.13c.62,0,.94-.17.94-.58h0V7.92h-6.5Zm2.17,1a10.36,10.36,0,0,1,2,1.32l-.51.76a9.31,9.31,0,0,0-2-1.47Zm2-5.59A5.45,5.45,0,0,0,55.89,0s.65.19.88.28c.08,0,.15.09.15.15s-.08.13-.33.16L56.41,1H60V1.7H57.7c.16.28.39.69.56,1.05l-.8.3a7.89,7.89,0,0,0-.58-1.35H56a6.86,6.86,0,0,1-.69,1Z"/><path class="cls-1" d="M62,6.63H67.2a2.59,2.59,0,0,0-1-.78l.82-.35a2.67,2.67,0,0,1,.41.28,8,8,0,0,0,1.31-1l-4.56,0V4.05h5.34c.06,0,.11-.07.18-.07s.54.42.61.49.08.12.08.16-.11.13-.28.16A21.19,21.19,0,0,1,68,6.32a2.48,2.48,0,0,1,.18.31h4.45v.89H68.44a4.51,4.51,0,0,1,0,.72v0a2.22,2.22,0,0,1-2.35,2.49,3.17,3.17,0,0,1-.68-.08l-.65-1.2a4.6,4.6,0,0,0,1.42.3c.7,0,1.33-.33,1.33-1.51v0a4.53,4.53,0,0,0,0-.73H62Zm.44-4.32h2.27A6.08,6.08,0,0,0,63.54.6l.81-.32A6.14,6.14,0,0,1,65.51,2s-.45.22-.68.32h2.24a5.86,5.86,0,0,0-.83-1.9L67.07.2A5.15,5.15,0,0,1,68,2.05s-.45.17-.7.26h1.63A8,8,0,0,0,69.94.2,7.28,7.28,0,0,1,71,.53c.11,0,.17.11.17.17s-.12.14-.39.14h0a10.11,10.11,0,0,1-.93,1.46h2.32V5h-1V3.14H63.35V5h-1Z"/><path class="cls-1" d="M76,8.89c0-.81.05-3,.08-4.28a13.88,13.88,0,0,1-1.2,2.89L74,7.29A11.82,11.82,0,0,0,75.9,3.18H74.53V2.37H76V.89s0-.49,0-.75c.81,0,1.2.1,1.2.26s-.1.15-.32.21c0,.16,0,.41,0,.41V2.37h1.24v.81H76.88A10,10,0,0,0,78.3,6l-.82.24a17,17,0,0,1-.74-2.1c0,1.46.09,3.72.09,4.81V10.9H76Zm1.2,1.3A6.91,6.91,0,0,0,80.8,7.9a10.92,10.92,0,0,1-1.42-2.75l.8-.41a7.71,7.71,0,0,0,1.14,2.47,7.43,7.43,0,0,0,1-2.5c.82.3,1.12.42,1.12.53s-.12.17-.29.17h-.07a9.78,9.78,0,0,1-1.25,2.48A7.75,7.75,0,0,0,85.28,10l-1,.71a8,8,0,0,1-2.92-2.13,7.56,7.56,0,0,1-3.07,2.25Zm.69-5.12a6.35,6.35,0,0,0,2.08-2.49s.57.29.78.42.21.18.21.24-.08.11-.21.11l-.21,0a8.65,8.65,0,0,1-1.79,2.2Zm.27-3.55h2.71V.7s0-.34,0-.58c1.09.05,1.33.12,1.33.24s-.12.17-.38.22c0,.13,0,.31,0,.31v.63h3.11v.79H78.12Zm4.39,1.07a7.32,7.32,0,0,0,2.37,2.18L84,5.36a11.88,11.88,0,0,1-2.21-2.31Z"/><path class="cls-1" d="M90.08,1.31h1.17V4.92H95.7V1.31h1.16v8.74H95.7V5.89H91.25v4.16H90.08Z"/><path class="cls-1" d="M99.32,1.31h3.1c2.39,0,3.25.93,3.25,2.62s-1.42,2.69-3.24,2.69h-2v3.43H99.32Zm3.07,4.34c1.26,0,2.1-.5,2.1-1.69s-.49-1.68-2.07-1.68h-1.94V5.65Z"/></g></g></svg>