<svg xmlns="http://www.w3.org/2000/svg" width="21.48mm" height="3.86mm" viewBox="0 0 60.89 10.94"><defs><style>.cls-1{fill:#231815;}</style></defs><g id="レイヤー_2" data-name="レイヤー 2"><g id="レイヤー_1-2" data-name="レイヤー 1"><path class="cls-1" d="M2,8.92c0-.8,0-3,.09-4.28A13.66,13.66,0,0,1,.89,7.53L0,7.33A11.66,11.66,0,0,0,1.94,3.21H.58v-.8H2V.92A6.48,6.48,0,0,0,2,.18c.82,0,1.2.1,1.2.25s-.1.16-.31.22c0,.15,0,.41,0,.41V2.41H4.09v.8H2.93A9.88,9.88,0,0,0,4.34,6l-.81.24a17.16,17.16,0,0,1-.75-2.09c0,1.46.1,3.71.1,4.81v1.94H2Zm1.2,1.31A7,7,0,0,0,6.85,7.94,11.34,11.34,0,0,1,5.42,5.18l.8-.41A7.82,7.82,0,0,0,7.36,7.24a7.32,7.32,0,0,0,1-2.49c.81.3,1.11.42,1.11.53s-.12.16-.29.16H9.15A9.85,9.85,0,0,1,7.9,7.93,7.8,7.8,0,0,0,11.32,10l-1,.71A8.11,8.11,0,0,1,7.38,8.61a7.72,7.72,0,0,1-3.07,2.26Zm.7-5.12A6.44,6.44,0,0,0,6,2.61s.58.29.78.42.22.18.22.24-.09.11-.22.11l-.2,0a8.42,8.42,0,0,1-1.8,2.19Zm.26-3.55H6.87V.73s0-.33,0-.57C7.93.2,8.17.28,8.17.4s-.12.16-.39.21c0,.13,0,.31,0,.31v.64h3.12v.79H4.16ZM8.55,2.63a7.29,7.29,0,0,0,2.38,2.18l-.87.59a11.59,11.59,0,0,1-2.2-2.32Z"/><path class="cls-1" d="M13.7,2.1h3.88c0-.11,0-.22,0-.33,0-.7,0-1.39,0-1.59,1.25.07,1.34.12,1.34.25s-.19.23-.42.25c0,.14,0,.64,0,1.07,0,.11,0,.23,0,.35h4.08V7.77c0,.59,0,1.09,0,1.37v0c0,1.4-1.29,1.59-2.4,1.59h-.67l-.65-1.12a10.4,10.4,0,0,0,1.52.17c.69,0,1.22-.17,1.22-.74V7l-.8.53a6.44,6.44,0,0,1-2.68-3.46,5.34,5.34,0,0,1-2.67,3.54l-.75-.48V10.9h-1Zm1,4.84a4.84,4.84,0,0,0,2.85-4H14.66Zm6.9-4h-3a5.54,5.54,0,0,0,3,3.89Z"/><path class="cls-1" d="M28.47,5a13.45,13.45,0,0,1,2,1.49,14,14,0,0,0,3-2.91L26,3.61v-1h8.09c.08,0,.14-.08.2-.08s.82.62.82.77-.12.19-.33.23A20.11,20.11,0,0,1,31.2,7.18a9.45,9.45,0,0,1,1.32,1.6l-.9.78a12.8,12.8,0,0,0-3.93-4Z"/><path class="cls-1" d="M40.68,7.14a6.8,6.8,0,0,0-1.06-2.46l.81-.34a9,9,0,0,1,1.09,2.34Zm-.19,2.63A6.14,6.14,0,0,0,45,4s.61.1,1,.2a.19.19,0,0,1,.19.18c0,.12-.18.18-.3.2a7.15,7.15,0,0,1-4.48,5.92Zm2.1-3.16a8.08,8.08,0,0,0-.89-2.54l.83-.27a9.17,9.17,0,0,1,.94,2.41Z"/><path class="cls-1" d="M51.67,9a8.18,8.18,0,0,0,6.06-6.23l-6.33,0v-1l6.66,0a.24.24,0,0,0,.15,0,1.23,1.23,0,0,1-.06-.39,1.37,1.37,0,1,1,1.38,1.38A1.32,1.32,0,0,1,59,2.63h0a9.9,9.9,0,0,1-6.12,7.28Zm8.52-7.65a.67.67,0,1,0-.66.67A.67.67,0,0,0,60.19,1.37Z"/></g></g></svg>