<svg xmlns="http://www.w3.org/2000/svg" viewBox="0 0 85.45 10.7"><defs><style>.cls-1{fill:#231815;}</style></defs><g id="レイヤー_2" data-name="レイヤー 2"><g id="レイヤー_1-2" data-name="レイヤー 1"><path class="cls-1" d="M0,9.77A10,10,0,0,0,4.88,6.88,7.73,7.73,0,0,0,2.79,5.41l.64-.62A9.35,9.35,0,0,1,5.58,6.06,12.64,12.64,0,0,0,7.11,3.42H4.05A12.51,12.51,0,0,1,1,6.28L0,5.73A10.47,10.47,0,0,0,4.28,1.14a10.06,10.06,0,0,1,1,.3c.16.06.23.13.23.19s-.15.14-.33.14H5.12a9.16,9.16,0,0,1-.49.81c1.21,0,2.88,0,2.94,0s.14-.08.2-.08.82.53.82.7-.1.13-.27.16C7,6,4.92,9.27,1,10.48Z"/><path class="cls-1" d="M12.41,6.74A14.93,14.93,0,0,0,19.5,1.36a6.79,6.79,0,0,1,1.09.58c.07.06.11.11.11.16s-.1.12-.22.12a.51.51,0,0,1-.2,0,20.65,20.65,0,0,1-2,2.1V10.7H17.22l0-5.52a15.13,15.13,0,0,1-3.76,2.33Z"/><path class="cls-1" d="M31.08,5.06a16.81,16.81,0,0,1,3.06,4.2l-.93.62C33,9.43,32.79,9,32.56,8.6c-1.17.24-4.27.75-6.6,1.09v.07c0,.17-.08.33-.16.33s-.13-.08-.19-.24c-.16-.43-.35-1.14-.35-1.14.36,0,.74-.06,1.16-.11a44,44,0,0,0,2.39-6.94A11.39,11.39,0,0,1,30,2c.13,0,.19.11.19.17s-.14.17-.34.17h-.08a50,50,0,0,1-2.29,6.14c1.64-.22,3.41-.52,4.57-.73a12.6,12.6,0,0,0-1.78-2.23Z"/><path class="cls-1" d="M38.29,9.71c3.22-.58,3.8-2.53,4-4.34H37.85v-1h8.94v1H43.32c-.13,1.85-.84,4.44-4.06,5.2Zm.81-7.84h6.46v1H39.1Z"/><path class="cls-1" d="M50.27,5.37h9.15v1H50.27Z"/><path class="cls-1" d="M64,9.38a8.15,8.15,0,0,0,6-6.23l-6.33,0v-1l6.67,0c.18,0,.22-.1.3-.1s.85.6.85.76-.08.12-.26.17a9.9,9.9,0,0,1-6.12,7.28ZM70.76.28A5.79,5.79,0,0,1,72,1.74l-.65.47A5.33,5.33,0,0,0,70.18.67ZM72.18,0a4.16,4.16,0,0,1,1.16,1.27l-.64.47A4.15,4.15,0,0,0,71.6.4Z"/><path class="cls-1" d="M75.19,9.61a5.82,5.82,0,0,0,2.72-5V3.81c0-.4,0-.91,0-1.16,1.05,0,1.34.08,1.34.23s-.11.17-.31.2c0,.53,0,.91,0,1.24v.15a7,7,0,0,1-2.62,5.72Zm6-1.07a9.15,9.15,0,0,0,3.64-4.32l.6,1.25a11.46,11.46,0,0,1-4.32,4.29c0,.09,0,.15-.11.15s-.87-.78-.87-.82.07-.12.07-.28c0-1,.06-5.44.06-5.44,0-.23,0-.72,0-1,1.36.07,1.37.09,1.37.23s-.1.18-.33.2c0,.34,0,.83,0,.83Z"/></g></g></svg>