<svg xmlns="http://www.w3.org/2000/svg" width="17.13mm" height="3.86mm" viewBox="0 0 48.55 10.94"><defs><style>.cls-1{fill:#231815;}</style></defs><g id="レイヤー_2" data-name="レイヤー 2"><g id="レイヤー_1-2" data-name="レイヤー 1"><path class="cls-1" d="M0,10.12C1.12,9,1.68,7.23,1.68,3.54c0-1-.05-2.06-.07-3.06H9.85v3H9V3H2.53c0,.55,0,1.07,0,1.25,0,.67,0,1.33-.12,2h2V5.07H2.79V4.32H4.44V3.91a3.79,3.79,0,0,0,0-.62s.53,0,1,.07c.12,0,.18.07.18.14s-.1.17-.31.19c0,.27,0,.47,0,.47v.16H7V3.91a5,5,0,0,0,0-.62s.53,0,1,.07c.12,0,.18.07.18.14s-.09.17-.31.19c0,.27,0,.47,0,.47v.16H9.87v.75H7.81V6.24h2.68V7H6.72a3.28,3.28,0,0,0,.81,1.37A9.59,9.59,0,0,0,9,7.22a8,8,0,0,1,.73.53.16.16,0,0,1,.07.13s0,.07-.12.07l-.23,0a9.82,9.82,0,0,1-1.36.93,6,6,0,0,0,3.19,1l-.92.9A5.35,5.35,0,0,1,5.91,7H4.79V9.18c.79-.24,1.47-.48,1.84-.62l0,.77s-2.18.84-3.79,1.25v.12c0,.14,0,.24-.1.24s-.14-.07-.24-.25a6.16,6.16,0,0,1-.4-.87c.54-.08,1.17-.23,1.81-.39V7H2.33A7.58,7.58,0,0,1,1,10.47ZM9,2.23v-1H2.49l0,1Zm-2,4V5.07H5.24V6.24Z"/><path class="cls-1" d="M12.61,9.35A7.75,7.75,0,0,0,15,5.48l1,.24c.12,0,.22.11.22.18s-.1.16-.39.19a10.42,10.42,0,0,1-2.09,3.64Zm2.86.21a8.59,8.59,0,0,0,1.16.13c.53,0,1-.13,1-.61V4.44H13.09V3.55h10v.89H18.58V7.72c0,.6,0,1.06,0,1.5,0,1.13-.76,1.44-2.09,1.44h-.31ZM14.28.88h7.58V1.8H14.28Zm6.63,4.58A9,9,0,0,0,23.53,9.2l-1.11.5A17,17,0,0,1,20,5.76Z"/><path class="cls-1" d="M25,10.09a11,11,0,0,0,.88-3.37l.86.16a.19.19,0,0,1,.14.16c0,.08-.08.17-.32.18a14.2,14.2,0,0,1-.71,3ZM27,5.83,25.7,6c0,.2-.1.35-.19.35s-.14-.09-.19-.27c-.11-.4-.19-.89-.19-.89l.87,0c.26-.32.51-.68.75-1A9.32,9.32,0,0,0,25.27,2.6L25.73,2l.35.3A12.11,12.11,0,0,0,27.15.06a7,7,0,0,1,.92.44.2.2,0,0,1,.09.17c0,.06,0,.11-.17.11a.69.69,0,0,1-.18,0c-.07.1-.75,1.4-1.22,2,.23.24.43.47.59.66a17.45,17.45,0,0,0,1.23-2.26,7.19,7.19,0,0,1,.82.48.29.29,0,0,1,.13.2c0,.06-.05.11-.17.11l-.16,0c-.12.19-1.18,1.9-2.1,3.15.61-.08,1.16-.15,1.54-.22A8.57,8.57,0,0,0,28,3.69l.64-.31s.29.64.57,1.42a3.5,3.5,0,0,0,2.7-3.38H29.77V.6h5.72c-.06,3.36-.19,4.64-2.1,4.64l-.57,0-.63-1a7.14,7.14,0,0,0,1.18.17.91.91,0,0,0,1-.76,10.93,10.93,0,0,0,.22-2.15H32.82a4.44,4.44,0,0,1-2.68,4l-.9-.56a11.64,11.64,0,0,1,.4,1.32l-.75.33a9.33,9.33,0,0,0-.21-1l-.85.15,0,5.14H27Zm1.72,3.82a14,14,0,0,0-.61-2.78l.71-.19a24.57,24.57,0,0,1,.73,2.71Zm1.61-3.46h4.75v4.58h-.88v-.7h-3v.72h-.82Zm3.87,3.06V7h-3V9.25Z"/><path class="cls-1" d="M37.09,4.63A11,11,0,0,0,42.48,0s.68.19.9.23a.15.15,0,0,1,.15.13c0,.07-.08.16-.31.18a11.22,11.22,0,0,0,5.33,3.84l-1,.75a12.75,12.75,0,0,1-4.8-3.87A13.21,13.21,0,0,1,38,5.3Zm.09,5.58c3.28-.73,3.46-2.81,3.46-4.51V5.56c0-.73-.08-1.46-.08-1.46s.69,0,1.28.1c.11,0,.17.07.17.14s-.11.21-.37.24c0,0,0,.43,0,.89v.42a4.87,4.87,0,0,1-3.35,5Zm6.87-5.12s0-.56,0-1c0,0,.93,0,1.18.07s.2.08.2.16-.11.18-.33.21c0,.28,0,.67,0,.67v5.64h-1Z"/></g></g></svg>